<svg width="31" height="27" viewBox="0 0 31 27" fill="none" xmlns="http://www.w3.org/2000/svg">
<path fill-rule="evenodd" clip-rule="evenodd" d="M24.2361 4.57981C24.0833 5.43154 24.0833 5.43154 23.9722 5.97609C23.6944 6.74404 23.3333 7.35841 22.875 8.02862C22.8472 8.04258 22.8333 8.05655 22.8056 8.07051C21.5278 9.53661 20 10.4442 18.1667 11.0865C17.8056 11.1703 17.8056 11.1703 17.7639 11.1982V11.282C17.8889 11.4076 18.125 11.3797 18.2778 11.3797C18.4167 11.4216 18.4167 11.4216 18.6389 11.4355C19.3056 11.645 19.9444 11.8963 20.5556 12.2594C20.5972 12.3152 20.8889 12.5247 21.3611 12.9435C21.5 13.1111 21.6389 13.2786 21.7778 13.4462C22.0694 13.8651 22.2778 14.3538 22.4583 14.8425C22.5139 15.0938 22.5694 15.3451 22.625 15.5965C22.6528 15.8757 22.6528 15.8757 22.6528 16.6018C22.5972 16.9509 22.5278 17.2999 22.4722 17.649C22.375 17.8584 22.3472 18.012 22.1806 18.4309C21.8194 19.157 21.4167 19.8272 20.8889 20.4416C20.25 21.1118 19.5556 21.6982 18.8194 22.2567C18.6944 22.3126 18.5 22.3824 18.4167 22.4941C17.2778 23.1364 16.1528 23.5692 14.9167 24.0021C14.1528 24.1557 13.4028 24.3093 12.625 24.407C11.2083 24.4908 11.2083 24.4908 10.8056 24.5327C9.55555 24.5746 4.73611 24.8119 4.65278 24.798C4.58333 24.7282 4.59722 24.5466 4.65278 24.4768C5.94444 24.0998 7.26389 23.667 8.56944 23.3458C8.68056 23.3039 10.875 22.6617 11.0972 22.5779C12.0833 22.3684 13.0556 21.9914 14.0278 21.7262C14.25 21.6424 15.4167 21.3212 16.5 21.0001C17.4583 20.7767 18.4722 20.4695 19.4028 20.1484C19.4444 20.0925 19.4444 20.0366 19.4444 19.9668C19.4167 19.9529 19.3889 19.9249 19.375 19.911C19.2917 19.911 18.0417 20.2321 12.2083 21.6563C12.1806 21.6703 12.1528 21.6843 12.1389 21.6982C11.0694 21.9077 10 22.2149 8.93055 22.4662C8.84722 22.4941 8.76389 22.522 8.69444 22.55C4.65278 23.5134 4.65278 23.5134 4.55555 23.5553H4.44444C4.36111 23.4436 4.30556 23.4296 4.33333 23.276C4.63889 23.0805 4.63889 23.0805 5.38889 22.6477C5.58333 22.5639 7.43055 21.5027 7.61111 21.419C9.08333 20.5393 10.6111 19.7155 12.0833 18.8498C13.3194 18.1656 14.5694 17.4535 15.8056 16.7694C15.8472 16.7414 15.8889 16.7135 15.9306 16.6716C16.875 16.1829 17.7917 15.6384 18.7222 15.1217C19.1528 14.9402 19.6111 14.661 20 14.3957C20.0694 14.2979 20.0139 14.1723 19.9028 14.1583C19 14.6191 18.1111 15.0938 17.2222 15.5546C17.0833 15.5965 17.0833 15.5965 16.9444 15.6942C14.3889 17.0067 14.3889 17.0067 14.1806 17.0905C13.8889 17.272 13.125 17.649 13.0556 17.7049C11.9444 18.2634 10.8333 18.8498 9.73611 19.4502C9.69444 19.4642 9.66667 19.4642 9.63889 19.4781C9.04167 19.8831 8.31944 20.1484 7.70833 20.5253C6.63889 21.0559 5.55555 21.6144 4.5 22.173C4.375 22.2009 3.56944 22.7734 3.65278 22.2148C4.02778 21.8658 4.40278 21.5027 4.77778 21.1537C4.88889 21.028 5.18055 20.7627 5.22222 20.7488C5.625 20.3019 6.08333 19.7853 6.58333 19.4502C6.61111 19.4083 6.65278 19.3664 6.68055 19.3106C7.65278 18.403 8.63889 17.4815 9.56944 16.518C12.3611 13.8372 15.1667 11.1563 17.9722 8.51732C18.0556 8.40562 18.1389 8.29392 18.2639 8.2241C19.9722 6.57649 20.0833 6.45082 22.1111 4.50999C22.25 4.41225 22.25 4.41225 22.2917 4.32847C22.2917 3.99337 22.0972 4.14696 21.9167 4.28659C21.4167 4.78925 20.875 5.23606 20.3611 5.72476C20.1667 6.00401 19.8194 6.19949 19.5972 6.46479C19.1111 6.9116 18.5417 7.512 17.9861 7.90296C17.5833 8.30788 17.125 8.72676 16.6806 9.07583C15.0833 10.6257 13.3194 12.022 11.7361 13.5858C10.9583 14.2002 10.2778 14.9961 9.48611 15.5965C9.27778 15.8338 9.27778 15.8338 7.86111 17.1463C7.80555 17.1882 7.76389 17.2162 7.70833 17.2441C6.125 18.7102 4.51389 20.1484 2.90278 21.5865C2.72222 21.5865 2.68055 21.5446 2.69444 21.3631C4.625 18.5426 6.55555 15.7082 8.45833 12.8737C9.23611 11.7008 10 10.5 10.8194 9.35509C11.4028 8.4894 11.4444 8.40562 11.6528 8.12636C13.1389 5.90627 14.6944 3.67222 16.1528 1.42421C16.3333 1.24269 16.2778 1.13099 16.0417 1.15891C14.8056 2.90427 13.5278 4.62169 12.3056 6.39497C12.0972 6.66027 11.7083 7.24671 7.56944 13.0692C7.47222 13.2228 5.98611 15.2614 5.88889 15.387C4.55555 17.258 3.22222 19.157 1.86111 21.0001C1.79167 21.0559 1.72222 21.1118 1.625 21.0559V20.8884C2.59722 18.3471 3.625 15.792 4.68056 13.2926C6.22222 9.39698 7.76389 5.47343 9.33333 1.5778C9.33333 1.49402 9.33333 1.49402 9.27778 1.42421C9.22222 1.42421 9.16667 1.43817 9.125 1.48006C7.93056 4.17488 6.69444 6.86971 5.48611 9.56453C5.43056 9.63435 4.16667 12.4688 3.80555 13.1949C3.65278 13.5719 3.52778 13.8092 3.36111 14.2002C2.33333 16.3784 1.34722 18.5985 0.36111 20.8046C0.23611 20.8605 0.125 20.8744 0 20.8186C0.0138889 20.665 0.0138876 20.665 0.499999 18.8638C0.541665 18.766 0.680555 18.2215 0.722222 18.1098C0.763888 17.9143 0.805555 17.8166 1.27778 15.9455C1.52778 15.01 1.77778 14.0745 2.04167 13.153C2.08333 12.9575 4.44444 4.37036 4.47222 4.2447C4.55556 3.96544 4.625 3.70015 4.70833 3.42089C5.01389 2.22009 5.33333 1.10306 5.56944 0.139628C5.59722 0.0698141 5.625 0.0558511 5.68055 0.0139626C9.90278 0.0139626 14.1389 0.0279256 18.375 0C19.6667 0.0698141 20.9861 0.293219 22.1806 0.851732C22.3056 0.949472 22.3056 0.949472 22.6111 1.11703C22.875 1.31251 23.1528 1.53591 23.4028 1.78724C23.5417 1.98272 23.6667 2.1782 23.8056 2.37368C23.8889 2.56916 23.9583 2.7786 24.0417 2.97408C24.0972 3.2673 24.1667 3.56052 24.2222 3.83978C24.2222 4.06318 24.2222 4.31451 24.2361 4.57981ZM31 5.68287C30.9167 6.28327 30.8194 6.84178 30.6528 7.41426C30.3056 8.14033 30.3056 8.14033 30.0833 8.54525C29.6806 9.15961 29.1667 9.67624 28.625 10.1649C28.0972 10.5699 28.0972 10.5699 27.5278 10.9748C26.8472 11.3797 26.0972 11.7008 25.375 12.036C25.0972 12.1197 24.7639 12.1895 24.5139 12.3431C24.5139 12.4129 24.5139 12.4129 24.5278 12.4409C25.4583 12.5386 26.2778 12.8598 27.0556 13.3764C27.4306 13.6975 27.7917 14.0187 28.1111 14.4096C28.4861 14.9542 28.7778 15.4848 29 16.0991C29.0556 16.3505 29.1111 16.5878 29.1667 16.8392C29.2083 17.2301 29.2083 17.6211 29.2083 18.026C29.0833 19.171 28.6667 20.1902 28.0556 21.1676C27.6667 21.7122 27.6667 21.7122 27.2778 22.2148C26.6111 22.913 25.7917 23.7089 24.9028 24.1138C24.25 24.6025 23.375 24.9097 22.625 25.2169C22.1528 25.3565 21.6667 25.5101 21.1944 25.6637C20.125 25.8591 20.125 25.8591 20.0139 25.901C19.1944 25.9848 19.1944 25.9848 18.9722 26.0267C14.2222 26.2222 9.41667 26.1384 4.66667 26.1384C4.61111 26.0407 4.58333 25.901 4.70833 25.8452C6.98611 25.7474 9.27778 25.6357 11.5556 25.5659C12 25.5659 12.4861 25.5799 12.9167 25.5101C14.4444 25.4542 15.9306 25.3844 17.4444 25.147C17.5417 25.1052 17.9444 25.0214 18.5417 24.8678C21.5 23.9044 24.1944 22.0194 25.4444 19.0593C25.5278 18.794 25.5278 18.794 25.6111 18.6404C25.6806 18.3053 25.75 17.9702 25.8194 17.635C25.8333 16.8112 25.8333 16.8112 25.8194 16.4901C25.7083 15.6942 25.4167 14.8983 24.9583 14.2421C24.75 14.0187 24.5556 13.7813 24.3472 13.5579C23.375 12.7899 22.4167 12.2733 21.1667 12.1756C21.1667 12.0778 21.1944 12.0639 21.2778 12.022C21.5833 11.9382 21.5833 11.9382 22.0139 11.7846C23.9861 10.9189 25.75 9.76001 26.8611 7.86107C26.9722 7.60974 27.0833 7.34444 27.1944 7.07915C27.3889 6.43686 27.5 5.79457 27.5556 5.12436C27.5278 4.83114 27.5139 4.53792 27.5 4.2447C27.4444 4.06318 27.3889 3.8677 27.3333 3.67222C27.0972 3.09975 26.8472 2.75068 26.4167 2.31783C25.7361 1.77328 24.9722 1.36836 24.1111 1.17288C24.1111 1.15891 24.1111 1.13099 24.125 1.11703C24.5694 1.03325 25.1111 1.11703 25.5556 1.14495C25.7639 1.18684 25.7639 1.18684 26.5139 1.27062C26.7639 1.32647 27.0139 1.38232 27.2778 1.43817C28.0833 1.66158 28.8889 1.94083 29.5694 2.42953C29.7639 2.61105 29.9722 2.79256 30.1667 2.97408C30.3333 3.23937 30.5 3.49071 30.6667 3.74204C30.75 3.99337 30.8333 4.23073 30.9167 4.48207C30.9306 4.8451 30.9861 5.26398 31 5.68287Z" fill="#F94F00"/>
</svg>
