<svg width="104" height="20" viewBox="0 0 104 20" fill="none" xmlns="http://www.w3.org/2000/svg">
<g clip-path="url(#clip0_1975_9885)">
<path d="M16.9555 1.80005H28.5877V4.40005H20.0114V8.20005H25.7289V10.8H20.0114V15.1H28.8834V17.7H16.9555V1.80005Z" fill="#3D4656"/>
<path d="M27.9962 6.40002H31.0521L33.8123 14.3L36.3754 6.40002H39.3327L35.1924 17.7H32.4322L27.9962 6.40002Z" fill="#3D4656"/>
<path d="M38.8398 12.1C39.2341 8.80002 42.1915 6.50002 45.4445 6.90002C48.1062 7.30002 50.1763 9.40002 50.5706 12.1C50.6692 15.3 48.2047 17.9 45.0502 17.9C44.9517 17.9 44.7545 17.9 44.6559 17.9C41.6 18.1 39.037 15.7 38.8398 12.6C38.8398 12.4 38.8398 12.3 38.8398 12.1ZM47.5147 12.2C47.5147 10 46.4303 8.70002 44.7545 8.70002C43.0787 8.70002 41.8957 10 41.8957 12.1V12.2C41.8957 14.3 42.9801 15.5 44.6559 15.5C46.3318 15.5 47.5147 14.3 47.5147 12.2Z" fill="#3D4656"/>
<path d="M51.9507 1.6001H55.0066V17.7001H51.9507V1.6001Z" fill="#3D4656"/>
<path d="M56.6825 13.2V6.40002H59.6398V13C59.6398 14.5 60.3299 15.4 61.71 15.4C63.2872 15.4 63.9773 14.1 63.9773 12.2V6.40002H66.9346V17.7H63.9773V16.1C63.3858 17.3 62.2028 18 60.8228 17.9C58.2597 17.9 56.6825 16.1 56.6825 13.2Z" fill="#3D4656"/>
<path d="M69.7934 14.7001V8.80007H68.2161V6.40007H69.7934V4.30007L72.7507 2.70007V6.50007H74.9194V8.90007H72.6521V14.5001C72.6521 15.0001 72.9479 15.3001 73.4408 15.3001H74.7223V17.8001H72.455C70.2863 17.6001 69.7934 16.6001 69.7934 14.7001Z" fill="#3D4656"/>
<path d="M76.2995 1.90002H79.454V4.80002H76.2995V1.90002ZM76.2995 6.40002H79.3554V17.7H76.2995V6.40002Z" fill="#3D4656"/>
<path d="M80.637 12.1C81.0313 8.80002 83.9886 6.50002 87.2417 6.90002C89.9033 7.30002 91.9735 9.40002 92.3678 12.1C92.4663 15.3 90.0019 17.9 86.8474 17.9C86.7488 17.9 86.5517 17.9 86.4531 17.9C83.3972 18.1 80.8341 15.7 80.637 12.6C80.637 12.4 80.637 12.3 80.637 12.1ZM89.4104 12.2C89.4104 10 88.3261 8.70002 86.6502 8.70002C84.9744 8.70002 83.7915 9.90002 83.7915 12.1V12.2C83.7915 14.3 84.7773 15.5 86.5517 15.5C88.3261 15.5 89.4104 14.3 89.4104 12.2Z" fill="#3D4656"/>
<path d="M93.7479 6.40011H96.7052V8.20011C97.2967 6.90011 98.5782 6.00011 100.057 6.10011C102.521 6.10011 104 7.70011 104 10.9001V17.7001H101.043V11.1001C101.043 9.50011 100.451 8.70011 99.0711 8.70011C97.691 8.70011 96.8038 9.80011 96.8038 12.0001V17.7001H93.8464L93.7479 6.40011Z" fill="#3D4656"/>
<path d="M12.618 19.8001C12.1251 19.8001 11.7308 19.4001 11.7308 18.9001C11.7308 18.4001 12.1251 18.0001 12.618 18.0001C13.1109 18.0001 13.5052 18.4001 13.5052 18.9001C13.6038 19.4001 13.2095 19.8001 12.618 19.8001ZM12.618 17.7001C12.0265 17.7001 11.4351 18.2001 11.5336 18.9001C11.5336 19.5001 12.0265 20.1001 12.7166 20.0001C13.3081 20.0001 13.8009 19.5001 13.8009 18.8001C13.8009 18.2001 13.3081 17.7001 12.618 17.7001Z" fill="#3D4656"/>
<path d="M10.745 9.2C11.7308 9.2 12.8152 9.2 13.8009 9.1C13.7024 7.1 13.0123 5.2 11.8294 3.5C11.928 3.9 11.928 4.3 11.928 4.7C11.928 6.3 11.5336 7.9 10.745 9.2Z" fill="#3D4656"/>
<path d="M10.3507 9.80005C8.67488 12.4 5.71754 14 2.66161 14C2.46445 14 2.16872 14 1.97156 14C1.18294 15.3 0.591469 16.6 0 17.9C4.5346 20.4 10.1536 18.7 12.618 14.2C13.3081 12.9 13.7024 11.4 13.8009 9.90005C12.618 9.80005 11.5336 9.80005 10.3507 9.80005Z" fill="#3D4656"/>
<path d="M0 1.20005C1.57725 4.80005 2.85877 9.00005 10.745 9.20005C11.5336 7.80005 11.928 6.30005 11.928 4.80005C11.928 4.40005 11.928 4.00005 11.8294 3.60005C8.97062 4.57764e-05 4.04171 -0.999954 0 1.20005Z" fill="#3D4656"/>
<path d="M10.3507 9.80005C5.61896 10 3.35166 11.8 1.97156 13.9C2.16872 13.9 2.46445 13.9 2.66161 13.9C5.71753 13.9 8.67488 12.4 10.3507 9.80005Z" fill="#3D4656"/>
<path d="M12.2237 18.7001H12.0265V18.6001H12.5194V18.7001H12.3223V19.2001H12.1251L12.2237 18.7001Z" fill="#3D4656"/>
<path d="M12.618 18.6001H12.8152L12.9137 19.0001L13.0123 18.6001H13.2095V19.2001H13.0123V18.7001L12.8152 19.2001H12.7166L12.8152 18.7001V19.2001H12.7166V18.6001H12.618Z" fill="#3D4656"/>
</g>
<defs>
<clipPath id="clip0_1975_9885">
<rect width="104" height="20" fill="white"/>
</clipPath>
</defs>
</svg>
