<svg width="71" height="32" viewBox="0 0 71 32" fill="none" xmlns="http://www.w3.org/2000/svg">
<path d="M67.6024 0.00469759C67.6588 0.023488 67.7152 0.0516735 67.7716 0.0610687C69.1913 0.328831 70.2538 1.62067 70.235 3.04874C70.2162 4.4862 69.1255 5.74046 67.6964 5.96594C66.0651 6.22901 64.5137 5.09219 64.2363 3.42924C63.9825 1.90252 65.1437 0.328831 66.7232 0.0563711C66.7844 0.0469759 66.8408 0.0187904 66.8972 0C67.1322 0.00469759 67.3673 0.00469759 67.6024 0.00469759Z" fill="#3D4656"/>
<path d="M-4.57764e-05 27.7207C0.455965 26.753 1.16584 26.3913 2.28941 26.5651C2.57148 26.6074 2.85355 26.6966 3.12621 26.7859C3.19673 26.8094 3.26725 26.9174 3.27665 26.9973C3.30015 27.1711 3.28135 27.3543 3.28135 27.5281C2.93346 27.4247 2.61379 27.2838 2.28001 27.2415C1.94623 27.204 1.58894 27.218 1.26456 27.2979C0.879067 27.3919 0.700424 27.7113 0.728631 28.0777C0.752136 28.43 0.944883 28.6555 1.33978 28.7542C1.68296 28.8387 2.03085 28.8951 2.36933 28.989C3.45529 29.2897 3.9019 30.4171 3.29545 31.2909C3.05099 31.6432 2.70311 31.8358 2.29411 31.9344C2.23299 31.9485 2.17658 31.972 2.12017 31.9908C1.88511 31.9908 1.65005 31.9908 1.415 31.9908C1.36328 31.9767 1.31157 31.9579 1.26456 31.9438C0.907274 31.8311 0.549987 31.7277 0.197402 31.6056C0.136287 31.5821 0.061069 31.4929 0.0516667 31.4271C0.0328622 31.2392 0.0469656 31.0466 0.0469656 30.8258C0.159793 30.8775 0.235011 30.9151 0.310229 30.9526C0.897872 31.211 1.49492 31.4083 2.14837 31.2862C2.47275 31.2251 2.69841 31.0372 2.78303 30.7084C2.90526 30.2198 2.6561 29.8017 2.13897 29.6561C1.88981 29.5856 1.63595 29.5387 1.38209 29.487C0.700424 29.3602 0.183299 29.0454 -4.57764e-05 28.3314C-4.57764e-05 28.1294 -4.57764e-05 27.9227 -4.57764e-05 27.7207Z" fill="#3D4656"/>
<path d="M38.5493 31.9951C38.1591 31.8777 37.783 31.7509 37.4915 31.4408C36.9415 30.8536 36.8428 29.7544 37.2894 29.0028C37.6937 28.3216 38.4976 28.0163 39.3109 28.2371C39.9878 28.4203 40.4533 29.0169 40.5191 29.8014C40.5332 29.9705 40.5191 30.1443 40.5191 30.3369C39.6024 30.3369 38.6856 30.3369 37.7783 30.3369C37.7407 30.8161 38.145 31.267 38.6621 31.3328C39.1793 31.3986 39.6541 31.2764 40.0913 30.9946C40.1665 30.9476 40.2417 30.8959 40.3592 30.8208C40.3592 31.0462 40.3686 31.2294 40.3545 31.4126C40.3498 31.4737 40.2793 31.5583 40.2182 31.5818C39.8844 31.7274 39.5459 31.8542 39.2075 31.9904C38.9865 31.9951 38.7702 31.9951 38.5493 31.9951ZM39.7669 29.7356C39.781 29.1625 39.3579 28.7867 38.7373 28.8008C38.2108 28.8149 37.7642 29.2565 37.8065 29.7356C38.46 29.7356 39.1134 29.7356 39.7669 29.7356Z" fill="#3D4656"/>
<path d="M11.7528 31.9952C11.734 31.9812 11.7152 31.9624 11.6964 31.9624C11.0195 31.8543 10.5776 31.3235 10.6622 30.5813C10.7327 29.98 11.278 29.5525 12.0067 29.5666C12.3452 29.576 12.6837 29.6558 13.0222 29.7028C13.135 29.1438 12.8717 28.7962 12.2841 28.7774C11.7858 28.7586 11.3297 28.9183 10.8643 29.1814C10.8643 28.9559 10.8596 28.7586 10.869 28.566C10.8737 28.519 10.9301 28.4627 10.9819 28.4392C11.5601 28.1855 12.1618 28.0822 12.7871 28.2372C13.3465 28.3734 13.7085 28.7821 13.7226 29.3552C13.7461 30.182 13.7273 31.0134 13.7273 31.859C13.5158 31.859 13.3089 31.859 13.088 31.859C13.0786 31.7932 13.0692 31.7181 13.0645 31.6711C12.8012 31.7792 12.5379 31.8872 12.2747 31.9999C12.096 31.9952 11.9268 31.9952 11.7528 31.9952ZM13.0457 30.7739C13.0457 30.3558 13.0363 30.3135 12.6602 30.2243C12.4157 30.1679 12.1524 30.1491 11.9033 30.1726C11.593 30.2008 11.3909 30.4169 11.3721 30.6752C11.3485 30.9853 11.5037 31.2342 11.8093 31.3423C12.1101 31.4503 12.4063 31.4127 12.6978 31.2812C12.9234 31.1732 13.1256 31.0463 13.0457 30.7739Z" fill="#3D4656"/>
<path d="M30.5573 31.9953C30.1624 31.8732 29.7816 31.7369 29.4807 31.4222C28.8884 30.7974 28.7897 29.7357 29.2786 28.9888C29.7581 28.2607 30.7312 27.9647 31.5822 28.2936C32.386 28.6036 32.8656 29.4492 32.7339 30.3323C32.607 31.2061 32.0993 31.7604 31.239 31.9483C31.2108 31.953 31.1873 31.9765 31.1638 31.9906C30.9663 31.9953 30.7595 31.9953 30.5573 31.9953ZM32.0335 29.9659C32.0335 29.4586 31.6856 28.9747 31.1496 28.8479C30.609 28.7211 30.0825 28.9512 29.838 29.421C29.5607 29.9565 29.6782 30.7081 30.1013 31.0605C30.4868 31.3799 30.924 31.4316 31.3706 31.2249C31.8454 31.0041 32.0241 30.5813 32.0335 29.9659Z" fill="#3D4656"/>
<path d="M18.6635 31.9952C18.0147 31.7227 17.8878 31.5348 17.8878 30.8067C17.8878 30.1819 17.8878 29.5571 17.8878 28.9042C17.6763 28.9042 17.4741 28.9042 17.2626 28.9042C17.2626 28.6881 17.2626 28.5002 17.2626 28.2841C17.4835 28.2841 17.6998 28.2841 17.9348 28.2841C17.9348 27.9881 17.9442 27.7157 17.9301 27.4432C17.9254 27.2929 17.9677 27.1942 18.1088 27.1238C18.2545 27.0533 18.3908 26.9641 18.5648 26.8607C18.5648 27.3446 18.5648 27.8002 18.5648 28.2794C18.8656 28.2794 19.143 28.2794 19.4392 28.2794C19.4392 28.4908 19.4392 28.6787 19.4392 28.8948C19.1524 28.8948 18.875 28.8948 18.5695 28.8948C18.5695 29.3598 18.5695 29.8014 18.5695 30.2477C18.5695 30.445 18.5648 30.6376 18.5695 30.8349C18.5789 31.2342 18.7904 31.4221 19.19 31.3798C19.2652 31.3704 19.3452 31.3563 19.4157 31.3422C19.5238 31.765 19.4815 31.8918 19.1806 31.9999C19.0067 31.9952 18.8374 31.9952 18.6635 31.9952Z" fill="#3D4656"/>
<path d="M52.8454 8.26749C52.8454 7.99033 52.8454 7.77424 52.8454 7.54876C54.3169 7.54876 55.7695 7.54876 57.2551 7.54876C57.2551 7.64271 57.2551 7.73666 57.2551 7.82592C57.2551 10.8465 57.2504 13.867 57.2504 16.8923C57.2504 18.1747 57.2786 19.4618 57.241 20.7443C57.2034 22.1019 56.879 23.3749 55.9952 24.4554C55.1537 25.4842 54.0301 26.0385 52.7561 26.3062C50.0623 26.8699 47.5002 26.4519 45.065 25.1976C44.83 25.0755 44.736 24.9345 44.7407 24.6574C44.7595 23.436 44.7501 22.2146 44.7501 20.9933C44.7501 20.9134 44.7501 20.8288 44.7501 20.7537C45.3189 21.059 45.8548 21.3785 46.419 21.6415C47.6977 22.2287 49.0375 22.5857 50.4619 22.5106C50.8098 22.4918 51.1624 22.4307 51.4962 22.3274C52.2813 22.0878 52.7326 21.5429 52.7937 20.7255C52.836 20.1759 52.8031 19.6216 52.8031 19.0766C52.4881 19.2599 52.1732 19.4665 51.8441 19.631C49.5123 20.7866 46.4472 20.0631 44.8958 17.968C44.1389 16.9439 43.7252 15.7836 43.5936 14.52C43.4525 13.1624 43.5748 11.8283 44.1389 10.5693C45.0603 8.50707 46.6634 7.36085 48.9153 7.14007C50.1611 7.01793 51.3316 7.22462 52.3894 7.92926C52.5304 8.02321 52.6621 8.13126 52.8454 8.26749ZM52.8407 13.618C52.8407 13.1483 52.8454 12.6785 52.8313 12.2088C52.8266 12.1054 52.7749 11.9833 52.6997 11.9081C52.159 11.3867 51.5056 11.0766 50.7581 11.0015C49.7944 10.9028 48.9811 11.1847 48.4734 12.0537C48.022 12.8288 47.9844 13.6744 48.2148 14.5247C48.4357 15.3468 48.9106 15.9762 49.7662 16.1923C50.932 16.4836 51.9193 16.0749 52.7608 15.2716C52.8172 15.2199 52.836 15.1072 52.836 15.0179C52.8454 14.5576 52.8407 14.0878 52.8407 13.618Z" fill="#3D4656"/>
<path d="M0.0986633 2.03369C4.45192 2.03369 8.78166 2.03369 13.1302 2.03369C13.1302 3.40539 13.1302 4.77239 13.1302 6.17227C10.3048 6.17227 7.48885 6.17227 4.65877 6.17227C4.65877 7.22923 4.65877 8.24861 4.65877 9.29617C7.20208 9.29617 9.7407 9.29617 12.2981 9.29617C12.2981 10.6867 12.2981 12.0537 12.2981 13.4394C9.7642 13.4394 7.22089 13.4394 4.66347 13.4394C4.66347 14.4541 4.66347 15.4406 4.66347 16.4647C7.48885 16.4647 10.3095 16.4647 13.1443 16.4647C13.1443 17.9022 13.1443 19.3114 13.1443 20.7395C8.79577 20.7395 4.45662 20.7395 0.0986633 20.7395C0.0986633 14.5058 0.0986633 8.28149 0.0986633 2.03369Z" fill="#3D4656"/>
<path d="M33.392 7.53479C33.392 7.66162 33.392 7.76497 33.392 7.86362C33.3873 10.3158 33.3826 12.7632 33.3873 15.2153C33.3873 15.4784 33.4202 15.7509 33.5002 15.9998C33.7869 16.9394 34.7601 17.395 35.8037 17.0944C36.382 16.9253 36.8286 16.5683 37.1812 16.0891C37.2423 16.0045 37.2517 15.8683 37.2517 15.7556C37.2517 13.1249 37.2517 10.4943 37.247 7.86362C37.247 7.76497 37.247 7.66632 37.247 7.54888C38.7278 7.54888 40.1805 7.54888 41.6519 7.54888C41.6519 11.9505 41.6519 16.3475 41.6519 20.7491C40.1993 20.7491 38.7607 20.7491 37.2987 20.7491C37.2987 20.4579 37.2987 20.1713 37.2987 19.819C37.1859 19.9129 37.12 19.9693 37.0542 20.0257C34.8776 21.9047 31.2765 21.4631 29.7345 19.1237C29.161 18.25 28.9401 17.2823 28.9777 16.2441C28.9824 16.1502 28.9824 16.0562 28.9824 15.9623C28.9824 13.2471 28.9824 10.5272 28.9683 7.81194C28.9683 7.58646 29.0294 7.52539 29.255 7.52539C30.5384 7.53479 31.8266 7.53009 33.11 7.53009C33.1946 7.53479 33.2792 7.53479 33.392 7.53479Z" fill="#3D4656"/>
<path d="M20.7132 17.0519C22.8146 17.0519 24.8784 17.0519 26.961 17.0519C26.961 18.2874 26.961 19.5041 26.961 20.7443C22.8993 20.7443 18.8422 20.7443 14.7663 20.7443C14.7616 20.6644 14.7569 20.5845 14.7569 20.5094C14.7569 19.4524 14.7522 18.3955 14.7616 17.3385C14.7616 17.2258 14.8227 17.0801 14.9073 17.0003C16.1578 15.7695 17.413 14.5481 18.6682 13.3268C19.3452 12.6691 20.0316 12.0114 20.7132 11.3538C20.7649 11.3068 20.8072 11.2504 20.8919 11.1612C18.8657 11.1612 16.8818 11.1612 14.8838 11.1612C14.8838 9.94448 14.8838 8.75599 14.8838 7.55811C18.8563 7.55811 22.8334 7.55811 26.8247 7.55811C26.8294 7.62857 26.8388 7.69434 26.8388 7.7601C26.8388 8.80297 26.8435 9.84114 26.8341 10.884C26.8341 10.9873 26.7871 11.1142 26.7166 11.1846C25.2592 12.6174 23.7972 14.0408 22.3351 15.4689C21.8368 15.9574 21.3385 16.4413 20.8355 16.9251C20.8025 16.9533 20.7743 16.9862 20.7132 17.0519Z" fill="#3D4656"/>
<path d="M63.9261 20.749C62.45 20.749 60.9926 20.749 59.5305 20.749C59.5305 16.3474 59.5305 11.9598 59.5305 7.55347C60.9926 7.55347 62.45 7.55347 63.9261 7.55347C63.9261 11.9457 63.9261 16.338 63.9261 20.749Z" fill="#3D4656"/>
<path d="M22.6312 26.6494C22.8569 26.6494 23.0684 26.6353 23.2753 26.6588C23.3458 26.6682 23.421 26.7622 23.4633 26.8326C24.0415 27.7627 24.6104 28.6976 25.1839 29.6324C25.2215 29.6982 25.2685 29.7592 25.3202 29.8438C25.7716 29.1157 26.2135 28.4016 26.6507 27.6923C26.8246 27.4151 27.0033 27.138 27.1631 26.8514C27.2524 26.6917 27.3558 26.6259 27.5345 26.6447C27.6802 26.6588 27.826 26.6494 27.9905 26.6494C27.9905 28.3969 27.9905 30.1256 27.9905 31.8638C27.7695 31.8638 27.5533 31.8638 27.3135 31.8638C27.3135 30.5719 27.3135 29.2848 27.3135 27.9976C27.2947 27.9929 27.2759 27.9835 27.2618 27.9788C26.6225 29.0123 25.9784 30.0458 25.3061 31.1262C24.6433 30.0458 24.0086 29.0217 23.374 27.9929C23.3599 27.9976 23.3458 27.9976 23.3317 28.0023C23.3317 29.2848 23.3317 30.5672 23.3317 31.8638C23.0825 31.8638 22.8569 31.8638 22.6265 31.8638C22.6312 30.1303 22.6312 28.411 22.6312 26.6494Z" fill="#3D4656"/>
<path d="M5.12419 31.8638C4.89384 31.8638 4.68699 31.8638 4.46133 31.8638C4.46133 30.6706 4.46133 29.4868 4.46133 28.2937C4.67759 28.2937 4.88444 28.2937 5.10539 28.2937C5.11479 28.3829 5.11949 28.4675 5.1289 28.552C6.13964 28.0118 6.52043 28.0259 7.2115 28.6272C7.52178 28.3641 7.88376 28.1997 8.30687 28.1715C9.11546 28.1105 9.74071 28.6225 9.76892 29.4352C9.79713 30.215 9.77362 30.9995 9.77362 31.784C9.77362 31.8075 9.76422 31.8262 9.75482 31.8638C9.53856 31.8638 9.32701 31.8638 9.08726 31.8638C9.08726 31.333 9.08726 30.821 9.08726 30.3042C9.08726 30.0928 9.09196 29.8814 9.08726 29.6701C9.06845 28.9372 8.4432 28.5896 7.80384 28.9607C7.57349 29.0969 7.42775 29.252 7.44656 29.5714C7.48417 30.3277 7.46066 31.084 7.46066 31.8591C7.2256 31.8591 7.00935 31.8591 6.779 31.8591C6.779 31.3941 6.779 30.9431 6.779 30.4874C6.779 30.2385 6.779 29.9848 6.779 29.7358C6.779 29.2708 6.60975 28.9607 6.29478 28.8574C5.93749 28.7352 5.41096 28.9137 5.18531 29.2426C5.143 29.3036 5.1336 29.4023 5.1336 29.4868C5.1289 30.1915 5.1336 30.8961 5.1336 31.6008C5.12419 31.6853 5.12419 31.7699 5.12419 31.8638Z" fill="#3D4656"/>
<path d="M34.9014 31.0277C35.1834 30.309 35.4514 29.6325 35.7194 28.9514C35.7288 28.9279 35.7335 28.9044 35.7429 28.8856C35.9873 28.2561 35.9873 28.2561 36.7066 28.2937C36.6831 28.3595 36.669 28.4252 36.6455 28.4816C36.2083 29.5433 35.7711 30.6049 35.3433 31.6713C35.2774 31.8357 35.1928 31.8873 35.0142 31.8827C34.5347 31.8733 34.5347 31.878 34.3513 31.4411C33.947 30.4687 33.538 29.4963 33.1337 28.5239C33.1055 28.4534 33.0773 28.383 33.0444 28.289C33.2842 28.289 33.5051 28.2749 33.7167 28.2984C33.7778 28.3031 33.8577 28.4017 33.8859 28.4722C34.1915 29.2426 34.4924 30.013 34.7932 30.7834C34.8214 30.8539 34.8543 30.9197 34.9014 31.0277Z" fill="#3D4656"/>
<path d="M14.771 28.2934C14.9966 28.2934 15.1988 28.2934 15.4244 28.2934C15.4244 28.4531 15.4244 28.5988 15.4244 28.8289C15.7676 28.3028 16.1907 28.1055 16.7548 28.1948C16.7548 28.439 16.7548 28.6739 16.7548 28.937C16.6373 28.937 16.5245 28.9417 16.4069 28.937C15.9321 28.9041 15.3915 29.3504 15.4291 29.9094C15.4667 30.4684 15.4385 31.0368 15.4385 31.6005C15.4385 31.6851 15.4385 31.7696 15.4385 31.8683C15.1988 31.8683 14.9872 31.8683 14.7663 31.8683C14.771 30.6704 14.771 29.4913 14.771 28.2934Z" fill="#3D4656"/>
</svg>
