<svg width="77" height="32" viewBox="0 0 77 32" fill="none" xmlns="http://www.w3.org/2000/svg">
<path fill-rule="evenodd" clip-rule="evenodd" d="M35.5128 24.8006V15.4961H40.3151C42.2829 15.4961 43.9438 14.8367 45.2979 13.5363L45.6228 13.2066C48.0962 10.5142 47.9337 6.31981 45.2979 3.82884C43.9799 2.51009 42.1746 1.79577 40.3151 1.8324H32.6062V24.8006H35.5128ZM35.5131 12.6754V4.65304H40.3884C41.4356 4.65304 42.4287 5.05599 43.169 5.78863C44.74 7.32717 44.7761 9.89141 43.2593 11.4849C42.519 12.2725 41.4717 12.7121 40.3884 12.6754H35.5131ZM59.1812 10.3126C57.9355 9.1587 56.2385 8.57259 54.0901 8.57259C51.3279 8.57259 49.2518 9.59828 47.8797 11.6314L50.4433 13.2615C51.3821 11.8695 52.6639 11.1735 54.2887 11.1735C55.3178 11.1735 56.3107 11.5581 57.087 12.2541C57.8453 12.9135 58.2785 13.8659 58.2785 14.8733V15.551C57.1592 14.9282 55.751 14.5985 54.0179 14.5985C51.9959 14.5985 50.3711 15.0748 49.1615 16.0455C47.9519 17.0163 47.3381 18.2984 47.3381 19.9285C47.302 21.4121 47.9339 22.8224 49.0532 23.7748C50.1905 24.8005 51.6348 25.3134 53.3319 25.3134C55.3358 25.3134 56.9245 24.4159 58.1341 22.6209H58.2605V24.8005H61.0407V15.1114C61.0407 13.0783 60.4269 11.4665 59.1812 10.3126ZM51.2922 21.9065C50.6964 21.4669 50.3352 20.7526 50.3352 19.9833C50.3352 19.1225 50.7325 18.4082 51.5089 17.8404C52.3034 17.2726 53.2965 16.9795 54.4702 16.9795C56.0952 16.9612 57.3592 17.3275 58.262 18.0602C58.262 19.3057 57.7745 20.3863 56.8175 21.3021C55.9508 22.1813 54.7771 22.6758 53.5493 22.6758C52.7367 22.6941 51.9423 22.4194 51.2922 21.9065ZM67.2873 31.7058L77.0001 9.08557H73.8407L69.3454 20.3682H69.2912L64.6876 9.08557H61.5282L67.9011 23.7933L64.2904 31.7058H67.2873Z" fill="#3C4043"/>
<path d="M25.4779 13.4818C25.4779 12.5843 25.4057 11.6868 25.2613 10.8076H13.0029V15.8811H20.0258C19.7369 17.5113 18.7981 18.9765 17.4261 19.8923V23.1892H21.6145C24.0698 20.8997 25.4779 17.5113 25.4779 13.4818Z" fill="#4285F4"/>
<path d="M13.0037 26.3757C16.5061 26.3757 19.4669 25.2035 21.6152 23.1887L17.4268 19.8919C16.2533 20.6978 14.7549 21.1557 13.0037 21.1557C9.60963 21.1557 6.73912 18.8295 5.71006 15.7158H1.39526V19.1226C3.5978 23.5734 8.09313 26.3757 13.0037 26.3757Z" fill="#34A853"/>
<path d="M5.71035 15.7161C5.16865 14.086 5.16865 12.3094 5.71035 10.6609V7.27246H1.39486C-0.464953 10.9906 -0.464953 15.3864 1.39486 19.1046L5.71035 15.7161Z" fill="#FBBC04"/>
<path d="M13.0037 5.22085C14.8632 5.18422 16.6505 5.89854 17.9865 7.19898L21.7055 3.42588C19.3405 1.19134 16.2353 -0.0358348 13.0037 0.000797129C8.09313 0.000797129 3.5978 2.82146 1.39526 7.27224L5.71006 10.679C6.73912 7.54698 9.60963 5.22085 13.0037 5.22085Z" fill="#EA4335"/>
</svg>
