<svg width="103" height="23" viewBox="0 0 103 23" fill="none" xmlns="http://www.w3.org/2000/svg">
<path d="M32.2865 18.2314H29.6036V14.4755H26.125V18.2314H23.435V8.66673H26.125V12.2812H29.6107V8.66673H32.2936V18.2314H32.2865ZM36.5609 16.5823L36.0821 18.2314H33.2935L36.2933 8.67346H40.3494L43.3985 18.2314H40.6662L40.1381 16.5823H36.5538H36.5609ZM38.3636 10.5716L37.1313 14.7313H39.6241L38.3565 10.5716H38.3636ZM44.4054 8.66673H49.8558C50.7641 8.67346 51.4895 8.84173 52.0317 9.15809C52.5668 9.48117 52.8415 10.1341 52.8415 11.1168C52.8415 11.6755 52.764 12.1534 52.6021 12.5572C52.4542 12.9611 52.0105 13.2303 51.2782 13.3447V13.412C51.9613 13.4794 52.419 13.6813 52.6513 14.0313C52.8837 14.3678 53.0034 14.8592 53.0034 15.4919C53.0034 16.5689 52.7781 17.2891 52.3345 17.666C51.8908 18.0429 51.081 18.2314 49.898 18.2314H44.4054V8.66673ZM48.7995 12.4966C48.841 12.5063 48.8836 12.5109 48.9262 12.5101H49.0248C49.3488 12.5034 49.6234 12.4562 49.8417 12.3889C50.067 12.3216 50.1797 12.086 50.1797 11.6957C50.1797 11.3456 50.1163 11.1101 49.9966 10.9822C49.8698 10.8476 49.6304 10.787 49.2642 10.787H47.0954V12.4966H48.7995ZM48.877 16.1246C49.2995 16.1313 49.6516 16.0977 49.9191 16.0169C50.2008 15.9361 50.3346 15.6602 50.3346 15.189C50.3346 14.7448 50.229 14.4755 50.0107 14.3948C49.7994 14.314 49.4755 14.2736 49.06 14.2736H47.0883V16.1246H48.877ZM56.5736 16.5823L56.0948 18.2314H53.3062L56.306 8.67346H60.3691L63.4182 18.2314H60.686L60.1579 16.5823H56.5736ZM58.3763 10.5716L57.144 14.7313H59.6368L58.3693 10.5716H58.3763ZM74.1076 18.2314H69.5727L66.756 10.8745H66.6152L66.7349 18.2314H64.1083V8.66673H68.6291L71.4458 15.9361H71.5515L71.4458 8.66673H74.1006V18.2314H74.1076ZM78.1144 12.4966H82.3747V14.2736H78.1144V16.1246H82.762V18.2314H75.4315V8.66673H82.6704V10.7735H78.1073V12.4966H78.1144ZM84.0224 8.66673H89.0644C90.346 8.67346 91.2614 8.88212 91.8106 9.29271C92.3599 9.69656 92.6345 10.5379 92.6345 11.8235C92.6345 12.537 92.5571 13.1159 92.3881 13.5601C92.2261 14.0111 91.6768 14.3275 90.7473 14.5159V14.6034C91.367 14.6438 91.8247 14.8188 92.1205 15.1419C92.4375 15.5253 92.5955 16.007 92.5641 16.4948V18.2314H89.8319V16.9525C89.8319 16.5756 89.7544 16.266 89.5995 16.0438C89.4446 15.8217 89.1488 15.7073 88.7052 15.7073H86.7124V18.2314H84.0295V8.66673H84.0224ZM88.839 13.513C89.3319 13.5265 89.6277 13.4188 89.7333 13.1967C89.8516 12.8959 89.9044 12.5752 89.8882 12.2543C89.8882 11.7832 89.8389 11.4399 89.7263 11.2178C89.6136 10.9956 89.2756 10.8879 88.7052 10.8879L86.7124 10.8745V13.513H88.839ZM93.6838 12.9476C93.6856 12.364 93.7327 11.7813 93.8246 11.2043C94.0077 10.1341 94.5217 9.44079 95.3526 9.12443C96.1836 8.80808 97.0779 8.6398 98.0356 8.62634H98.3384C100.064 8.62634 101.275 8.90231 101.965 9.46098C102.655 10.0196 103 11.1706 103 12.8938C103 14.664 102.796 16.0102 102.394 16.9323C101.986 17.8477 100.662 18.3054 98.4088 18.3054C98.0728 18.3037 97.737 18.2924 97.4018 18.2718C96.6483 18.2449 95.9301 18.0968 95.2611 17.8275C94.5921 17.5583 94.1344 17.0266 93.895 16.2256C93.7944 15.9036 93.733 15.5716 93.7119 15.2361C93.6908 14.8996 93.6838 14.563 93.6838 14.2265V13.513V12.9476ZM96.43 13.4726V14.0448C96.43 14.7178 96.5005 15.2361 96.6554 15.5929C96.8103 15.9496 97.2962 16.1246 98.1271 16.1246C99.0425 16.1246 99.627 15.9833 99.8735 15.7006C100.12 15.4179 100.24 14.8727 100.24 14.0582V13.7149L100.261 13.3582V13.0149V12.6649C100.261 12.0255 100.162 11.561 99.972 11.2649C99.7819 10.9687 99.3242 10.8206 98.6059 10.8206C97.5638 10.8206 96.9511 10.9552 96.754 11.2245C96.5568 11.4937 96.4512 12.2207 96.43 13.4255V13.4861V13.4726Z" fill="#3D4656"/>
<path fill-rule="evenodd" clip-rule="evenodd" d="M8.50647 3.50394C8.78814 3.50394 9.01347 3.28855 9.01347 3.02604V1.63947C9.01347 1.51183 8.96043 1.38942 8.86601 1.29916C8.77158 1.20891 8.64352 1.1582 8.50999 1.1582C8.37645 1.1582 8.24839 1.20891 8.15397 1.29916C8.05955 1.38942 8.0065 1.51183 8.0065 1.63947V3.02604C8.0065 3.29528 8.23184 3.50394 8.50647 3.50394Z" fill="#3D4656"/>
<path fill-rule="evenodd" clip-rule="evenodd" d="M6.5066 4.77608C6.78827 4.77608 7.00657 4.56069 7.00657 4.29819V2.91161C7.00657 2.78487 6.95389 2.66331 6.86013 2.57369C6.76637 2.48407 6.6392 2.43372 6.5066 2.43372C6.374 2.43372 6.24684 2.48407 6.15307 2.57369C6.05931 2.66331 6.00664 2.78487 6.00664 2.91161V4.29819C6.00664 4.56069 6.23197 4.76935 6.5066 4.76935V4.77608Z" fill="#3D4656"/>
<path fill-rule="evenodd" clip-rule="evenodd" d="M6.5066 1.57211C6.78827 1.57211 7.00657 1.36345 7.00657 1.10094C7.00657 0.974198 6.95389 0.852643 6.86013 0.76302C6.76637 0.673397 6.6392 0.623047 6.5066 0.623047C6.374 0.623047 6.24684 0.673397 6.15307 0.76302C6.05931 0.852643 6.00664 0.974198 6.00664 1.10094C6.00664 1.36345 6.23197 1.57211 6.5066 1.57211Z" fill="#3D4656"/>
<path fill-rule="evenodd" clip-rule="evenodd" d="M10.5134 5.13947C10.788 5.13947 11.0063 4.92408 11.0063 4.66158V4.67504C11.0063 4.61228 10.9934 4.55014 10.9682 4.49216C10.9431 4.43418 10.9063 4.38149 10.8599 4.33712C10.8134 4.29274 10.7583 4.25754 10.6977 4.23352C10.637 4.2095 10.572 4.19714 10.5063 4.19714C10.4407 4.19714 10.3757 4.2095 10.315 4.23352C10.2543 4.25754 10.1992 4.29274 10.1528 4.33712C10.1064 4.38149 10.0695 4.43418 10.0444 4.49216C10.0193 4.55014 10.0064 4.61228 10.0064 4.67504V4.66158C10.0064 4.93081 10.2317 5.13947 10.5134 5.13947Z" fill="#3D4656"/>
<path fill-rule="evenodd" clip-rule="evenodd" d="M14.5061 8.68676C14.2385 8.68676 14.0131 8.89542 14.0131 9.15793V9.40024C14.0094 9.52699 13.9531 9.64712 13.8567 9.73422C13.7603 9.82132 13.6317 9.86824 13.4991 9.86467C13.3665 9.8611 13.2408 9.80733 13.1497 9.71518C13.0586 9.62303 13.0095 9.50006 13.0132 9.37332V8.18194C13.0132 8.0543 12.9602 7.93189 12.8657 7.84164C12.7713 7.75138 12.6432 7.70068 12.5097 7.70068C12.3762 7.70068 12.2481 7.75138 12.1537 7.84164C12.0593 7.93189 12.0062 8.0543 12.0062 8.18194V8.20213C12.0146 8.26919 12.008 8.33719 11.9869 8.40164C11.9657 8.46608 11.9306 8.52552 11.8837 8.57602C11.8368 8.62653 11.7792 8.66696 11.7147 8.69464C11.6503 8.72233 11.5804 8.73664 11.5098 8.73664C11.4391 8.73664 11.3693 8.72233 11.3048 8.69464C11.2404 8.66696 11.1828 8.62653 11.1359 8.57602C11.089 8.52552 11.0538 8.46608 11.0327 8.40164C11.0116 8.33719 11.005 8.26919 11.0133 8.20213V6.20304C11.0133 6.14028 11.0004 6.07814 10.9753 6.02016C10.9502 5.96218 10.9133 5.90949 10.8669 5.86512C10.8205 5.82074 10.7654 5.78554 10.7047 5.76152C10.644 5.73751 10.579 5.72514 10.5134 5.72514C10.4477 5.72514 10.3827 5.73751 10.322 5.76152C10.2614 5.78554 10.2063 5.82074 10.1598 5.86512C10.1134 5.90949 10.0766 5.96218 10.0515 6.02016C10.0263 6.07814 10.0134 6.14028 10.0134 6.20304V6.97037C10.0134 7.23961 9.7599 7.44154 9.51344 7.44154C9.23177 7.44154 9.01347 7.23961 9.01347 6.97037V4.81647C9.01347 4.68883 8.96043 4.56642 8.866 4.47616C8.77158 4.38591 8.64352 4.33521 8.50998 4.33521C8.37645 4.33521 8.24839 4.38591 8.15397 4.47616C8.05954 4.56642 8.0065 4.68883 8.0065 4.81647V6.68767C8.0065 6.81442 7.95382 6.93597 7.86006 7.02559C7.7663 7.11522 7.63913 7.16557 7.50653 7.16557C7.37393 7.16557 7.24676 7.11522 7.153 7.02559C7.05924 6.93597 7.00657 6.81442 7.00657 6.68767V6.01458C7.00657 5.88783 6.95389 5.76627 6.86013 5.67665C6.76637 5.58703 6.6392 5.53668 6.5066 5.53668C6.374 5.53668 6.24683 5.58703 6.15307 5.67665C6.05931 5.76627 6.00663 5.88783 6.00663 6.01458V7.455C6.00663 7.58174 5.95396 7.7033 5.8602 7.79292C5.76644 7.88254 5.63927 7.93289 5.50667 7.93289C5.37407 7.93289 5.2469 7.88254 5.15314 7.79292C5.05938 7.7033 5.0067 7.58174 5.0067 7.455V5.45591C5.0067 5.32916 4.95403 5.20761 4.86026 5.11798C4.7665 5.02836 4.63934 4.97801 4.50674 4.97801C4.37414 4.97801 4.24697 5.02836 4.15321 5.11798C4.05944 5.20761 4.00677 5.32916 4.00677 5.45591V8.51849C4.00677 8.64523 3.95409 8.76679 3.86033 8.85641C3.76657 8.94603 3.6394 8.99638 3.5068 8.99638C3.3742 8.99638 3.24704 8.94603 3.15327 8.85641C3.05951 8.76679 3.00684 8.64523 3.00684 8.51849V7.71077C3.00684 7.58403 2.95416 7.46247 2.8604 7.37285C2.76664 7.28323 2.63947 7.23288 2.50687 7.23288C2.37427 7.23288 2.2471 7.28323 2.15334 7.37285C2.05958 7.46247 2.00691 7.58403 2.00691 7.71077V9.95891C2.00691 10.0857 1.95423 10.2072 1.86047 10.2968C1.76671 10.3865 1.63954 10.4368 1.50694 10.4368C1.37434 10.4368 1.24717 10.3865 1.15341 10.2968C1.05965 10.2072 1.00697 10.0857 1.00697 9.95891V9.2185C1.00697 9.09176 0.954299 8.9702 0.860537 8.88058C0.766775 8.79096 0.639607 8.74061 0.507008 8.74061C0.374409 8.74061 0.24724 8.79096 0.153478 8.88058C0.0597166 8.9702 0.00704177 9.09176 0.00704177 9.2185L0 9.95891V18.238L7.50653 22.3842L14.999 18.238V13.0013V9.16466C14.999 8.89542 14.7807 8.68676 14.5061 8.68676ZM11.0415 16.8043H8.68251V15.1013H6.32351V16.811H3.97156V11.4464H6.32351V13.2503H8.68251V11.4464H11.0415V16.8177V16.8043Z" fill="#3D4656"/>
</svg>
