<svg width="28" height="30" viewBox="0 0 28 30" fill="none" xmlns="http://www.w3.org/2000/svg">
<path d="M7.64809 6.5416C14.3303 -0.286477 22.4864 -2.0437 25.7292 2.57529C28.9721 7.24449 26.1223 16.5829 19.4401 23.411C12.7088 30.239 4.60181 31.9963 1.30986 27.3271C-1.88383 22.6579 0.965921 13.3195 7.64809 6.5416Z" fill="#F06321"/>
<path d="M12.0701 2.92652C11.3331 3.47879 10.5961 4.13147 9.85908 4.83436C4.01218 10.7587 1.50637 18.9424 4.45439 23.0091C7.45153 27.0758 14.6742 25.5696 20.6685 19.5951C23.9113 16.3818 26.0732 12.6666 26.9576 9.15212C27.2032 6.59159 26.8593 4.3323 25.7292 2.62528C23.1743 -1.03979 17.6713 -0.73855 12.0701 2.92652Z" fill="#AE282E"/>
<path d="M20.5701 3.68V3.83062C20.521 4.68413 20.0296 5.73846 19.1452 6.64218C17.8186 7.94755 16.0498 8.44961 15.3128 7.69651C14.4775 6.89321 14.9689 5.13599 16.2955 3.73021C17.6712 2.37463 19.44 1.92278 20.177 2.72608C20.4227 2.97711 20.5701 3.27835 20.5701 3.68ZM15.4602 26.775C12.3156 29.1849 9.07283 30.3898 5.87915 29.8878C7.20576 29.938 8.2867 28.4318 9.1711 26.4235C10.0555 24.365 10.5468 22.4572 10.989 20.6498C11.6278 17.788 11.6769 15.7797 11.333 15.3279C10.7925 14.625 9.6133 14.7756 8.23756 15.5789C7.54969 15.9806 6.66529 15.7295 7.69709 14.4242C8.77803 13.1188 12.9544 10.006 14.4284 9.50394C16.0989 9.05209 17.966 9.70477 17.3273 11.5624C16.9342 12.8678 11.0873 28.3816 15.4602 26.775Z" fill="white"/>
</svg>
