<svg width="35" height="30" viewBox="0 0 35 30" fill="none" xmlns="http://www.w3.org/2000/svg">
<path d="M0 14.9991C0 6.71565 7.80793 0 17.441 0C27.0731 0 34.881 6.71565 34.881 14.9991C34.881 23.2843 27.0731 30 17.441 30C7.80793 30 0 23.2843 0 14.9991Z" fill="#003874"/>
<path d="M15.3231 4.81669L19.3752 3.47754L19.3951 25.382L15.3083 26.7515L15.3231 4.81669Z" fill="#EC1C23"/>
<path d="M17.7276 18.4771C15.9675 20.5993 14.2654 22.7674 11.0778 22.7674C6.57526 22.7674 4.43921 18.4139 4.43921 14.7741C4.43921 11.2773 6.10838 7.1377 10.4948 7.1377C12.3979 7.1377 14.229 8.301 15.3213 9.53187L15.3178 12.5003C14.4057 11.8871 12.3623 11.2842 11.0293 11.2625C8.24703 11.2158 5.79481 12.4215 5.83726 15.1674C5.86671 17.0574 7.73943 18.342 9.60263 18.342C12.4568 18.342 14.1857 15.7347 15.6305 13.7563C16.0342 13.2392 17.1706 11.7199 17.3482 11.4756C18.9533 9.23304 20.8104 7.18534 23.998 7.18534C27.753 7.18534 29.8613 10.2127 30.4582 13.3284H28.7647C28.0839 12.3176 26.7716 11.7 25.4792 11.7C22.5298 11.7 20.7654 14.4138 19.2911 16.4121C19.2911 16.4121 18.1434 17.9765 17.7276 18.4771ZM30.5569 16.51C30.1766 19.6439 28.4191 22.809 24.581 22.8151C22.3401 22.8194 20.5904 21.2845 19.3777 19.4083V17.2341C20.8944 17.9869 22.3124 18.795 24.0327 18.8201C26.1514 18.8513 28.0666 18.0371 28.8591 16.51" fill="white"/>
</svg>
