<svg width="79" height="34" viewBox="0 0 79 34" fill="none" xmlns="http://www.w3.org/2000/svg">
<path d="M59.3451 7.3653C59.3451 7.52185 59.486 7.60012 59.5173 7.77232C59.6425 8.3672 59.8459 8.94642 60.0337 9.50999C60.2685 10.1988 60.5502 10.8563 60.7536 11.5608C60.8632 11.9052 60.9884 12.2496 61.2857 12.5313C61.7709 12.5313 62.256 12.5313 62.7882 12.5313C62.7882 11.5138 62.7882 10.4962 62.7882 9.49434C62.7882 9.22821 62.7099 8.94642 62.929 8.69595C63.0073 8.61767 62.9916 8.33589 62.9134 8.25762C62.7569 8.10107 62.7725 7.92887 62.7882 7.75667C62.8664 6.39471 62.6003 5.03276 62.9447 3.6708C63.0386 3.31075 62.7569 3.01331 62.7725 2.6376C62.7882 2.29319 63.1168 1.99576 62.8977 1.6357C62.3343 1.6357 61.7709 1.6357 61.1762 1.6357C61.3953 3.24813 60.9884 4.79794 61.0666 6.37906C61.0666 6.39471 61.0353 6.41037 60.9884 6.45733C60.8788 6.08162 60.6754 5.78418 60.5658 5.39282C60.4876 5.07972 60.5345 4.73532 60.3937 4.45354C60.2685 4.18741 60.1276 3.93693 60.112 3.62384C60.0807 3.3264 59.8459 3.07593 59.7677 2.74718C59.7207 2.55932 59.6894 2.37147 59.6581 2.16796C59.6581 2.12099 59.6112 2.08968 59.5955 2.08968C59.3921 1.99576 59.2043 2.12099 59.0478 1.99576C59.0165 1.90183 59.2199 1.88617 59.126 1.76094C58.9539 1.76094 58.7817 1.76094 58.5157 1.76094C58.4687 1.83921 58.3905 1.9801 58.3122 2.12099C57.9679 2.24623 57.7645 1.85486 57.4515 1.91748C57.4515 2.93504 57.4515 3.92128 57.4515 4.90752C57.4515 5.07972 57.4984 5.31454 57.4202 5.43978C57.1854 5.75287 57.2324 6.12858 57.3263 6.39471C57.5141 6.92697 57.4202 7.45923 57.4515 7.97583C57.4671 8.22631 57.4515 8.49244 57.4515 8.78988C57.7958 8.78988 58.0931 8.78988 58.4687 8.78988C58.1244 9.0247 57.8271 9.13428 57.4828 9.08731C57.4828 10.2301 57.4828 11.3572 57.4828 12.5157C57.7958 12.3748 57.8271 12.8131 58.0931 12.8444C58.3435 12.594 58.6722 12.7192 58.9539 12.6722C59.0321 12.594 59.0947 12.5313 59.173 12.4531C59.173 11.7799 59.173 11.1068 59.173 10.418C59.173 9.82308 59.2512 9.1969 58.7974 8.68029C59.0947 8.38285 59.0008 8.05411 59.0165 7.72536C59.0321 7.60012 58.9069 7.39661 59.173 7.3653C59.2512 7.3653 59.2982 7.3653 59.3451 7.3653ZM63.4298 15.7405C63.555 15.9127 63.7115 16.0536 63.8211 16.2728C64.3062 17.259 64.9635 18.1514 65.5113 19.0906C66.0903 20.0456 66.7476 20.9535 67.1858 22.0024C67.358 22.3938 67.5927 22.7695 67.8118 23.1452C67.8744 23.7244 67.624 24.2254 67.3267 24.6637C66.5442 25.7908 65.9182 27.0119 65.1826 28.1703C64.6192 29.047 64.0871 29.955 63.5394 30.8473C63.3829 31.1134 63.242 31.4109 63.0855 31.7239C63.2577 31.7709 63.289 31.9901 63.5707 31.9431C63.9932 31.63 64.494 31.8335 64.9635 32.0214C65.12 32.084 65.3235 32.1623 65.3861 32.0997C65.6521 31.8492 65.9964 31.9588 66.2938 31.8335C66.5755 31.7083 66.9511 31.8022 67.2641 31.8022C68.25 30.9725 68.7352 29.8454 69.3925 28.8122C69.6742 28.3582 69.8463 27.8259 70.3785 27.5285C70.9888 28.2956 71.5835 29.0313 72.1469 29.7984C72.726 30.5655 73.2737 31.3639 73.8058 32.1153C74.2127 32.1153 74.557 32.084 74.9013 32.1153C75.5743 32.1779 76.2316 32.084 76.8732 31.9275C77.2801 31.8335 77.7497 31.7866 78.0157 31.3795C78.0001 31.2387 77.9844 31.1291 77.9375 31.0038C77.7966 30.6594 77.4679 30.4716 77.2645 30.1898C76.7011 29.3914 76.169 28.5461 75.5899 27.7477C75.0265 26.9649 74.5257 26.1665 74.1188 25.3055C74.0562 25.1646 73.9623 25.0551 73.8841 24.9298C73.3207 23.9279 72.5695 23.0513 72.0374 22.0181C71.7557 21.4545 71.4114 20.9066 71.0514 20.39C70.222 19.2159 69.5177 17.9635 68.9073 16.6642C68.5943 15.991 68.2031 15.3492 67.5771 14.8952C67.4049 14.9422 67.2328 14.8482 67.0606 14.9735C66.8415 15.13 66.5442 15.1144 66.3407 15.0048C65.9964 14.8013 65.5739 14.8326 65.3078 14.9422C65.0261 15.0517 64.7601 15.0361 64.494 15.0517C64.228 15.0674 63.9776 15.0517 63.7115 15.0517C63.6333 15.13 63.555 15.2083 63.4768 15.2866C63.4298 15.4118 63.4298 15.5683 63.4298 15.7405ZM43.6481 23.0982C43.7733 22.8008 44.0393 22.8478 44.1489 22.6599C44.2428 22.4877 44.5714 22.4251 44.6027 22.3155C44.681 22.0963 44.8375 21.9868 44.9627 21.8459C45.1192 21.6737 45.2131 21.4701 45.26 21.2666C45.4165 20.4369 45.6356 19.6072 45.6043 18.7306C45.5887 18.3079 45.4635 17.9165 45.2444 17.6348C44.947 17.259 44.7279 16.8207 44.3367 16.5233C44.2584 16.4607 44.1958 16.3511 44.1176 16.3041C43.7263 16.1163 43.3351 15.9127 42.9438 15.7562C42.5682 15.5997 42.2083 15.3179 41.7701 15.3805C41.3006 15.4431 40.878 15.2083 40.4242 15.2083C39.5164 15.2083 38.6087 15.2083 37.701 15.2083C37.5445 15.3961 37.2628 15.3648 37.1846 15.537C37.1846 16.2415 37.1846 16.8833 37.1846 17.5565C37.9984 17.5565 38.7809 17.5721 39.5477 17.5408C39.7982 17.5252 40.0173 17.6191 40.1738 17.7287C40.7059 18.1044 41.2849 18.4331 41.5197 19.0906C41.5197 19.2315 41.5197 19.3568 41.5197 19.482C41.551 20.6404 41.0189 21.4388 39.9547 21.8459C39.4069 22.065 38.8435 22.2529 38.2488 22.2372C37.8888 22.2372 37.5289 22.2372 37.1376 22.2372C37.1689 23.0982 37.1063 23.9279 37.1689 24.8046C37.3254 24.5854 37.3411 24.3976 37.4976 24.3036C37.9827 24.1784 38.4679 24.288 38.9061 24.4602C39.1252 24.5385 39.3286 24.5698 39.5477 24.6011C40.5337 24.695 41.3788 25.0081 41.8327 25.963C41.8327 26.3701 41.864 26.7614 41.8327 27.1528C41.7231 28.0764 41.3162 28.6713 40.4242 29C39.7199 29.2662 39.0156 29.3131 38.2801 29.2975C37.9358 29.2975 37.5602 29.2349 37.3411 29.5166C37.2315 29.9393 37.1063 30.3307 37.1533 30.7377C37.2002 31.1447 37.1533 31.5517 37.1689 31.9588C37.8419 31.9588 38.4366 31.9744 39.0469 31.9588C39.8608 31.9118 40.6746 32.0527 41.4884 31.8335C41.864 31.7396 42.2865 31.7396 42.6308 31.5517C43.0064 31.3482 43.4446 31.3795 43.8046 31.1604C44.4775 30.769 45.0409 30.2368 45.4478 29.5949C45.9643 28.7496 46.1677 27.7946 46.2616 26.7927C46.3086 26.2605 45.9956 25.8065 46.0895 25.3368C45.4948 24.3193 44.7905 23.4896 43.6481 23.0982ZM57.2324 17.3843C57.3419 18.0574 57.3419 28.5147 57.2324 29.094C56.5751 29.2975 55.9491 28.7965 55.3074 29C55.1196 29.7984 55.0257 30.5968 54.9475 31.4265C55.2448 31.3952 55.0414 31.6926 55.1666 31.7553C56.2621 31.8648 57.3419 31.7083 58.4218 31.8961C59.2669 32.0527 60.1746 31.9275 61.0197 31.9275C61.4266 31.3013 61.5518 30.8786 61.5518 30.1272C61.3014 29.8454 61.1605 29.5323 61.2701 29.1566C61.4266 28.6087 61.5518 28.0451 61.5518 27.4815C61.5674 24.7733 61.5518 22.065 61.5518 19.3411C61.5518 18.6367 61.5205 17.9322 61.5674 17.2277C61.6144 16.5389 61.2701 15.8814 61.3953 15.2552C61.1762 14.9735 60.8319 14.9735 60.7067 14.676C60.2059 14.77 59.7051 14.6604 59.1886 14.8169C58.7348 14.9578 58.2027 14.8482 57.7175 14.8482C57.3419 15.177 56.9507 15.2396 56.4812 15.0204C56.1212 14.8482 55.7143 14.7856 55.2761 14.9108C55.37 15.7249 55.0883 16.5702 55.4952 17.3686C56.0899 17.3843 56.669 17.3843 57.2324 17.3843ZM48.7031 15.13C48.8596 15.631 48.4996 16.0849 48.5622 16.6015C48.6248 17.259 48.5466 17.9165 48.6874 18.574C48.797 19.0906 48.8126 19.6699 48.5935 20.2334C48.4683 20.5465 48.5309 20.9535 48.5779 21.3136C48.6248 21.705 48.3901 22.0337 48.4057 22.4251C48.437 23.2861 48.4214 24.1471 48.4214 25.0081C48.4214 25.1646 48.3744 25.3525 48.4527 25.4621C48.7187 25.8221 48.437 26.2292 48.6092 26.5736C48.8126 26.9806 48.6248 27.325 48.5935 27.7164C48.5466 28.4365 48.4214 29.2035 48.7344 29.8924C48.6092 30.1428 48.4996 30.362 48.3744 30.5968C48.7344 30.9099 48.9378 31.2856 48.8752 31.7396C49.063 31.8335 49.2352 31.7239 49.3604 31.8805C49.5012 32.037 49.7673 32.0057 49.8612 31.9431C50.1272 31.7239 50.3933 31.8022 50.675 31.8022C51.9426 31.7866 53.2103 31.8022 54.5249 31.8022C54.4936 30.8316 54.5562 29.908 54.4779 28.9531C53.7267 29.0783 53.0225 28.8591 52.3495 29.094C52.24 28.9844 52.1774 28.9061 52.1617 28.7496C52.0678 28.1234 52.3495 27.5442 52.3339 26.9336C52.3026 25.7282 52.3339 24.5228 52.2087 23.3174C52.0678 22.0494 52.1774 20.7657 52.1774 19.482C52.1774 19.1689 52.0835 18.8245 52.3182 18.5114C52.3808 18.4175 52.3808 18.1827 52.2556 18.0105C52.0835 17.76 52.1148 17.4782 52.4121 17.2434C53.0538 17.1964 53.7424 17.353 54.3371 17.0086C54.3371 16.2885 54.3371 15.5997 54.3371 14.8639C53.9928 14.9735 53.6485 14.7543 53.3511 15.0361C53.2729 15.1144 52.9755 15.1144 52.9129 15.0361C52.6782 14.8013 52.4278 14.8952 52.1774 14.8952C51.1601 14.8795 50.1429 14.8952 49.1256 14.8952C49.0317 15.0517 48.8283 14.9891 48.7031 15.13ZM36.6368 31.7709C36.6368 26.2918 36.6368 20.8283 36.6368 15.3492C35.4631 15.3492 34.3206 15.3492 33.1782 15.3492C33.1625 15.3492 33.1312 15.3648 33.1156 15.3805C33.0999 15.3961 33.0843 15.4118 33.0686 15.4431C33.0686 19.9047 33.0686 24.3506 33.0686 28.8122C33.0686 29.7984 32.9591 30.8003 33.2877 31.7709C34.3832 31.7709 35.4944 31.7709 36.6368 31.7709ZM67.7962 6.91132C68.61 8.75857 69.1264 10.6841 69.8307 12.5157C70.3941 12.5157 70.8793 12.5157 71.3488 12.5157C71.5366 12.2026 71.5679 11.8895 71.5679 11.5608C71.5522 8.42982 71.5679 5.31454 71.5522 2.18361C71.5522 1.9801 71.6305 1.77659 71.5053 1.62004C70.9419 1.62004 70.3941 1.62004 69.8307 1.62004C69.8307 3.35771 69.8307 5.07972 69.8307 6.78608C69.8307 6.80173 69.8151 6.83304 69.8151 6.8487C69.7994 6.86435 69.7837 6.88001 69.7524 6.91132C69.5177 6.15989 69.2829 5.42413 69.0638 4.68836C68.876 4.06217 68.5474 3.46729 68.5787 2.77849C68.5787 2.6376 68.4378 2.4654 68.3283 2.34016C68.1092 2.07403 67.8431 1.83921 67.4832 1.72963C67.1702 1.9801 66.8102 1.85486 66.3094 1.91748C66.2938 1.85486 66.2312 1.69832 66.1842 1.54177C66.1216 1.6357 66.0903 1.65135 66.0903 1.68266C66.0903 2.41843 66.0903 3.13855 66.0903 3.87431C66.0903 4.06217 66.1216 4.25003 65.9964 4.45354C65.793 4.78228 66.106 5.12669 66.0747 5.45543C66.0434 5.78418 65.8243 6.09728 66.0277 6.45733C66.1842 6.72346 66.1686 7.08352 66.0747 7.27137C65.9182 7.55316 65.9651 7.81929 65.9495 8.08542C65.9025 9.08731 66.1999 10.0579 66.106 11.0755C66.059 11.6703 66.0903 12.2652 66.0903 12.8601C66.6537 12.9227 67.1076 12.5783 67.6084 12.7348C67.7179 12.2809 68.1248 11.9834 67.937 11.5138C67.8431 11.3885 67.6866 11.3259 67.6553 11.1537C67.6866 10.9815 67.8275 10.8719 67.8275 10.6684C67.7962 10.0892 67.8118 9.52564 67.8118 8.94642C67.7962 8.24196 67.7962 7.58447 67.7962 6.91132ZM73.665 1.57308C73.5867 1.66701 73.4772 1.68266 73.3989 1.72963C72.5225 2.19927 72.0061 2.87242 72.0217 3.93693C72.053 5.81549 72.0374 7.69405 72.0217 9.57261C72.0217 10.2301 72.0843 10.8563 72.3191 11.4825C72.4912 11.9208 72.6947 12.3435 73.1172 12.5C73.4928 12.6409 73.8528 13.0793 74.3379 12.6879C74.4005 12.6409 74.5727 12.6722 74.6979 12.7505C75.0265 12.9384 75.4178 12.9071 75.7308 12.7818C75.9342 12.7035 76.122 12.6722 76.3098 12.6879C76.7167 12.7035 77.0611 12.6096 77.3271 12.3122C77.421 12.0304 77.2802 11.7799 77.1706 11.5451C77.468 11.3103 77.4367 10.9189 77.3271 10.7467C77.108 10.418 77.1393 10.0579 77.2175 9.79177C77.3897 9.22821 77.3427 8.68029 77.3427 8.13238C77.3427 7.86625 77.4836 7.66274 77.4992 7.55316C77.2645 7.28703 77.0924 7.08352 76.9202 6.88001C76.1064 7.24007 75.2456 6.97394 74.3849 7.09917C74.3849 7.63143 74.6196 8.11673 74.557 8.64898C74.8544 8.64898 75.0735 8.64898 75.2769 8.64898C75.3552 8.72726 75.4178 8.78988 75.4804 8.85249C75.4804 9.41606 75.4804 9.99528 75.4804 10.5745C75.2143 10.9033 74.9013 11.185 74.4788 11.3103C74.0093 10.825 73.7432 10.3084 73.7589 9.61957C73.7902 8.63333 73.7745 7.63143 73.7589 6.64519C73.7589 6.3321 73.8528 5.98769 73.618 5.69025C73.5398 5.59633 73.5554 5.3302 73.6493 5.25192C73.8371 5.06407 73.7589 4.86056 73.7589 4.6727C73.7589 3.99955 74.0249 3.4986 74.6196 3.1542C75.1517 3.63949 75.543 4.18741 75.496 4.97014C75.4804 5.14234 75.6369 5.3302 75.6995 5.5024C76.0594 5.76853 76.4507 5.61198 76.9045 5.65894C76.7011 5.25192 77.108 5.40847 77.2175 5.23627C77.0767 4.86056 77.3428 4.53181 77.3741 4.1561C77.4053 3.76473 77.1863 3.43598 77.1706 3.06027C77.1549 2.68456 76.7167 2.4967 76.5602 2.1523C76.4037 1.8079 75.9499 1.71397 75.6525 1.40088C75.0422 1.65135 74.3849 1.55743 73.665 1.57308ZM70.7854 19.5133C70.848 19.5759 70.9419 19.6229 70.9888 19.7168C71.5992 20.6561 72.2095 21.611 72.8042 22.566C72.8981 22.7225 72.9607 22.8947 73.1955 22.8634C73.4615 22.4094 73.7432 21.9554 73.9623 21.4701C74.4944 20.3274 75.1361 19.2472 75.9968 18.3236C76.1533 18.167 76.2942 17.9322 76.2472 17.6191C77.0454 16.9616 77.4836 16.1006 77.6714 15.0361C77.1236 15.0361 76.6541 15.0048 76.2003 15.0517C75.7777 15.083 75.3708 14.9891 74.917 15.1613C74.5101 15.3179 73.9936 15.2083 73.5241 15.2083C73.2894 15.2083 73.0703 15.3335 72.9451 15.4901C72.6164 15.8501 72.3034 16.2571 72.0374 16.6798C71.5992 17.353 71.2079 18.0574 70.7854 18.7775C70.7854 18.9654 70.7854 19.2315 70.7854 19.5133ZM42.5839 3.07593C42.6152 2.55932 43.0221 1.96445 42.3022 1.57308C41.191 2.13665 41.191 2.13665 40.5807 3.23247C40.4555 4.70401 40.6902 6.14424 40.4242 7.58447C40.2364 8.61767 40.6276 9.66654 40.565 10.7154C40.5337 11.2477 40.7841 11.6703 41.1128 12.046C41.2536 12.2182 41.4101 12.3904 41.5197 12.5157C41.6918 12.5157 41.7857 12.4844 41.8483 12.5157C42.0674 12.6409 42.2709 12.7818 42.5213 12.5313C42.5995 12.4531 42.8186 12.5157 42.9751 12.5C43.6794 12.5 44.3836 12.5 45.0879 12.5C45.1348 12.5 45.1818 12.4687 45.2444 12.4531C45.3226 12.2652 45.5261 12.2182 45.7921 12.093C45.5104 11.4668 45.5574 10.778 45.573 10.0892C45.573 9.13428 45.573 8.17935 45.573 7.16179C44.6027 7.30268 43.695 6.83304 42.6778 7.09917C43.1942 7.56881 42.7091 8.10107 42.7873 8.61767C43.116 8.61767 43.3977 8.61767 43.6324 8.61767C44.055 9.32213 43.7889 10.0109 43.6481 10.7624C43.5385 11.0128 43.1629 11.0755 42.9282 11.3103C42.8343 11.6547 42.9908 12.0147 42.7873 12.5157C42.7404 11.9521 42.6465 11.5608 42.4587 11.1694C42.1144 10.5119 41.9579 9.77612 41.9735 9.0247C41.9735 8.50809 41.9579 7.97583 41.9892 7.45923C42.0205 7.06786 41.9422 6.69215 41.8014 6.3634C41.7075 6.14424 41.6762 5.94073 41.6605 5.72156C41.6449 5.0171 41.8796 4.34395 41.9892 3.65515C42.177 3.48295 42.3804 3.27944 42.5839 3.07593ZM49.4699 1.99576C49.4699 3.34206 49.4699 4.71967 49.4699 6.09728C48.9848 6.15989 48.484 5.98769 48.124 6.3321C48.124 6.8487 48.124 7.33399 48.124 7.8506C48.5466 7.83494 48.9065 7.50619 49.3134 7.72536C49.376 7.78798 49.423 7.83494 49.5169 7.92887C49.2039 9.43172 49.3917 10.9659 49.3291 12.5C49.9707 12.8444 50.5498 13.0166 51.2227 12.6096C51.1288 12.4061 51.2853 12.2496 51.3636 12.0774C51.4731 11.8425 51.1601 11.733 51.2071 11.5138C51.301 11.0441 51.0036 10.6371 51.0349 10.1675C51.0819 9.69785 51.0506 9.22821 51.0506 8.75857C51.0506 6.48864 51.0506 4.21872 51.0506 1.94879C51.1445 1.85486 51.254 1.79225 51.1601 1.54177C50.7532 1.58873 50.2994 1.94879 49.9081 1.52612C49.7516 1.71397 49.6264 1.83921 49.4699 1.99576ZM65.2922 12.6722C65.2922 11.0128 65.2922 9.43172 65.2922 7.83494C65.2922 7.64709 65.2139 7.39661 65.3078 7.30268C65.5426 7.06786 65.4643 6.80173 65.433 6.56692C65.4017 6.26948 65.6678 6.05031 65.6052 5.76853C65.5895 5.69025 65.6365 5.59633 65.6052 5.53371C65.2765 4.97014 65.5739 4.3283 65.3861 3.74908C65.1826 3.1542 65.3548 2.51236 65.3078 1.90183C65.2922 1.77659 65.3704 1.6357 65.2139 1.58873C64.9166 1.40088 64.7757 1.8079 64.494 1.72963C64.2593 1.66701 63.9932 1.71397 63.7741 1.71397C63.7741 5.40847 63.7741 9.0247 63.7741 12.6566C64.2749 12.6722 64.7601 12.6722 65.2922 12.6722ZM38.2488 1.90183C38.2488 5.43978 38.2488 8.97773 38.2488 12.4844C38.7026 12.6096 39.1252 12.7975 39.5947 12.6566C39.7043 12.547 39.8138 12.4374 39.9547 12.2965C39.9547 12.093 40.0329 11.8269 39.939 11.639C39.7043 11.1224 39.7981 10.5902 39.7981 10.0579C39.7825 7.5375 39.7825 5.00145 39.7981 2.48105C39.7981 2.1523 39.7668 1.83921 39.5321 1.58873C39.2817 1.55743 39.2347 1.85486 38.9687 1.91748C38.7809 1.90183 38.5305 1.90183 38.2488 1.90183ZM47.7641 12.5626C47.7641 11.185 47.7171 9.90136 47.7797 8.63333C47.8423 7.34965 47.5449 6.08162 47.6076 4.79794C47.6545 3.79604 47.6232 2.77849 47.6232 1.77659C47.1224 1.77659 46.6685 1.77659 46.2147 1.77659C46.2147 2.8098 46.2303 3.79604 46.2147 4.78228C46.199 5.78418 46.3399 6.78608 46.0582 7.75667C46.0582 9.38475 46.0582 11.0285 46.0582 12.7192C46.6372 12.6722 47.1537 12.4061 47.7641 12.5626ZM55.1196 12.6409C55.1196 11.639 55.0727 10.6684 55.1353 9.7135C55.1822 8.75857 54.8848 7.83494 54.9631 6.89566C55.01 6.34775 54.9475 5.79984 54.9788 5.25192C55.01 4.68836 54.6814 4.18741 54.8222 3.60819C54.3214 3.60819 53.8832 3.60819 53.3981 3.60819C53.3981 4.61008 53.3981 5.58067 53.3981 6.56692C53.3981 6.75477 53.4763 7.00525 53.3824 7.09917C53.1477 7.3653 53.2259 7.64709 53.2572 7.89756C53.2885 8.195 53.0381 8.38285 53.0694 8.69595C53.1007 9.07166 53.2103 9.44737 53.2259 9.80743C53.2259 10.6997 53.3042 11.5764 53.445 12.4687C53.6798 12.5783 53.9458 12.7035 54.1962 12.8288C54.4466 12.5783 54.7909 12.7505 55.1196 12.6409ZM34.6493 10.7937C34.3363 10.0736 34.5241 9.38475 34.4771 8.69595C34.8371 8.33589 34.571 8.00714 34.3989 7.69405C34.3676 7.63143 34.305 7.56881 34.305 7.5375C34.2893 7.25572 34.4771 7.09917 34.4771 6.8487C34.4458 5.26758 34.4615 3.68646 34.4615 2.12099C34.3832 2.04272 34.3206 1.9801 34.2424 1.90183C33.9294 1.90183 33.6007 1.90183 33.2564 1.90183C33.1938 1.96445 33.1156 2.04272 33.0373 2.12099C33.0373 4.43788 33.0373 6.73912 33.0373 9.05601C33.0373 9.63523 32.9591 10.2144 33.2721 10.7937C33.6946 10.7937 34.1328 10.7937 34.6493 10.7937ZM56.6846 1.8079C56.5438 1.62004 56.3247 1.44784 56.1682 1.58873C55.9178 1.79225 55.683 1.72963 55.4326 1.72963C54.8222 1.71397 54.2275 1.77659 53.6172 1.60439C53.132 1.47915 52.5843 1.57308 52.0678 1.57308C51.927 1.69832 51.7235 1.83921 51.8487 2.02707C52.0678 2.37147 51.927 2.76283 52.0365 3.13855C53.2729 3.13855 54.4936 3.13855 55.7143 3.13855C56.0586 3.13855 56.4186 3.16985 56.6846 2.88807C56.6846 2.52801 56.6846 2.16796 56.6846 1.8079ZM45.4165 4.93883C45.4165 4.46919 45.4165 3.99955 45.4165 3.52991C45.4165 3.40467 45.4478 3.27944 45.3696 3.1542C45.0096 2.55932 44.7279 1.88617 44.0863 1.57308C43.7889 1.57308 43.5229 1.57308 43.3664 1.57308C43.1629 1.72963 43.0221 1.83921 42.9125 1.93314C42.9125 2.29319 42.9125 2.60629 42.9125 2.90373C43.069 3.06027 43.2099 3.21682 43.3664 3.35771C43.695 3.65515 43.8828 4.01521 43.8515 4.48485C43.8202 4.76663 43.8515 5.03276 43.8515 5.37716C44.321 5.17365 44.6653 5.6746 45.1505 5.39282C45.3539 5.37716 45.1974 5.03276 45.4165 4.93883ZM33.053 12.5157C33.319 12.5157 33.6007 12.5157 33.8824 12.547C34.1015 12.5626 34.305 12.547 34.5397 12.6566C34.7901 12.7818 35.197 12.7975 35.4318 12.6722C35.7604 12.5 36.0734 12.5783 36.3864 12.547C36.6212 12.5313 36.8403 12.547 37.0594 12.547C37.1846 12.0617 37.4037 11.6234 37.2159 11.1381C35.8543 11.1381 34.5084 11.1381 33.1625 11.1381C33.1469 11.1381 33.1156 11.1537 33.0999 11.1694C33.0843 11.185 33.0686 11.2007 33.053 11.232C33.053 11.6234 33.053 12.0304 33.053 12.5157Z" fill="#3D4656"/>
<path d="M15.0554 0.00756836C21.0024 0.00756836 26.9494 0.00756836 32.8965 0.00756836C32.693 0.38328 32.3174 0.555481 32.0044 0.790301C31.4253 1.22863 30.9245 1.72958 30.2829 2.10529C29.9386 2.3088 29.6725 2.62189 29.3595 2.87237C28.6083 3.45159 27.8884 4.06212 27.1216 4.64134C26.4486 5.14229 25.8696 5.73717 25.1966 6.22246C24.3359 6.84865 23.569 7.61573 22.6457 8.17929C22.3327 8.36715 22.0666 8.66459 21.7692 8.89941C20.7363 9.7291 19.6878 10.5588 18.6549 11.3885C18.0289 11.8894 17.3872 12.3747 16.6986 12.9853C18.2949 13.0322 19.813 12.9696 21.3467 13.0166C21.2841 13.4079 21.018 13.5801 20.8146 13.721C20.2512 14.1124 19.7817 14.6134 19.2339 15.0047C18.7175 15.3648 18.3106 15.8501 17.7785 16.1945C17.4029 16.4449 17.0899 16.7894 16.7456 17.0868C16.3387 17.4312 15.9161 17.7756 15.5092 18.1043C14.7424 18.7149 14.0538 19.4037 13.24 19.9516C12.88 20.1864 12.6296 20.5465 12.254 20.7969C11.8628 21.0474 11.6124 21.4857 11.1742 21.7832C12.927 21.7832 14.6954 21.7832 16.4795 21.7832C16.4795 22.1432 16.2604 22.2998 16.057 22.4094C15.118 22.9573 14.2729 23.6617 13.3965 24.3036C12.5514 24.9454 11.6593 25.5246 10.7985 26.1352C9.76564 26.8553 8.68579 27.4971 7.69984 28.2799C7.10513 28.7495 6.44783 29.1565 5.80618 29.5479C5.11757 29.9706 4.47592 30.4872 3.81862 30.9568C3.05176 31.5047 2.25361 32.0057 1.50241 32.5536C1.26766 32.7258 1.0955 33.0076 0.766854 33.0232C0.532102 33.0232 0.313001 33.0232 0 33.0232C0.985955 31.3325 2.14406 29.8453 3.20826 28.2955C4.28812 26.7301 5.32102 25.1333 6.57303 23.5678C5.97833 23.4895 5.50882 23.3173 4.96107 23.333C4.46027 23.3486 3.99077 23.4269 3.44302 23.5052C3.66212 22.8477 4.05337 22.4094 4.38202 21.9397C5.19582 20.8126 6.00963 19.7011 6.82343 18.574C7.59028 17.5095 8.32584 16.398 9.17094 15.3804C9.48394 15.0047 9.75 14.582 10.063 14.1281C8.87359 14.1281 7.68419 14.1281 6.51043 14.1281C6.44783 13.9245 6.44783 13.7993 6.51043 13.6428C6.94863 12.7035 7.55898 11.8894 8.07544 11.0128C8.54494 10.2144 9.10834 9.46298 9.56219 8.64893C9.89085 8.05406 10.3134 7.50614 10.6733 6.92692C11.1898 6.09723 11.7219 5.28318 12.2384 4.43783C12.927 3.3107 13.5843 2.16791 14.3511 1.08774C14.6015 0.727682 14.7424 0.305007 15.0554 0.00756836Z" fill="#3D4656"/>
<path d="M63.4298 15.7405C63.4298 15.584 63.4298 15.4274 63.4298 15.2709C63.5081 15.1926 63.5863 15.1143 63.6646 15.0361C63.915 15.0361 64.181 15.0517 64.4471 15.0361C64.7131 15.0204 64.9792 15.0361 65.2609 14.9265C65.5426 14.8169 65.9495 14.7856 66.2938 14.9891C66.4972 15.1143 66.7946 15.13 67.0137 14.9578C67.1858 14.8326 67.358 14.9265 67.5301 14.8795C68.1562 15.3335 68.5474 15.9753 68.8604 16.6485C69.4708 17.9478 70.175 19.2002 71.0045 20.3743C71.3644 20.8909 71.7087 21.4388 71.9904 22.0024C72.5225 23.0356 73.2737 23.9122 73.8371 24.9141C73.9154 25.0394 74.0093 25.149 74.0719 25.2899C74.4788 26.1509 74.9952 26.9492 75.543 27.732C76.122 28.5304 76.6385 29.3601 77.2175 30.1741C77.421 30.4559 77.7496 30.6437 77.8905 30.9881C77.9374 31.1134 77.9531 31.223 77.9688 31.3639C77.7183 31.7709 77.2332 31.8178 76.8263 31.9118C76.1846 32.0527 75.5273 32.1466 74.8544 32.0996C74.5257 32.0683 74.1814 32.0996 73.7589 32.0996C73.2268 31.3482 72.679 30.5498 72.1 29.7827C71.5366 29.0157 70.9419 28.2799 70.3315 27.5128C69.7994 27.8102 69.6273 28.3582 69.3456 28.7965C68.6883 29.814 68.2031 30.9568 67.2171 31.7865C66.9198 31.7865 66.5285 31.6926 66.2468 31.8178C65.9495 31.9587 65.5895 31.8335 65.3391 32.084C65.2765 32.1466 65.0731 32.0683 64.9166 32.0057C64.4471 31.8178 63.9306 31.6143 63.5237 31.9274C63.2264 31.9744 63.2107 31.7552 63.0386 31.7083C63.1951 31.3952 63.3203 31.0977 63.4924 30.8316C64.0402 29.9393 64.5723 29.0313 65.1357 28.1547C65.8712 26.9962 66.4972 25.7751 67.2797 24.648C67.5771 24.2097 67.8432 23.7087 67.7649 23.1295C67.5614 22.7538 67.311 22.3781 67.1389 21.9867C66.7007 20.9535 66.0277 20.0455 65.4643 19.075C64.9009 18.1357 64.2436 17.2434 63.7741 16.2571C63.7115 16.0536 63.555 15.9127 63.4298 15.7405Z" fill="#3D4656"/>
<path d="M43.6481 23.0982C44.7905 23.4896 45.4791 24.3192 46.0425 25.3211C45.9486 25.7908 46.2616 26.2604 46.2147 26.777C46.1208 27.7633 45.9173 28.7339 45.4009 29.5792C45.0096 30.2367 44.4306 30.769 43.7576 31.1447C43.3977 31.3482 42.9595 31.3169 42.5839 31.536C42.2396 31.7239 41.817 31.7082 41.4414 31.8178C40.6276 32.037 39.8138 31.8961 39 31.9431C38.4053 31.9744 37.7949 31.9431 37.122 31.9431C37.0907 31.536 37.1376 31.129 37.1063 30.722C37.0594 30.2993 37.2002 29.9236 37.2941 29.5009C37.5289 29.2191 37.8888 29.2661 38.2331 29.2818C38.9687 29.2974 39.6729 29.2348 40.3772 28.9843C41.2849 28.6556 41.6762 28.0607 41.7857 27.1371C41.8327 26.7457 41.7857 26.3544 41.7857 25.9473C41.3319 24.9767 40.4868 24.6637 39.5008 24.5854C39.2817 24.5697 39.0782 24.5384 38.8591 24.4445C38.4209 24.2879 37.9358 24.1627 37.4506 24.3036C37.2941 24.3975 37.2785 24.601 37.122 24.8045C37.0594 23.9122 37.1063 23.0982 37.0907 22.2372C37.4819 22.2372 37.8419 22.2372 38.2018 22.2372C38.8122 22.2528 39.3756 22.0493 39.9077 21.8458C40.9719 21.4231 41.504 20.6248 41.4727 19.482C41.4727 19.3567 41.4727 19.2158 41.4727 19.0906C41.2223 18.4331 40.6433 18.1044 40.1268 17.7286C39.9703 17.6191 39.7512 17.5251 39.5008 17.5408C38.7183 17.5721 37.9358 17.5564 37.1376 17.5564C37.1376 16.899 37.1376 16.2571 37.1376 15.537C37.2159 15.3648 37.4976 15.3961 37.6541 15.2083C38.5618 15.2083 39.4695 15.2083 40.3772 15.2083C40.8311 15.2083 41.2536 15.4431 41.7231 15.3805C42.1457 15.3335 42.5056 15.5996 42.8969 15.7562C43.3038 15.9284 43.695 16.1162 44.0706 16.3041C44.1645 16.351 44.2115 16.4606 44.2897 16.5232C44.681 16.8207 44.9001 17.2747 45.1974 17.6347C45.4165 17.9165 45.5417 18.3079 45.5574 18.7305C45.5887 19.6072 45.3852 20.4212 45.2131 21.2666C45.1661 21.4701 45.0879 21.6893 44.9157 21.8458C44.7749 21.9867 44.634 22.0963 44.5558 22.3155C44.5245 22.425 44.1958 22.4877 44.1019 22.6599C44.0393 22.8477 43.7733 22.8007 43.6481 23.0982Z" fill="#3D4656"/>
<path d="M57.2323 17.3842C56.6533 17.3842 56.0899 17.3842 55.4952 17.3842C55.0883 16.5859 55.37 15.7405 55.2761 14.9265C55.7299 14.8012 56.1368 14.8639 56.4811 15.0361C56.9506 15.2709 57.3262 15.2083 57.7175 14.8639C58.2026 14.8639 58.7348 14.9734 59.1886 14.8325C59.7051 14.6603 60.1902 14.7856 60.7067 14.6917C60.8319 15.0047 61.1918 14.9891 61.3953 15.2709C61.2701 15.8971 61.5987 16.5389 61.5674 17.2434C61.5205 17.9478 61.5518 18.6523 61.5518 19.3567C61.5518 22.065 61.5518 24.7732 61.5518 27.4972C61.5518 28.0607 61.4266 28.6243 61.2701 29.1722C61.1605 29.5323 61.3014 29.861 61.5518 30.1428C61.5518 30.8942 61.4422 31.3169 61.0197 31.9431C60.1746 31.9431 59.2825 32.0683 58.4218 31.9118C57.3419 31.7239 56.262 31.8805 55.1665 31.7709C55.0413 31.7083 55.2291 31.4265 54.9474 31.4421C55.0257 30.5968 55.1196 29.814 55.3074 29.0157C55.949 28.8121 56.575 29.3131 57.2323 29.1096C57.3419 28.5147 57.3575 18.0574 57.2323 17.3842Z" fill="#3D4656"/>
<path d="M48.703 15.1299C48.8282 14.989 49.0317 15.0517 49.1099 14.8795C50.1272 14.8795 51.1444 14.8795 52.1617 14.8795C52.4121 14.8795 52.6625 14.7855 52.8973 15.0203C52.9755 15.0986 53.2572 15.0986 53.3355 15.0203C53.6328 14.7386 53.9771 14.9577 54.3214 14.8481C54.3214 15.5839 54.3214 16.2727 54.3214 16.9928C53.7267 17.3372 53.0381 17.1807 52.3965 17.2277C52.0991 17.4625 52.0835 17.7286 52.24 17.9947C52.3652 18.1669 52.3652 18.4017 52.3026 18.4957C52.0678 18.8088 52.1774 19.1375 52.1617 19.4663C52.1461 20.7499 52.0522 22.0336 52.193 23.3017C52.3182 24.5071 52.2869 25.7125 52.3182 26.9179C52.3339 27.5284 52.0678 28.1076 52.146 28.7338C52.1617 28.8747 52.2243 28.9686 52.3339 29.0782C53.0068 28.8434 53.7111 29.0626 54.4623 28.9373C54.5405 29.8923 54.4779 30.8159 54.5092 31.7865C53.2103 31.7865 51.9269 31.7865 50.6593 31.7865C50.3932 31.7865 50.1115 31.7082 49.8455 31.9274C49.7516 32.0056 49.4855 32.037 49.3447 31.8647C49.2195 31.7239 49.0473 31.8334 48.8595 31.7239C48.9378 31.2699 48.7343 30.8942 48.3587 30.5811C48.4839 30.3462 48.5935 30.1271 48.7187 29.8766C48.4057 29.1878 48.5152 28.4364 48.5778 27.7006C48.6091 27.3092 48.7969 26.9648 48.5935 26.5578C48.4213 26.2134 48.703 25.8064 48.437 25.4463C48.3587 25.3524 48.4057 25.1489 48.4057 24.9924C48.4057 24.1314 48.4213 23.2703 48.39 22.4093C48.3744 22.018 48.6248 21.6892 48.5622 21.2979C48.5152 20.9378 48.4526 20.5308 48.5778 20.2177C48.7969 19.6541 48.7969 19.0749 48.6717 18.5583C48.5309 17.8851 48.6091 17.2433 48.5465 16.5858C48.4996 16.0849 48.8439 15.6309 48.703 15.1299Z" fill="#3D4656"/>
<path d="M36.6368 31.7708C35.51 31.7708 34.3989 31.7708 33.2877 31.7708C32.9591 30.8003 33.0686 29.7984 33.0686 28.8121C33.053 24.3505 33.0686 19.9046 33.0686 15.443C33.0843 15.4274 33.0999 15.3961 33.1156 15.3804C33.1312 15.3648 33.1625 15.3491 33.1782 15.3491C34.3206 15.3491 35.4631 15.3491 36.6368 15.3491C36.6368 20.8282 36.6368 26.2917 36.6368 31.7708Z" fill="#3D4656"/>
<path d="M67.7961 6.91122C67.7961 7.58437 67.7961 8.25752 67.7961 8.91502C67.7961 9.49424 67.7805 10.0578 67.8118 10.637C67.8274 10.8405 67.6866 10.9501 67.6396 11.1223C67.6553 11.2945 67.8274 11.3571 67.9213 11.4824C68.1091 11.952 67.7022 12.2651 67.5927 12.7034C67.0919 12.5469 66.638 12.8913 66.0746 12.8287C66.0746 12.2338 66.0433 11.6389 66.0903 11.044C66.1685 10.0422 65.8868 9.05591 65.9338 8.05401C65.9494 7.78788 65.9025 7.52175 66.059 7.23997C66.1685 7.03646 66.1685 6.69206 66.012 6.42593C65.8086 6.06587 66.0277 5.76844 66.059 5.42403C66.0903 5.09529 65.7773 4.75088 65.9807 4.42214C66.1059 4.21863 66.0746 4.03077 66.0746 3.84292C66.0903 3.10715 66.0746 2.38704 66.0746 1.65127C66.0746 1.63561 66.1059 1.6043 66.1685 1.51038C66.2155 1.66692 66.2781 1.82347 66.2937 1.88609C66.7945 1.82347 67.1545 1.96436 67.4675 1.69823C67.8118 1.80781 68.0778 2.02698 68.3126 2.30876C68.4222 2.434 68.563 2.6062 68.563 2.74709C68.5317 3.4359 68.8604 4.03077 69.0482 4.65696C69.2829 5.39272 69.502 6.12849 69.7368 6.87991C69.7681 6.84861 69.7837 6.83295 69.7994 6.8173C69.815 6.80164 69.815 6.77033 69.815 6.75468C69.815 5.03267 69.815 3.32631 69.815 1.58865C70.3784 1.58865 70.9262 1.58865 71.4896 1.58865C71.6148 1.7452 71.5365 1.96436 71.5365 2.15222C71.5365 5.28314 71.5365 8.39841 71.5522 11.5293C71.5522 11.8581 71.5365 12.1712 71.3331 12.4843C70.8636 12.4843 70.3784 12.4843 69.815 12.4843C69.1421 10.684 68.61 8.75847 67.7961 6.91122Z" fill="#3D4656"/>
<path d="M59.1886 7.36522C58.9225 7.39653 59.0477 7.60004 59.0321 7.72528C59.0008 8.05402 59.0947 8.38277 58.813 8.68021C59.2669 9.21247 59.1886 9.823 59.1886 10.4179C59.1886 11.091 59.1886 11.7798 59.1886 12.453C59.1103 12.5313 59.0477 12.5939 58.9695 12.6721C58.6721 12.7191 58.3591 12.5939 58.1087 12.8443C57.827 12.813 57.8114 12.3904 57.4984 12.5156C57.4984 11.3415 57.4984 10.23 57.4984 9.08723C57.8427 9.13419 58.14 9.02461 58.4843 8.78979C58.1087 8.78979 57.8114 8.78979 57.4671 8.78979C57.4671 8.4767 57.4827 8.22623 57.4671 7.97575C57.4358 7.44349 57.5297 6.92689 57.3419 6.39463C57.248 6.1285 57.201 5.75279 57.4358 5.4397C57.5297 5.31446 57.4671 5.0953 57.4671 4.90744C57.4671 3.9212 57.4671 2.93496 57.4671 1.9174C57.7644 1.85479 57.9835 2.2305 58.3278 2.12091C58.4061 1.98002 58.4843 1.85479 58.5313 1.76086C58.7973 1.76086 58.9695 1.76086 59.1417 1.76086C59.2356 1.90175 59.0321 1.90175 59.0634 1.99568C59.2199 2.12091 59.4077 1.99568 59.6112 2.0896C59.6112 2.0896 59.6581 2.12091 59.6738 2.16788C59.7051 2.35573 59.7364 2.55924 59.7833 2.7471C59.8616 3.06019 60.112 3.31067 60.1276 3.62376C60.1589 3.93685 60.2841 4.18733 60.4093 4.45346C60.5502 4.73524 60.4876 5.07964 60.5815 5.39274C60.6754 5.76845 60.8945 6.08154 61.004 6.45725C61.051 6.41029 61.0823 6.39463 61.0823 6.37898C61.004 4.81351 61.4266 3.24805 61.1918 1.63562C61.8022 1.63562 62.3499 1.63562 62.9133 1.63562C63.1168 1.99568 62.8038 2.29312 62.7881 2.63752C62.7725 3.01323 63.0542 3.31067 62.9603 3.67072C62.6316 5.01702 62.882 6.39463 62.8038 7.75659C62.7881 7.92879 62.7725 8.10099 62.929 8.25753C63.0072 8.33581 63.0229 8.61759 62.9446 8.69586C62.7255 8.94634 62.8038 9.22812 62.8038 9.49425C62.7881 10.4961 62.8038 11.5137 62.8038 12.5313C62.2717 12.5313 61.7865 12.5313 61.3014 12.5313C61.0197 12.2651 60.8788 11.9051 60.7693 11.5607C60.5658 10.8719 60.2841 10.1987 60.0494 9.50991C59.8616 8.94634 59.6581 8.36712 59.5329 7.77224C59.5016 7.61569 59.3608 7.52177 59.3608 7.36522C59.3295 6.69207 59.4234 6.00327 59.3138 5.33012C59.173 5.33012 59.1103 5.33012 59.0477 5.39274C59.0008 5.90934 59.1573 6.45725 58.8756 6.9582C58.9851 7.00516 59.0947 7.05213 59.1886 7.09909C59.1886 7.20867 59.1886 7.28695 59.1886 7.36522Z" fill="#3D4656"/>
<path d="M73.6649 1.57302C74.3848 1.55736 75.0421 1.65129 75.6525 1.36951C75.9498 1.69825 76.4037 1.77653 76.5602 2.12093C76.7167 2.48099 77.1392 2.66884 77.1705 3.0289C77.1862 3.40461 77.4053 3.73336 77.374 4.12473C77.3427 4.50044 77.0766 4.84484 77.2175 5.2049C77.1079 5.3771 76.701 5.22055 76.9045 5.62757C76.4506 5.58061 76.0594 5.73716 75.6994 5.47103C75.6212 5.29883 75.4803 5.11097 75.496 4.93877C75.5429 4.15604 75.1673 3.60812 74.6196 3.12283C74.0249 3.45158 73.7588 3.96818 73.7588 4.64133C73.7588 4.82919 73.8214 5.0327 73.6493 5.22055C73.571 5.29883 73.5554 5.56495 73.618 5.65888C73.8527 5.97198 73.7588 6.30072 73.7588 6.61382C73.7745 7.60006 73.7901 8.60196 73.7588 9.5882C73.7275 10.277 74.0092 10.7936 74.4787 11.2789C74.9169 11.1693 75.2143 10.8719 75.4803 10.5431C75.4803 9.96391 75.4803 9.38469 75.4803 8.82112C75.4177 8.7585 75.3708 8.71154 75.2769 8.61761C75.0891 8.61761 74.8543 8.61761 74.557 8.61761C74.6196 8.0697 74.3848 7.58441 74.3848 7.0678C75.2456 6.92691 76.1063 7.20869 76.9201 6.84864C77.1079 7.0678 77.2644 7.25566 77.4992 7.52179C77.4835 7.64702 77.327 7.85053 77.3427 8.10101C77.3583 8.64892 77.4053 9.21249 77.2175 9.7604C77.1392 10.0265 77.1079 10.3866 77.3271 10.7153C77.4366 10.8875 77.4679 11.2789 77.1705 11.5137C77.2801 11.7485 77.421 11.999 77.3271 12.2808C77.0453 12.5782 76.701 12.6878 76.3098 12.6565C76.122 12.6409 75.9342 12.6722 75.7307 12.7504C75.4177 12.8757 75.0265 12.8913 74.6978 12.7191C74.5726 12.6409 74.4005 12.6096 74.3379 12.6565C73.8527 13.0479 73.4928 12.6096 73.1172 12.4687C72.6946 12.3121 72.4912 11.8894 72.319 11.4511C72.0686 10.8249 72.0216 10.1987 72.0216 9.54124C72.0373 7.66268 72.0529 5.78412 72.0216 3.90556C72.006 2.84104 72.5225 2.16789 73.3989 1.69825C73.4771 1.69825 73.5867 1.66695 73.6649 1.57302Z" fill="#3D4656"/>
<path d="M70.7853 19.5133C70.7853 19.2315 70.7853 18.9654 70.7853 18.7462C71.2078 18.0261 71.6148 17.3217 72.0373 16.6485C72.3034 16.2258 72.6164 15.8345 72.945 15.4588C73.0859 15.3179 73.2893 15.177 73.5241 15.177C73.9936 15.177 74.51 15.2866 74.917 15.13C75.3552 14.9735 75.7777 15.0517 76.2003 15.0204C76.6698 14.9891 77.1393 15.0048 77.6714 15.0048C77.4836 16.0693 77.0297 16.9303 76.2472 17.5878C76.2942 17.8852 76.1533 18.1357 75.9968 18.2922C75.1361 19.2315 74.4944 20.296 73.9623 21.4388C73.7432 21.9241 73.4615 22.3781 73.1954 22.8321C72.9607 22.8477 72.8981 22.6912 72.8042 22.5346C72.2095 21.5797 71.5991 20.6404 70.9887 19.6855C70.9418 19.6385 70.8322 19.5759 70.7853 19.5133Z" fill="#3D4656"/>
<path d="M42.5839 3.07594C42.3804 3.27945 42.177 3.48296 41.9892 3.67081C41.8796 4.37527 41.6449 5.03277 41.6605 5.73723C41.6605 5.95639 41.6919 6.1599 41.8014 6.37907C41.9422 6.70782 42.0048 7.08353 41.9892 7.47489C41.9579 7.9915 41.9892 8.52376 41.9735 9.04036C41.9579 9.79178 42.1144 10.5276 42.4587 11.185C42.6621 11.5608 42.7404 11.9521 42.7873 12.5313C42.9908 12.0304 42.8343 11.6703 42.9282 11.3259C43.1473 11.0911 43.5229 11.0442 43.6481 10.778C43.7889 10.0266 44.055 9.3378 43.6324 8.63334C43.382 8.63334 43.1003 8.63334 42.7873 8.63334C42.7091 8.11674 43.1942 7.60013 42.6778 7.11484C43.695 6.84871 44.6027 7.31835 45.573 7.17746C45.573 8.19501 45.573 9.14994 45.573 10.1049C45.573 10.7937 45.5261 11.4668 45.7921 12.1087C45.5261 12.2339 45.3226 12.2965 45.2444 12.4687C45.1661 12.4844 45.1192 12.5157 45.0879 12.5157C44.3836 12.5157 43.6794 12.5157 42.9751 12.5157C42.8186 12.5157 42.5995 12.4531 42.5213 12.547C42.2709 12.7975 42.0674 12.6566 41.8483 12.5313C41.7857 12.5 41.6918 12.5313 41.5197 12.5313C41.4102 12.4061 41.2537 12.2339 41.1128 12.0617C40.7842 11.6703 40.5338 11.2633 40.5651 10.7311C40.6277 9.6822 40.2364 8.63334 40.4242 7.60013C40.6903 6.1599 40.4712 4.71968 40.5807 3.24814C41.1911 2.16797 41.1911 2.16797 42.3022 1.58875C43.0221 1.96446 42.6152 2.55933 42.5839 3.07594Z" fill="#3D4656"/>
<path d="M49.4699 1.99573C49.6264 1.83919 49.7516 1.71395 49.9237 1.54175C50.315 1.94877 50.7688 1.60437 51.1757 1.5574C51.2696 1.80788 51.1601 1.88615 51.0662 1.96442C51.0662 4.23435 51.0662 6.50428 51.0662 8.7742C51.0662 9.24384 51.0975 9.71348 51.0505 10.1831C51.0036 10.6528 51.3166 11.0598 51.2227 11.5294C51.1757 11.7486 51.4887 11.8582 51.3792 12.093C51.3009 12.2652 51.1444 12.4217 51.2383 12.6252C50.5654 13.0323 49.9863 12.8601 49.3447 12.5157C49.4073 10.9815 49.2038 9.44735 49.5325 7.94451C49.4386 7.85058 49.3916 7.80361 49.329 7.741C48.9221 7.52183 48.5622 7.85058 48.1396 7.86623C48.1396 7.36528 48.1396 6.86433 48.1396 6.34773C48.4996 5.98767 49.0004 6.17553 49.4855 6.11291C49.4699 4.71965 49.4699 3.34203 49.4699 1.99573Z" fill="#3D4656"/>
<path d="M65.2921 12.6722C64.7444 12.6722 64.2592 12.6722 63.7585 12.6722C63.7585 9.0403 63.7585 5.42408 63.7585 1.72958C63.9776 1.72958 64.2436 1.68261 64.4783 1.74523C64.76 1.80785 64.9165 1.41649 65.1982 1.60434C65.339 1.66696 65.2764 1.80785 65.2921 1.91743C65.339 2.52797 65.1826 3.16981 65.3703 3.76468C65.5581 4.34391 65.2765 4.98575 65.5894 5.54932C65.6207 5.61193 65.5738 5.70586 65.5894 5.78414C65.652 6.06592 65.386 6.28508 65.4173 6.58252C65.4486 6.81734 65.5268 7.08347 65.2921 7.31829C65.1982 7.41222 65.2765 7.66269 65.2765 7.85055C65.2921 9.43167 65.2921 11.0128 65.2921 12.6722Z" fill="#3D4656"/>
<path d="M38.2488 1.90173C38.5305 1.90173 38.7809 1.90173 38.9687 1.90173C39.2347 1.83911 39.2817 1.54167 39.5321 1.57298C39.7669 1.82345 39.7982 2.13655 39.7982 2.4653C39.7982 4.98569 39.7825 7.52175 39.7982 10.0421C39.7982 10.5744 39.7043 11.1067 39.939 11.6233C40.0173 11.8111 39.9547 12.0773 39.9547 12.2808C39.8138 12.4217 39.7043 12.5312 39.5947 12.6408C39.1408 12.7817 38.7183 12.5939 38.2488 12.4686C38.2488 8.97763 38.2488 5.43968 38.2488 1.90173Z" fill="#3D4656"/>
<path d="M47.7641 12.5625C47.1537 12.4216 46.6372 12.6878 46.0425 12.7191C46.0425 11.0284 46.0425 9.38464 46.0425 7.75656C46.3242 6.77032 46.1677 5.76842 46.199 4.78218C46.2147 3.79594 46.199 2.8097 46.199 1.77649C46.6529 1.77649 47.1068 1.77649 47.6076 1.77649C47.6076 2.77839 47.6389 3.79594 47.5919 4.79783C47.5293 6.08152 47.8267 7.34954 47.7641 8.63322C47.7171 9.90125 47.7641 11.1693 47.7641 12.5625Z" fill="#3D4656"/>
<path d="M55.1196 12.6409C54.791 12.7348 54.4467 12.5626 54.1963 12.8444C53.9302 12.7191 53.6798 12.5939 53.4451 12.4843C53.3042 11.592 53.226 10.7153 53.226 9.82302C53.226 9.46297 53.1008 9.08725 53.0695 8.71154C53.0382 8.4141 53.2886 8.21059 53.2573 7.91316C53.226 7.66268 53.1477 7.36524 53.3825 7.11477C53.4764 7.02084 53.3981 6.77037 53.3981 6.58251C53.3981 5.59627 53.3981 4.62568 53.3981 3.62378C53.8833 3.62378 54.3215 3.62378 54.8223 3.62378C54.6814 4.18735 55.0101 4.70395 54.9788 5.26752C54.9475 5.81543 55.0101 6.36334 54.9631 6.91126C54.8849 7.86619 55.1979 8.77416 55.1353 9.7291C55.0883 10.684 55.1196 11.639 55.1196 12.6409Z" fill="#3D4656"/>
<path d="M34.6493 10.7936C34.1328 10.7936 33.6946 10.7936 33.3034 10.7936C33.006 10.23 33.0686 9.63512 33.0686 9.0559C33.0686 6.73901 33.0686 4.42213 33.0686 2.1209C33.1469 2.04262 33.2251 1.96435 33.2877 1.90173C33.632 1.90173 33.9607 1.90173 34.2737 1.90173C34.3519 1.98001 34.3989 2.02697 34.4928 2.1209C34.4928 3.68636 34.4771 5.26748 34.5084 6.8486C34.5084 7.09907 34.305 7.25562 34.3363 7.5374C34.3363 7.56871 34.3832 7.61567 34.4302 7.69395C34.6023 8.02269 34.8684 8.33578 34.5084 8.69584C34.5241 9.36899 34.3363 10.0734 34.6493 10.7936Z" fill="#3D4656"/>
<path d="M56.6846 1.80789C56.6846 2.16795 56.6846 2.52801 56.6846 2.88806C56.4186 3.16985 56.0586 3.13854 55.7143 3.13854C54.4936 3.13854 53.2729 3.13854 52.0365 3.13854C51.9426 2.76283 52.0835 2.37146 51.8487 2.02706C51.7391 1.85486 51.9426 1.69831 52.0678 1.57307C52.5843 1.57307 53.132 1.46349 53.6172 1.60438C54.2275 1.76093 54.8222 1.71396 55.4326 1.72962C55.6673 1.72962 55.9178 1.80789 56.1682 1.58873C56.3247 1.44783 56.5438 1.62004 56.6846 1.80789Z" fill="#3D4656"/>
<path d="M45.4165 4.93875C45.1974 5.03268 45.3539 5.37708 45.1505 5.39273C44.6654 5.67452 44.3211 5.18922 43.8516 5.37708C43.8516 5.04833 43.8359 4.76655 43.8516 4.48476C43.8985 4.01512 43.7107 3.65507 43.3664 3.35763C43.2099 3.21674 43.0691 3.06019 42.9126 2.90364C42.9126 2.6062 42.9126 2.29311 42.9126 1.93306C43.0221 1.85478 43.163 1.7452 43.3664 1.573C43.5229 1.573 43.7733 1.573 44.0863 1.573C44.7279 1.88609 44.994 2.55924 45.3696 3.15412C45.4478 3.27935 45.4009 3.40459 45.4165 3.52983C45.4322 4.01512 45.4165 4.46911 45.4165 4.93875Z" fill="#3D4656"/>
<path d="M33.053 12.5156C33.053 12.0459 33.053 11.6233 33.053 11.2162C33.0686 11.2006 33.0843 11.1693 33.0999 11.1536C33.1156 11.138 33.1469 11.1223 33.1625 11.1223C34.5084 11.1223 35.8543 11.1223 37.2159 11.1223C37.4037 11.6076 37.1846 12.0459 37.0594 12.5312C36.8403 12.5312 36.6055 12.5156 36.3864 12.5312C36.0734 12.5625 35.7604 12.4843 35.4318 12.6565C35.197 12.7817 34.7901 12.7504 34.5397 12.6408C34.305 12.5312 34.1015 12.5469 33.8824 12.5312C33.6007 12.5156 33.3347 12.5156 33.053 12.5156Z" fill="#3D4656"/>
<path d="M59.1886 7.36525C59.1886 7.28698 59.1886 7.2087 59.1886 7.13043C59.079 7.08346 58.9851 7.0365 58.8756 6.98954C59.1573 6.48859 58.9851 5.94067 59.0477 5.42407C59.0947 5.3458 59.1729 5.3458 59.3138 5.36145C59.4233 6.0346 59.3294 6.70775 59.3607 7.39656C59.2981 7.36525 59.2512 7.36525 59.1886 7.36525Z" fill="#3D4656"/>
</svg>
