<svg width="44" height="34" viewBox="0 0 44 34" fill="none" xmlns="http://www.w3.org/2000/svg">
<path d="M27.8072 2.89648H15.9551V24.1815H27.8072V2.89648Z" fill="#FF5A00"/>
<path d="M16.7437 13.5387C16.7437 9.21417 18.7775 5.37603 21.8983 2.89613C19.6015 1.09098 16.7042 0 13.544 0C6.05753 0 0 6.05515 0 13.5387C0 21.0222 6.05753 27.0773 13.544 27.0773C16.7042 27.0773 19.6015 25.9863 21.8983 24.1812C18.7731 21.7363 16.7437 17.8631 16.7437 13.5387Z" fill="#EB001B"/>
<path d="M43.7965 13.5387C43.7965 21.0222 37.739 27.0773 30.2525 27.0773C27.0922 27.0773 24.195 25.9863 21.8982 24.1812C25.0585 21.6969 27.0528 17.8631 27.0528 13.5387C27.0528 9.21417 25.019 5.37603 21.8982 2.89613C24.1906 1.09098 27.0879 0 30.2481 0C37.7389 0 43.7965 6.09458 43.7965 13.5387Z" fill="#F79E1B"/>
<path d="M7.93796 33.9254V31.6689C7.93796 30.8058 7.41198 30.2406 6.50904 30.2406C6.05758 30.2406 5.56666 30.3896 5.22916 30.8803C4.96617 30.4684 4.58922 30.2406 4.02379 30.2406C3.64684 30.2406 3.26989 30.3545 2.97183 30.7664V30.3151H2.18286V33.9254H2.97183V31.9318C2.97183 31.2921 3.30933 30.9898 3.83531 30.9898C4.36129 30.9898 4.62428 31.3272 4.62428 31.9318V33.9254H5.41325V31.9318C5.41325 31.2921 5.79021 30.9898 6.27674 30.9898C6.80272 30.9898 7.06571 31.3272 7.06571 31.9318V33.9254H7.93796ZM19.641 30.3151H18.3611V29.2241H17.5722V30.3151H16.8577V31.0292H17.5722V32.6854C17.5722 33.5135 17.9097 33.9999 18.8126 33.9999C19.1501 33.9999 19.527 33.8859 19.79 33.737L19.5621 33.0579C19.3342 33.2068 19.0712 33.2463 18.8827 33.2463C18.5058 33.2463 18.3567 33.0184 18.3567 32.646V31.0292H19.6366V30.3151H19.641ZM26.3385 30.2362C25.887 30.2362 25.5846 30.464 25.3961 30.762V30.3107H24.6071V33.921H25.3961V31.888C25.3961 31.2877 25.6591 30.946 26.15 30.946C26.299 30.946 26.4875 30.9854 26.6409 31.0205L26.8688 30.2669C26.7111 30.2362 26.4875 30.2362 26.3385 30.2362ZM16.2178 30.613C15.8408 30.3501 15.3148 30.2362 14.7494 30.2362C13.8465 30.2362 13.246 30.6875 13.246 31.4017C13.246 32.0019 13.6974 32.3437 14.4864 32.4532L14.8634 32.4926C15.2754 32.5671 15.5033 32.681 15.5033 32.8695C15.5033 33.1323 15.2009 33.3207 14.6749 33.3207C14.1489 33.3207 13.7325 33.1323 13.4695 32.9439L13.0926 33.5442C13.5046 33.8465 14.07 33.9955 14.6354 33.9955C15.6874 33.9955 16.2923 33.5048 16.2923 32.83C16.2923 32.1903 15.8014 31.853 15.0518 31.739L14.6749 31.6996C14.3374 31.6602 14.0744 31.5857 14.0744 31.3622C14.0744 31.0993 14.3374 30.9504 14.7538 30.9504C15.2052 30.9504 15.6567 31.1388 15.8846 31.2527L16.2178 30.613ZM37.2087 30.2362C36.7573 30.2362 36.4548 30.464 36.2663 30.762V30.3107H35.4774V33.921H36.2663V31.888C36.2663 31.2877 36.5293 30.946 37.0203 30.946C37.1693 30.946 37.3578 30.9854 37.5112 31.0205L37.7391 30.2756C37.5857 30.2362 37.3621 30.2362 37.2087 30.2362ZM27.1275 32.1202C27.1275 33.2112 27.8814 33.9999 29.0473 33.9999C29.5733 33.9999 29.9502 33.8859 30.3272 33.588L29.9502 32.9483C29.6478 33.1762 29.3497 33.2857 29.0078 33.2857C28.3679 33.2857 27.9164 32.8344 27.9164 32.1202C27.9164 31.4411 28.3679 30.9898 29.0078 30.9548C29.3453 30.9548 29.6478 31.0687 29.9502 31.2921L30.3272 30.6524C29.9502 30.3501 29.5733 30.2406 29.0473 30.2406C27.8814 30.2362 27.1275 31.0292 27.1275 32.1202ZM34.4254 32.1202V30.3151H33.6364V30.7664C33.3735 30.429 32.9965 30.2406 32.5056 30.2406C31.4887 30.2406 30.6997 31.0292 30.6997 32.1202C30.6997 33.2112 31.4887 33.9999 32.5056 33.9999C33.0316 33.9999 33.4085 33.8115 33.6364 33.4741V33.9254H34.4254V32.1202ZM31.5281 32.1202C31.5281 31.4805 31.9402 30.9548 32.6196 30.9548C33.2595 30.9548 33.711 31.4455 33.711 32.1202C33.711 32.7599 33.2595 33.2857 32.6196 33.2857C31.9445 33.2463 31.5281 32.7555 31.5281 32.1202ZM22.0868 30.2362C21.0349 30.2362 20.2809 30.9898 20.2809 32.1158C20.2809 33.2463 21.0349 33.9955 22.1263 33.9955C22.6522 33.9955 23.1782 33.8465 23.5946 33.5048L23.2177 32.9396C22.9152 33.1674 22.5383 33.3164 22.1657 33.3164C21.6748 33.3164 21.1883 33.0885 21.0743 32.4532H23.7436C23.7436 32.3393 23.7436 32.2648 23.7436 32.1509C23.7787 30.9898 23.0993 30.2362 22.0868 30.2362ZM22.0868 30.9153C22.5777 30.9153 22.9152 31.2176 22.9897 31.7785H21.1094C21.1839 31.2921 21.5214 30.9153 22.0868 30.9153ZM41.6883 32.1202V28.8867H40.8993V30.7664C40.6364 30.429 40.2594 30.2406 39.7685 30.2406C38.7516 30.2406 37.9626 31.0292 37.9626 32.1202C37.9626 33.2112 38.7516 33.9999 39.7685 33.9999C40.2945 33.9999 40.6714 33.8115 40.8993 33.4741V33.9254H41.6883V32.1202ZM38.791 32.1202C38.791 31.4805 39.2031 30.9548 39.8825 30.9548C40.5224 30.9548 40.9739 31.4455 40.9739 32.1202C40.9739 32.7599 40.5224 33.2857 39.8825 33.2857C39.2031 33.2463 38.791 32.7555 38.791 32.1202ZM12.3781 32.1202V30.3151H11.5891V30.7664C11.3261 30.429 10.9492 30.2406 10.4583 30.2406C9.44138 30.2406 8.65241 31.0292 8.65241 32.1202C8.65241 33.2112 9.44138 33.9999 10.4583 33.9999C10.9843 33.9999 11.3612 33.8115 11.5891 33.4741V33.9254H12.3781V32.1202ZM9.44576 32.1202C9.44576 31.4805 9.85778 30.9548 10.5372 30.9548C11.1771 30.9548 11.6286 31.4455 11.6286 32.1202C11.6286 32.7599 11.1771 33.2857 10.5372 33.2857C9.85778 33.2463 9.44576 32.7555 9.44576 32.1202Z" fill="white"/>
</svg>
