<svg width="160" height="85" viewBox="0 0 160 85" fill="none" xmlns="http://www.w3.org/2000/svg">
<path d="M88.4741 22.6699H71.5555V53.0539H88.4741V22.6699Z" fill="#FF5A00"/>
<path d="M72.6818 37.8623C72.6818 31.6892 75.585 26.2103 80.0399 22.6703C76.7613 20.0935 72.6255 18.5361 68.1143 18.5361C57.4275 18.5361 48.7805 27.1797 48.7805 37.8623C48.7805 48.5448 57.4275 57.1884 68.1143 57.1884C72.6255 57.1884 76.7613 55.631 80.0399 53.0542C75.5787 49.5643 72.6818 44.0354 72.6818 37.8623Z" fill="#EB001B"/>
<path d="M111.299 37.8623C111.299 48.5448 102.652 57.1884 91.9655 57.1884C87.4543 57.1884 83.3185 55.631 80.0399 53.0542C84.5511 49.508 87.3979 44.0354 87.3979 37.8623C87.3979 31.6892 84.4947 26.2103 80.0399 22.6703C83.3122 20.0935 87.448 18.5361 91.9592 18.5361C102.652 18.5361 111.299 27.236 111.299 37.8623Z" fill="#F79E1B"/>
<path d="M60.1118 66.9641V63.743C60.1118 62.5109 59.3609 61.7041 58.072 61.7041C57.4276 61.7041 56.7268 61.9167 56.245 62.6172C55.8696 62.0293 55.3315 61.7041 54.5244 61.7041C53.9863 61.7041 53.4482 61.8667 53.0227 62.4546V61.8104H51.8965V66.9641H53.0227V64.1183C53.0227 63.2052 53.5045 62.7736 54.2553 62.7736C55.0061 62.7736 55.3816 63.2552 55.3816 64.1183V66.9641H56.5078V64.1183C56.5078 63.2052 57.0459 62.7736 57.7404 62.7736C58.4912 62.7736 58.8666 63.2552 58.8666 64.1183V66.9641H60.1118ZM76.8176 61.8104H74.9906V60.2531H73.8644V61.8104H72.8445V62.8299H73.8644V65.1941C73.8644 66.3761 74.3461 67.0704 75.6351 67.0704C76.1168 67.0704 76.6549 66.9078 77.0303 66.6951L76.705 65.7257C76.3796 65.9383 76.0042 65.9946 75.7352 65.9946C75.1971 65.9946 74.9843 65.6694 74.9843 65.1378V62.8299H76.8113V61.8104H76.8176ZM86.3781 61.6978C85.7336 61.6978 85.3019 62.0231 85.0329 62.4484V61.8042H83.9066V66.9578H85.0329V64.0558C85.0329 63.1989 85.4083 62.7111 86.109 62.7111C86.3218 62.7111 86.5908 62.7673 86.8098 62.8174L87.1352 61.7416C86.9099 61.6978 86.5908 61.6978 86.3781 61.6978ZM71.931 62.2357C71.3929 61.8605 70.6421 61.6978 69.8349 61.6978C68.546 61.6978 67.6888 62.342 67.6888 63.3615C67.6888 64.2184 68.3333 64.7062 69.4595 64.8626L69.9976 64.9189C70.5858 65.0252 70.9111 65.1878 70.9111 65.4567C70.9111 65.832 70.4794 66.101 69.7286 66.101C68.9777 66.101 68.3833 65.832 68.0079 65.5631L67.4698 66.4199C68.058 66.8515 68.8651 67.0641 69.6723 67.0641C71.1739 67.0641 72.0374 66.3636 72.0374 65.4005C72.0374 64.4873 71.3366 64.0057 70.2667 63.8431L69.7286 63.7868C69.2468 63.7305 68.8714 63.6242 68.8714 63.3052C68.8714 62.93 69.2468 62.7173 69.8412 62.7173C70.4856 62.7173 71.1301 62.9863 71.4555 63.1489L71.931 62.2357ZM101.895 61.6978C101.251 61.6978 100.819 62.0231 100.55 62.4484V61.8042H99.4237V66.9578H100.55V64.0558C100.55 63.1989 100.925 62.7111 101.626 62.7111C101.839 62.7111 102.108 62.7673 102.327 62.8174L102.652 61.7541C102.433 61.6978 102.114 61.6978 101.895 61.6978ZM87.5043 64.3872C87.5043 65.9446 88.5805 67.0704 90.2448 67.0704C90.9957 67.0704 91.5338 66.9078 92.0719 66.4825L91.5338 65.5693C91.102 65.8946 90.6766 66.0509 90.1885 66.0509C89.275 66.0509 88.6306 65.4067 88.6306 64.3872C88.6306 63.4178 89.275 62.7736 90.1885 62.7236C90.6703 62.7236 91.102 62.8862 91.5338 63.2052L92.0719 62.292C91.5338 61.8605 90.9957 61.7041 90.2448 61.7041C88.5805 61.6978 87.5043 62.8299 87.5043 64.3872ZM97.922 64.3872V61.8104H96.7958V62.4546C96.4204 61.973 95.8823 61.7041 95.1815 61.7041C93.7299 61.7041 92.6037 62.8299 92.6037 64.3872C92.6037 65.9446 93.7299 67.0704 95.1815 67.0704C95.9323 67.0704 96.4704 66.8014 96.7958 66.3199V66.9641H97.922V64.3872ZM93.7862 64.3872C93.7862 63.4741 94.3744 62.7236 95.3442 62.7236C96.2577 62.7236 96.9022 63.4241 96.9022 64.3872C96.9022 65.3004 96.2577 66.0509 95.3442 66.0509C94.3806 65.9946 93.7862 65.2941 93.7862 64.3872ZM80.3089 61.6978C78.8073 61.6978 77.7311 62.7736 77.7311 64.381C77.7311 65.9946 78.8073 67.0641 80.3652 67.0641C81.1161 67.0641 81.8669 66.8515 82.4613 66.3636L81.9232 65.5568C81.4915 65.882 80.9534 66.0947 80.4216 66.0947C79.7208 66.0947 79.0263 65.7695 78.8636 64.8626H82.674C82.674 64.7 82.674 64.5936 82.674 64.431C82.7241 62.7736 81.7543 61.6978 80.3089 61.6978ZM80.3089 62.6673C81.0097 62.6673 81.4915 63.0988 81.5978 63.8994H78.9137C79.02 63.2052 79.5018 62.6673 80.3089 62.6673ZM108.29 64.3872V59.7715H107.163V62.4546C106.788 61.973 106.25 61.7041 105.549 61.7041C104.098 61.7041 102.971 62.8299 102.971 64.3872C102.971 65.9446 104.098 67.0704 105.549 67.0704C106.3 67.0704 106.838 66.8014 107.163 66.3199V66.9641H108.29V64.3872ZM104.154 64.3872C104.154 63.4741 104.742 62.7236 105.712 62.7236C106.625 62.7236 107.27 63.4241 107.27 64.3872C107.27 65.3004 106.625 66.0509 105.712 66.0509C104.742 65.9946 104.154 65.2941 104.154 64.3872ZM66.45 64.3872V61.8104H65.3237V62.4546C64.9483 61.973 64.4102 61.7041 63.7095 61.7041C62.2579 61.7041 61.1316 62.8299 61.1316 64.3872C61.1316 65.9446 62.2579 67.0704 63.7095 67.0704C64.4603 67.0704 64.9984 66.8014 65.3237 66.3199V66.9641H66.45V64.3872ZM62.2641 64.3872C62.2641 63.4741 62.8523 62.7236 63.8221 62.7236C64.7356 62.7236 65.38 63.4241 65.38 64.3872C65.38 65.3004 64.7356 66.0509 63.8221 66.0509C62.8523 65.9946 62.2641 65.2941 62.2641 64.3872Z" fill="black"/>
</svg>
