<svg width="72" height="26" viewBox="0 0 72 26" fill="none" xmlns="http://www.w3.org/2000/svg">
<path d="M37.6482 0H36.9543V25.2434H37.6482V20.3856H46.9302V17.4362H39.8169V14.053H45.8892V11.1036H39.8169V7.80723H46.9302V4.85783H37.6482V0Z" fill="#3D4656"/>
<path d="M8.8482 14.4001L6.24579 10.1495L2.86265 4.94466V4.85791H0V20.3856H3.12289V10.8435L5.46506 14.5736L9.19519 20.3856H11.9711V4.85791H8.8482V14.4001Z" fill="#3D4656"/>
<path d="M13.706 20.3856H23.9422V17.4362H16.8289V14.0531H22.9012V11.1037H16.8289V7.80731H23.9422V4.85791H13.706V20.3856Z" fill="#3D4656"/>
<path d="M25.2433 7.80731H28.7999V20.3856H31.9228V7.80731H35.4795V4.85791H25.2433V7.80731Z" fill="#3D4656"/>
<path d="M57.3398 14.4001L54.7374 10.1495L51.3543 4.94466H48.4916V20.4724H51.6145V10.9302L53.9567 14.6603L57.6868 20.4724H60.4627V4.85791H57.3398V14.4001Z" fill="#3D4656"/>
<path d="M61.7638 4.85791V7.80731H65.3205V20.3856H68.4433V7.89406H72V4.85791H61.7638Z" fill="#3D4656"/>
</svg>
