<svg width="102" height="30" viewBox="0 0 102 30" fill="none" xmlns="http://www.w3.org/2000/svg">
<path fill-rule="evenodd" clip-rule="evenodd" d="M7.36987 9.90411L17.1537 0L26.9375 9.90411L17.1537 19.8082L7.36987 9.90411ZM17.1457 3.66492L10.9065 9.90411L17.1457 16.1433L23.3849 9.90411L17.1457 3.66492ZM17.1537 5.51702L12.767 9.9037L17.1537 14.2904L21.5404 9.9037L17.1537 5.51702ZM18.1 10.858C17.699 11.2831 17.3702 11.7723 17.1457 12.3096C16.9612 11.8123 16.6725 11.3633 16.3036 10.9783C15.8866 10.4811 15.3493 10.1122 14.7318 9.89568C15.2771 9.67916 15.7743 9.35036 16.1833 8.94136C16.6003 8.53236 16.9291 8.03515 17.1376 7.48983C17.3542 8.03515 17.683 8.52434 18.092 8.94136C18.509 9.35036 19.0062 9.67916 19.5435 9.89568C18.9901 10.0882 18.4849 10.417 18.1 10.858ZM7.48222 14.0254L0 21.5878L7.48222 29.1903L14.9805 21.6119L7.48222 14.0254ZM2.49407 21.5878L7.48222 16.5997L12.4784 21.5878L7.48222 26.584L2.49407 21.5878ZM26.8172 14.0254L19.319 21.6038L26.8172 29.1823L34.2994 21.6038L26.8172 14.0254ZM21.813 21.5878L26.8092 16.5997L31.7973 21.5878L26.8092 26.584L21.813 21.5878ZM26.8171 18.452L23.6735 21.5876L26.8171 24.7312L29.9528 21.5876L26.8171 18.452ZM27.5549 22.3334C27.2422 22.6542 26.9936 23.0311 26.8171 23.4401C26.6728 23.0552 26.4482 22.7103 26.1676 22.4136C25.8468 22.0367 25.4298 21.748 24.9646 21.5796C25.3817 21.4192 25.7586 21.1626 26.0713 20.8418C26.3921 20.529 26.6487 20.1521 26.8171 19.7351C26.9856 20.1521 27.2422 20.529 27.5549 20.8418C27.8677 21.1626 28.2446 21.4112 28.6616 21.5796C28.2286 21.7319 27.8517 21.9886 27.5549 22.3334ZM4.34663 21.5876L7.48227 18.452L10.6259 21.5876L7.48227 24.7312L4.34663 21.5876ZM7.48227 23.4401C7.66671 23.0311 7.91532 22.6542 8.22808 22.3334C8.5248 21.9886 8.90974 21.7319 9.33478 21.5876C8.91776 21.4192 8.54084 21.1706 8.22808 20.8498C7.9073 20.537 7.6587 20.1601 7.48227 19.7431C7.14545 20.5851 6.47983 21.2427 5.63777 21.5876C6.47983 21.9244 7.14545 22.598 7.48227 23.4401ZM22.7354 29.3271L17.1538 23.6733L11.5642 29.3271H22.7354Z" fill="#3D4656"/>
<path d="M87.9903 22.2261H87.0163V25.4793H86.5147V22.2261H85.5407V21.8055H88L87.9903 22.2261ZM80.8245 25.4793H81.3453V22.7411L84.4412 25.6252V21.8055H83.93V24.5179L80.8245 21.6338V25.4793ZM79.4261 25.4793H77.2078V21.8055H79.4261V22.2261H77.7286V23.2475H79.3875V23.6681H77.7286V25.0587H79.4261V25.4793ZM73.4465 25.548L74.6906 23.0501L75.1728 25.4793H75.7033L74.8642 21.651L73.4368 24.5351L72.0191 21.651L71.18 25.4793H71.7105L72.1927 23.0501L73.4465 25.548ZM66.8593 25.4793H66.3578V21.6338L69.4537 24.5179V21.8055H69.9745V25.6252L66.8593 22.7325V25.4793ZM65.0172 21.8055H64.5157V25.4793H65.0172V21.8055ZM61.4488 22.6552L60.7158 24.1402H62.1914L61.4488 22.6552ZM62.8568 25.4793L62.3843 24.5608H60.4939L60.0214 25.4793H59.4716L61.4391 21.651L63.4066 25.4793H62.8568ZM57.6006 22.2261H58.5747V21.8055H56.1057V22.2261H57.0798V25.4793H57.6006V22.2261ZM53.3956 22.2261H53.2317V23.5565H53.3956C53.9261 23.5565 54.5433 23.4621 54.5433 22.8784C54.5433 22.2947 53.8778 22.2175 53.357 22.2175L53.3956 22.2261ZM55.0062 22.8613C55.0159 23.3763 54.5915 23.814 54.0129 23.8827L55.3149 25.4793H54.6976L53.4824 23.9256H53.2413V25.4793H52.7205V21.8055H53.3377C53.7139 21.7797 54.09 21.8312 54.4276 21.9686C54.7651 22.1574 54.9773 22.4922 54.9677 22.8527L55.0062 22.8613ZM48.9109 25.4879H51.1292V25.0673H49.4317V23.6681H51.0713V23.2475H49.4317V22.2261H51.1292V21.8055H48.9109V25.4879ZM47.7632 22.2346H46.7891V25.4879H46.2683V22.2346H45.1882V21.814H47.6572L47.7632 22.2346ZM37 25.4879H39.2086V25.0673H37.5112V23.6681H39.17V23.2475H37.5112V22.2261H39.2086V21.8055H37V25.4879ZM40.5685 25.4879H41.0893V22.7497L44.1851 25.6338V21.814H43.6643V24.5265L40.5685 21.6424V25.4879Z" fill="#3D4656"/>
<path d="M102 16.2282H96.7089V6.1185H102V7.29566H97.9254V10.1248H101.874V11.302H97.9254V15.1203H102V16.2282ZM88.8977 16.4359L91.8522 9.55105L93.0012 16.2282H94.266L92.277 5.7426L88.8977 13.7057L85.5183 5.7426L83.5003 16.2777H84.7652L85.9141 9.60052L88.8977 16.4359ZM77.3884 8.45303L75.6312 12.5286H79.0878L77.3884 8.45303ZM80.7678 16.2282L79.6188 13.6958H75.1001L73.9511 16.2282H72.7249L77.4367 5.69314L82.1292 16.2282H80.7678ZM67.5496 11.1338V12.3109H70.1083C69.9152 13.9926 68.5345 15.2786 66.8737 15.3082C64.7302 15.1994 63.0406 13.3892 63.0406 11.1832C63.0116 8.95753 64.7496 7.12749 66.922 7.08793C66.9413 7.08793 66.9606 7.08793 66.9799 7.08793C68.2062 7.10771 69.3552 7.72102 70.0793 8.7399L70.9387 7.88918C69.1524 5.63379 65.9179 5.28757 63.7164 7.12749C61.515 8.95753 61.1771 12.2714 62.973 14.5268C63.9095 15.7138 65.3096 16.4162 66.7965 16.4656C69.3359 16.5052 71.4311 14.4279 71.4697 11.8262C71.4697 11.7372 71.4697 11.6482 71.4697 11.5591V11.1536L67.5496 11.1338ZM60.6364 7.27588H58.3384V16.2282H57.1025V7.27588H54.8045V6.09872H60.7233L60.6364 7.27588ZM47.7851 16.2282H53.0762V15.0511H49.0016V11.2327H52.9507V10.0457H49.0016V7.21652H53.0762V6.03936H47.7851V16.2282ZM37 16.2282H38.2359V8.69044L45.6416 16.6338V6.1185H44.4057V13.587L37 5.63379V16.2282Z" fill="#3D4656"/>
</svg>
