<svg width="82" height="22" viewBox="0 0 82 22" fill="none" xmlns="http://www.w3.org/2000/svg">
<path d="M19.5241 18.0027C19.186 18.0027 18.848 18.1718 18.6789 18.4253C18.4254 18.7634 18.3408 19.186 18.4254 19.5241C18.4254 20.5384 18.7634 21.0455 19.5241 21.0455C19.9467 21.0455 20.2848 20.961 20.6229 20.7919V21.5526C20.2003 21.7216 19.7777 21.8062 19.3551 21.8062C18.7634 21.8062 18.2563 21.6371 17.8337 21.2145C17.4956 20.7074 17.2421 20.1158 17.3266 19.5241C17.3266 19.1015 17.4111 18.6789 17.5802 18.3408C17.7492 18.0027 18.0028 17.7492 18.3408 17.4956C18.6789 17.3266 19.1015 17.2421 19.4396 17.2421C19.8622 17.2421 20.3693 17.3266 20.7074 17.5801L20.3693 18.3408C20.2003 18.2563 20.0312 18.1718 19.8622 18.1718C19.8622 18.0873 19.6932 18.0027 19.5241 18.0027Z" fill="#3D4656"/>
<path d="M32.5402 21.7216H33.47V17.2421H32.5402V21.7216Z" fill="#3D4656"/>
<path d="M47.3313 21.7216H46.3171V18.0027H45.1338V17.2421H48.5146V18.0027H47.3313" fill="#3D4656"/>
<path d="M61.5307 19.1014L62.4604 17.242H63.4746L61.9533 19.9466V21.637H61.0235V19.9466L59.5022 17.1575H60.5164" fill="#3D4656"/>
<path d="M63.6437 5.40929H62.6294C62.4604 5.40929 62.4604 5.40929 62.3759 5.24025C62.2914 4.81765 62.2068 4.39505 62.0378 4.05697C61.6997 3.21177 60.939 2.62012 60.0093 2.5356C59.5022 2.45108 58.9105 2.5356 58.4034 2.70464C57.6427 2.9582 57.1356 3.46533 56.7975 4.14149C56.6285 4.47957 56.544 4.81765 56.544 5.15573V5.24025C56.544 5.32477 56.4595 5.32477 56.4595 5.32477H54.0929C54.0084 5.32477 54.0084 5.24025 54.0084 5.24025C54.0084 5.15573 53.9239 4.98669 53.9239 4.81765C53.8393 4.39505 53.6703 3.88793 53.4167 3.54985C52.9096 2.9582 52.1489 2.5356 51.3883 2.5356C51.0502 2.5356 50.6276 2.5356 50.2895 2.62012C49.4443 2.78916 48.6836 3.46533 48.3455 4.31053C48.1765 4.64861 48.1765 4.90217 48.092 5.24025C48.092 5.40929 48.092 5.40929 47.8384 5.40929H45.7254C45.6409 5.40929 45.5564 5.40929 45.5564 5.24025C45.5564 5.07121 45.5564 4.98669 45.6409 4.81765C45.8099 3.88793 46.148 3.04272 46.6551 2.19752C47.3313 1.18328 48.5146 0.338081 49.8669 0.0845201C50.2895 0.0845201 50.7121 0 51.1347 0C52.1489 0 53.1632 0.338081 54.0084 1.01424C54.431 1.35232 54.7691 1.6904 55.0226 2.02848L55.1917 2.19752C55.1917 2.28204 55.2762 2.28204 55.2762 2.19752L55.4452 1.94396C55.8678 1.6904 56.2059 1.35232 56.6285 1.01424C57.4737 0.338081 58.4879 0 59.5022 0C60.1783 0 60.8545 0.0845201 61.4461 0.25356C62.4604 0.591641 63.3901 1.2678 63.9817 2.19752C64.4889 2.9582 64.7424 3.80341 64.9115 4.64861C64.9115 4.81765 64.996 4.98669 64.996 5.15573C64.996 5.32477 64.996 5.32477 64.827 5.32477H64.2353" fill="#3D4656"/>
<path d="M14.1148 6.17007H15.2136C15.3826 6.17007 15.3826 6.17006 15.3826 6.33911C15.3826 6.50815 15.3826 6.76171 15.3826 6.93075C15.3826 7.35335 15.4672 7.77595 15.6362 8.19855C16.0588 9.38183 17.2421 10.227 18.5099 10.3961C19.1015 10.4806 19.6932 10.3961 20.2848 10.3116C21.5526 10.058 22.5669 9.04375 22.9049 7.77595C22.9895 7.52239 22.9895 7.18431 22.9895 6.93075C22.9895 6.67719 22.9895 6.50815 22.9895 6.25459C22.9895 6.00102 22.9895 6.17007 23.074 6.17007H25.356C25.4405 6.17007 25.4405 6.17006 25.4405 6.33911C25.5251 7.09979 25.4405 7.86047 25.2715 8.53663C25.1025 9.38183 24.6799 10.1425 24.1727 10.8187C23.4966 11.6639 22.5669 12.34 21.5526 12.6781C20.8765 12.9317 20.1158 13.0162 19.4396 13.0162C18.6789 13.0162 17.9182 12.9317 17.1576 12.7626C15.3826 12.34 13.9458 11.1568 13.2696 9.46635C13.0161 8.87471 12.847 8.19855 12.7625 7.52239C12.7625 7.09979 12.7625 6.76171 12.7625 6.33911C12.7625 6.25458 12.7625 6.25459 12.847 6.25459L14.1148 6.17007Z" fill="#3D4656"/>
<path d="M23.074 5.40932C23.074 5.3248 22.9894 5.24028 22.9894 5.15576C22.8204 4.057 22.0597 3.12728 20.961 2.7892C20.5384 2.70468 20.0312 2.53564 19.6086 2.53564C18.9325 2.53564 18.3408 2.53564 17.7492 2.70468C16.904 2.95824 16.2278 3.38084 15.8052 4.14152C15.5517 4.4796 15.4671 4.9022 15.3826 5.3248C15.3826 5.49384 15.3826 5.49384 15.2136 5.49384H13.0161C12.847 5.49384 12.847 5.49384 12.847 5.3248C12.847 5.15576 12.9315 4.98672 12.9315 4.81768C13.1006 3.97248 13.5232 3.12728 14.0303 2.36659C14.791 1.35235 15.8052 0.676192 16.9885 0.338112C17.5801 0.169072 18.1718 0.0845515 18.7634 0.0845515C19.6086 3.13669e-05 20.3693 0.0845515 21.2145 0.338112C22.2288 0.591672 23.243 1.18331 23.9192 1.94399C24.5108 2.62016 25.0179 3.38084 25.2715 4.31056C25.356 4.56412 25.4405 4.9022 25.4405 5.15576C25.4405 5.24028 25.4405 5.3248 25.4405 5.40932C25.4405 5.49384 25.4405 5.57836 25.2715 5.57836L23.074 5.40932Z" fill="#3D4656"/>
<path d="M2.70464 0.0845201C3.38081 0.0845201 4.05697 0.0845201 4.81765 0.0845201C5.24025 0.0845201 5.74737 0.16904 6.16997 0.25356C7.01517 0.422601 7.77585 0.845201 8.45201 1.35232C9.38173 2.113 9.97337 3.12724 10.1424 4.22601C10.2269 4.47957 10.2269 4.73313 10.2269 5.07121C10.2269 5.15573 10.2269 5.24025 10.2269 5.24025C10.2269 5.40929 10.2269 5.40929 10.0579 5.40929H7.86037C7.77585 5.40929 7.77585 5.40929 7.77585 5.32477C7.77585 5.15573 7.77585 4.90217 7.69133 4.73313C7.60681 4.31053 7.43777 3.88793 7.18421 3.54985C6.76161 3.04272 6.16997 2.70464 5.57833 2.5356C5.32477 2.5356 5.07121 2.5356 4.90217 2.5356H2.62012C2.5356 2.5356 2.5356 2.5356 2.5356 2.62012V5.15573C2.5356 5.40929 2.5356 5.40929 2.28204 5.40929H0.0845201C0.0845201 5.40929 0 5.40929 0 5.32477C0 5.24025 0 5.15573 0 5.15573V0.338081C0 0 0 0 0.33808 0L2.70464 0.0845201Z" fill="#3D4656"/>
<path d="M32.2867 12.9317H28.4833C28.3987 12.9317 28.3987 12.9317 28.3987 12.8472C28.3987 12.7627 28.3987 12.6781 28.3987 12.6781V6.42365C28.3987 6.08557 28.3987 6.08557 28.7368 6.08557H30.8498C30.9343 6.08557 30.9343 6.08557 30.9343 6.17009C30.9343 6.25461 30.9343 6.33913 30.9343 6.42365V9.9735C30.9343 10.3116 30.9343 10.3116 31.2724 10.3116H35.921C36.2591 10.3116 36.2591 10.3116 36.2591 10.6497V12.5091C36.2591 12.5936 36.2591 12.6781 36.2591 12.7627C36.2591 12.8472 36.2591 12.8472 36.1746 12.8472L32.2867 12.9317Z" fill="#3D4656"/>
<path d="M77.674 0H81.8155C81.9 0 81.9 0 81.9 0.0845201C81.9 0.16904 81.9 0.16904 81.9 0.25356V2.28204C81.9 2.36656 81.9 2.36656 81.9 2.45108C81.9 2.5356 81.9 2.5356 81.8155 2.5356H79.2799C79.0263 2.5356 79.0263 2.5356 79.0263 2.78916V5.32477C79.0263 5.40929 79.0263 5.49381 78.8573 5.49381H76.5753C76.4907 5.49381 76.4907 5.49381 76.4907 5.40929C76.4907 5.32477 76.4907 5.24025 76.4907 5.15573V2.9582C76.4907 2.87368 76.4907 2.78916 76.4907 2.78916C76.4907 2.62012 76.4907 2.62012 76.3217 2.62012H73.9551C73.448 2.5356 73.5325 2.62012 73.5325 2.113V0.33808C73.5325 0.25356 73.5325 0.16904 73.5325 0.0845201C73.5325 0.0845201 73.5325 0 73.6171 0H77.674Z" fill="#3D4656"/>
<path d="M68.0387 9.5509V6.33913C68.0387 6.08557 68.0387 6.08557 68.2923 6.08557H70.4898C70.5743 6.08557 70.5743 6.08557 70.5743 6.17009C70.5743 6.25461 70.5743 6.25461 70.5743 6.33913V12.6781C70.5743 12.9317 70.5743 12.9317 70.3208 12.9317H68.1232C68.0387 12.9317 67.9542 12.9317 67.9542 12.7627C67.9542 12.6781 67.9542 12.5936 67.9542 12.5091L68.0387 9.5509Z" fill="#3D4656"/>
<path d="M62.4604 9.5506V6.42336C62.4604 6.1698 62.4604 6.1698 62.714 6.1698H64.9115C64.9115 6.1698 64.996 6.1698 64.996 6.25432C64.996 6.33884 64.996 6.42336 64.996 6.50788V12.6778C64.996 12.7624 64.996 12.7624 64.996 12.8469C64.996 12.9314 64.996 12.9314 64.827 12.9314H62.5449C62.5449 12.9314 62.4604 12.9314 62.4604 12.8469C62.4604 12.7624 62.4604 12.6778 62.4604 12.5933V9.5506Z" fill="#3D4656"/>
<path d="M56.544 9.5509V12.6781C56.544 13.0162 56.544 12.9317 56.2904 12.9317H54.0929C54.0929 12.9317 54.0084 12.9317 54.0084 12.8472V6.42365C54.0084 6.08557 54.0084 6.08557 54.2619 6.08557H56.4595C56.4595 6.08557 56.544 6.08557 56.544 6.17009V9.5509Z" fill="#3D4656"/>
<path d="M39.5555 9.5509V6.33913C39.5555 6.08557 39.5555 6.08557 39.809 6.08557H42.0066C42.0911 6.08557 42.0911 6.08557 42.0911 6.17009V12.6781C42.0911 12.8472 42.0911 12.8472 41.922 12.8472H39.7245C39.64 12.8472 39.5555 12.8472 39.5555 12.6781C39.5555 12.5936 39.5555 12.5091 39.5555 12.4246V9.5509Z" fill="#3D4656"/>
<path d="M2.53558 12.7627C2.45106 12.7627 2.36654 12.7627 2.36654 12.7627H0.169019C0.0844994 12.7627 0.0844994 12.7627 0.0844994 12.6781V6.50817C0.0844994 6.42365 0.0844994 6.33913 0.0844994 6.25461C0.0844994 6.17009 0.0844994 6.17009 0.25354 6.08557H2.53558C2.6201 6.08557 2.6201 6.08557 2.6201 6.17009C2.6201 6.25461 2.6201 6.33913 2.6201 6.42365V12.5091C2.53558 12.5936 2.53558 12.6781 2.53558 12.7627Z" fill="#3D4656"/>
<path d="M10.3114 9.55068V12.7624C10.3114 12.9315 10.3114 12.9315 10.1424 12.9315H7.86033C7.86033 12.9315 7.77581 12.9315 7.77581 12.847V6.50795C7.77581 6.25439 7.77581 6.25439 8.02937 6.25439H10.1424C10.2269 6.25439 10.3114 6.25439 10.3114 6.42343V9.55068Z" fill="#3D4656"/>
<path d="M45.5564 9.5506V6.50788C45.5564 6.42336 45.5564 6.33884 45.5564 6.25432C45.5564 6.1698 45.5564 6.1698 45.6409 6.1698H47.9229C48.0074 6.1698 48.0074 6.1698 48.092 6.25432V12.6778C48.092 12.7624 48.092 12.7624 48.092 12.8469C48.092 12.9314 48.092 12.9314 48.0074 12.9314H45.7254C45.5564 12.9314 45.5564 12.9314 45.5564 12.7624V9.5506Z" fill="#3D4656"/>
<path d="M79.0263 9.55091V12.5936C79.0263 12.9317 79.0263 12.8472 78.7727 12.8472H76.6597C76.5752 12.8472 76.5752 12.8472 76.5752 12.7627C76.5752 12.6782 76.5752 12.5936 76.5752 12.5936V6.50819C76.5752 6.08559 76.5752 6.17011 76.9133 6.17011H78.9418C79.0263 6.17011 79.0263 6.17011 79.0263 6.25463V9.55091Z" fill="#3D4656"/>
<path d="M70.5743 2.70464V5.24025C70.5743 5.40929 70.5743 5.40929 70.4053 5.40929H68.2077C68.0387 5.40929 68.0387 5.40929 68.0387 5.24025V0.0845201C68.0387 0 68.0387 0 68.2077 0H70.4053C70.5743 0 70.5743 0 70.5743 0.16904V2.70464Z" fill="#3D4656"/>
<path d="M39.5555 2.70464V0.25356C39.5555 0 39.5555 0 39.809 0H42.0066C42.0066 0 42.0911 0 42.0911 0.0845201C42.0911 0.16904 42.0911 0.25356 42.0911 0.25356V5.15573C42.0911 5.49381 42.0911 5.40929 41.8375 5.40929H39.64C39.5555 5.40929 39.5555 5.40929 39.5555 5.32477V2.70464Z" fill="#3D4656"/>
<path d="M30.9343 2.70464V5.15573C30.9343 5.40929 30.9343 5.40929 30.6808 5.40929H28.4833C28.3987 5.40929 28.3987 5.40929 28.3987 5.32477V0.338081C28.3987 0 28.3987 0 28.7368 0H30.8498C30.9343 0 30.9343 0 30.9343 0.0845201V2.70464Z" fill="#3D4656"/>
</svg>
