<svg width="103" height="28" viewBox="0 0 103 28" fill="none" xmlns="http://www.w3.org/2000/svg">
<path d="M70.5953 22.0002V16.9163C70.5953 15.665 70.1274 15.0394 68.9579 15.0394C68.4899 15.0394 67.9442 15.1178 67.6321 15.1957V22.6259C67.6321 22.8605 67.3981 23.0952 67.1642 23.0952H65.3704C65.1364 23.0952 64.9025 22.8605 64.9025 22.6259V13.9444C64.9025 13.6314 65.1364 13.3971 65.3704 13.3188C66.5403 12.9278 67.7098 12.6931 68.9575 12.6931C71.7648 12.6931 73.3246 14.1791 73.3246 16.9167V22.7042C73.3246 22.9389 73.0906 23.1736 72.8566 23.1736H71.7648C71.0633 23.1731 70.5953 22.6259 70.5953 22.0002ZM77.614 18.95L77.5359 19.654C77.5359 20.5926 78.1597 21.1399 79.1733 21.1399C79.953 21.1399 80.6549 20.9052 81.435 20.5143C81.5131 20.5143 81.5909 20.4359 81.669 20.4359C81.8249 20.4359 81.903 20.5143 81.9811 20.5922C82.0592 20.6706 82.2151 20.9052 82.2151 20.9052C82.3709 21.1399 82.5272 21.4525 82.5272 21.6872C82.5272 22.0782 82.2932 22.4691 81.9815 22.6259C81.1237 23.0952 80.1101 23.3299 79.0183 23.3299C77.7707 23.3299 76.7566 23.0168 75.9769 22.3912C75.1973 21.6872 74.7293 20.7489 74.7293 19.5756V16.5253C74.7293 14.1007 76.2891 12.6148 78.9406 12.6148C81.514 12.6148 82.9956 14.0228 82.9956 16.5253V18.4023C82.9956 18.6369 82.7616 18.8716 82.5276 18.8716H77.6148L77.614 18.95ZM77.5359 17.2293H80.4991V16.4474C80.4991 15.5087 79.9534 14.8831 79.0175 14.8831C78.0815 14.8831 77.5359 15.4304 77.5359 16.4474V17.2293ZM97.4219 18.95L97.3438 19.654C97.3438 20.5926 97.9676 21.1399 98.9812 21.1399C99.7609 21.1399 100.463 20.9052 101.243 20.5143C101.321 20.5143 101.399 20.4359 101.477 20.4359C101.633 20.4359 101.711 20.5143 101.789 20.5922C101.867 20.6706 102.023 20.9052 102.023 20.9052C102.179 21.1399 102.335 21.4525 102.335 21.6872C102.335 22.0782 102.101 22.4691 101.789 22.6259C100.932 23.0952 99.918 23.3299 98.8262 23.3299C97.5786 23.3299 96.5645 23.0168 95.7849 22.3912C95.0052 21.6872 94.5372 20.7489 94.5372 19.5756V16.5253C94.5372 14.1007 96.097 12.6148 98.7485 12.6148C101.322 12.6148 102.803 14.0228 102.803 16.5253V18.4023C102.803 18.6369 102.57 18.8716 102.336 18.8716H97.4227V18.95H97.4219ZM97.3438 17.2293H100.307V16.4474C100.307 15.5087 99.7613 14.8831 98.8254 14.8831C97.8895 14.8831 97.3438 15.4304 97.3438 16.4474V17.2293ZM51.4894 23.1731H52.5812C52.8151 23.1731 53.0491 22.9385 53.0491 22.7038V16.9163C53.0491 14.257 51.6452 12.6927 49.3058 12.6927C48.6039 12.6927 47.8242 12.849 47.3562 13.0058V10.1118C47.3562 9.48617 46.8106 8.93848 46.1863 8.93848H45.0946C44.8606 8.93848 44.6266 9.17314 44.6266 9.40781V22.7038C44.6266 22.9385 44.8606 23.1731 45.0946 23.1731H46.8883C47.1223 23.1731 47.3562 22.9385 47.3562 22.7038V15.352C47.7461 15.1957 48.2922 15.1173 48.682 15.1173C49.8519 15.1173 50.3195 15.6646 50.3195 16.9943V22.0782C50.3976 22.6259 50.8656 23.1731 51.4894 23.1731ZM63.265 16.6033V19.4972C63.265 21.9219 61.6275 23.4078 58.8979 23.4078C56.2463 23.4078 54.5307 21.9219 54.5307 19.4972V16.6033C54.5307 14.1787 56.1682 12.6927 58.8979 12.6927C61.6275 12.6927 63.265 14.1791 63.265 16.6033ZM60.5357 16.6033C60.5357 15.6646 59.9901 15.039 58.976 15.039C57.9619 15.039 57.4163 15.5863 57.4163 16.6033V19.4972C57.4163 20.4359 57.9619 20.9832 58.976 20.9832C59.9901 20.9832 60.5357 20.4359 60.5357 19.4972V16.6033ZM43.1454 15.2741C43.1454 17.777 41.2739 19.4977 38.7783 19.4977C38.1544 19.4977 37.6084 19.4193 37.0627 19.1846V22.7042C37.0627 22.9389 36.8287 23.1736 36.5947 23.1736H34.801C34.567 23.1736 34.333 22.9389 34.333 22.7042V10.2685C34.333 9.9555 34.567 9.72125 34.801 9.64289C35.9709 9.25192 37.1404 9.01725 38.388 9.01725C41.1954 9.01725 43.145 10.7379 43.145 13.3971C43.1454 13.3967 43.1454 15.2741 43.1454 15.2741ZM40.338 13.2404C40.338 11.9891 39.4802 11.3635 38.3103 11.3635C37.6083 11.3635 37.1404 11.5982 37.1404 11.5982V16.76C37.6083 16.9947 37.8423 17.073 38.388 17.073C39.5579 17.073 40.4157 16.369 40.4157 15.1961V13.2408H40.338V13.2404ZM93.5227 15.2741C93.5227 17.777 91.6513 19.4977 89.1556 19.4977C88.5318 19.4977 87.9857 19.4193 87.44 19.1846V22.7042C87.44 22.9389 87.206 23.1736 86.9721 23.1736H85.1783C84.9443 23.1736 84.7104 22.9389 84.7104 22.7042V10.2685C84.7104 9.9555 84.9443 9.72125 85.1783 9.64289C86.3482 9.25192 87.5177 9.01725 88.7654 9.01725C91.5728 9.01725 93.5223 10.7379 93.5223 13.3971C93.5227 13.3967 93.5227 15.2741 93.5227 15.2741ZM90.7154 13.2404C90.7154 11.9891 89.8576 11.3635 88.6877 11.3635C87.9857 11.3635 87.5177 11.5982 87.5177 11.5982V16.76C87.9857 16.9947 88.2197 17.073 88.7654 17.073C89.9353 17.073 90.7931 16.369 90.7931 15.1961V13.2408H90.7154V13.2404Z" fill="#5F259F"/>
<path d="M13.9592 28C21.6686 28 27.9183 21.732 27.9183 14C27.9183 6.26801 21.6686 0 13.9592 0C6.24973 0 0 6.26801 0 14C0 21.732 6.24973 28 13.9592 28Z" fill="#5F259F"/>
<path d="M20.2953 10.3458C20.2953 9.79848 19.8273 9.32915 19.2816 9.32915H17.4102L13.1212 4.40197C12.7314 3.93263 12.1076 3.77633 11.4837 3.93263L10.0021 4.40197C9.76815 4.48033 9.69002 4.79294 9.84628 4.94925L14.5251 9.40751H7.42792C7.19394 9.40751 7.03809 9.56382 7.03809 9.79848V10.5804C7.03809 11.1277 7.50605 11.597 8.05173 11.597H9.14351V15.3513C9.14351 18.1669 10.6251 19.8096 13.1208 19.8096C13.9005 19.8096 14.5247 19.7312 15.3044 19.4186V21.9216C15.3044 22.6256 15.85 23.1729 16.552 23.1729H17.6438C17.8778 23.1729 18.1117 22.9382 18.1117 22.7035V11.5191H19.9055C20.1394 11.5191 20.2953 11.3628 20.2953 11.1281V10.3458ZM15.3044 17.0719C14.8364 17.3066 14.2126 17.3849 13.7446 17.3849C12.497 17.3849 11.8732 16.7593 11.8732 15.3513V11.597H15.3044V17.0719Z" fill="white"/>
</svg>
