<svg width="36" height="29" viewBox="0 0 36 29" fill="none" xmlns="http://www.w3.org/2000/svg">
<path d="M19.0658 28.319V25.8595C19.0658 25.2542 18.8197 24.9515 18.2049 24.9515C17.9588 24.9515 17.6719 24.9894 17.5078 25.0271V28.6217C17.5078 28.7352 17.3848 28.8488 17.2618 28.8488H16.3187C16.1956 28.8488 16.0726 28.7352 16.0726 28.6217V24.4218C16.0726 24.2704 16.1956 24.157 16.3187 24.1191C16.9338 23.93 17.5487 23.8164 18.2046 23.8164C19.6807 23.8164 20.5008 24.5353 20.5008 25.8597V28.6596C20.5008 28.7731 20.3777 28.8867 20.2547 28.8867H19.6807C19.3118 28.8865 19.0658 28.6217 19.0658 28.319ZM22.756 26.8434L22.7149 27.184C22.7149 27.6381 23.0429 27.9028 23.5759 27.9028C23.9858 27.9028 24.3549 27.7893 24.765 27.6002C24.8061 27.6002 24.847 27.5622 24.888 27.5622C24.97 27.5622 25.0111 27.6002 25.0521 27.6379C25.0932 27.6758 25.1752 27.7893 25.1752 27.7893C25.2571 27.9028 25.3393 28.0541 25.3393 28.1676C25.3393 28.3567 25.2162 28.5459 25.0523 28.6217C24.6013 28.8488 24.0684 28.9623 23.4944 28.9623C22.8384 28.9623 22.3052 28.8109 21.8953 28.5082C21.4854 28.1676 21.2393 27.7137 21.2393 27.146V25.6704C21.2393 24.4974 22.0594 23.7785 23.4535 23.7785C24.8065 23.7785 25.5855 24.4597 25.5855 25.6704V26.5784C25.5855 26.6919 25.4625 26.8055 25.3395 26.8055H22.7564L22.756 26.8434ZM22.7149 26.011H24.2729V25.6327C24.2729 25.1786 23.986 24.8759 23.4939 24.8759C23.0018 24.8759 22.7149 25.1407 22.7149 25.6327V26.011ZM33.1705 26.8434L33.1294 27.184C33.1294 27.6381 33.4574 27.9028 33.9904 27.9028C34.4003 27.9028 34.7693 27.7893 35.1795 27.6002C35.2206 27.6002 35.2614 27.5622 35.3025 27.5622C35.3845 27.5622 35.4255 27.6002 35.4666 27.6379C35.5077 27.6758 35.5896 27.7893 35.5896 27.7893C35.6716 27.9028 35.7537 28.0541 35.7537 28.1676C35.7537 28.3567 35.6307 28.5459 35.4668 28.6217C35.0158 28.8488 34.4829 28.9623 33.9088 28.9623C33.2529 28.9623 32.7197 28.8109 32.3098 28.5082C31.8998 28.1676 31.6538 27.7137 31.6538 27.146V25.6704C31.6538 24.4974 32.4739 23.7785 33.868 23.7785C35.221 23.7785 36 24.4597 36 25.6704V26.5784C36 26.6919 35.877 26.8055 35.754 26.8055H33.1709V26.8434H33.1705ZM33.1294 26.011H34.6874V25.6327C34.6874 25.1786 34.4005 24.8759 33.9084 24.8759C33.4163 24.8759 33.1294 25.1407 33.1294 25.6327V26.011ZM9.02038 28.8865H9.59441C9.71743 28.8865 9.84045 28.7729 9.84045 28.6594V25.8595C9.84045 24.573 9.10232 23.8162 7.87232 23.8162C7.50325 23.8162 7.09332 23.8919 6.84728 23.9677V22.5676C6.84728 22.265 6.56037 22 6.23217 22H5.65814C5.53512 22 5.4121 22.1135 5.4121 22.2271V28.6594C5.4121 28.7729 5.53512 28.8865 5.65814 28.8865H6.60124C6.72426 28.8865 6.84728 28.7729 6.84728 28.6594V25.1028C7.05224 25.0271 7.33937 24.9892 7.54433 24.9892C8.15944 24.9892 8.40527 25.254 8.40527 25.8972V28.3567C8.44635 28.6217 8.69239 28.8865 9.02038 28.8865ZM15.2117 25.7081V27.1081C15.2117 28.2811 14.3507 29 12.9156 29C11.5215 29 10.6194 28.2811 10.6194 27.1081V25.7081C10.6194 24.5351 11.4804 23.8162 12.9156 23.8162C14.3507 23.8162 15.2117 24.5353 15.2117 25.7081ZM13.7767 25.7081C13.7767 25.254 13.4898 24.9513 12.9566 24.9513C12.4235 24.9513 12.1366 25.2161 12.1366 25.7081V27.1081C12.1366 27.5623 12.4235 27.827 12.9566 27.827C13.4898 27.827 13.7767 27.5623 13.7767 27.1081V25.7081ZM4.63332 25.065C4.63332 26.2759 3.64936 27.1083 2.3372 27.1083C2.00921 27.1083 1.72209 27.0704 1.43518 26.9569V28.6596C1.43518 28.7731 1.31216 28.8867 1.18914 28.8867H0.246044C0.123022 28.8867 0 28.7731 0 28.6596V22.6435C0 22.492 0.123022 22.3787 0.246044 22.3408C0.861153 22.1516 1.47605 22.0381 2.13202 22.0381C3.60806 22.0381 4.6331 22.8705 4.6331 24.157C4.63332 24.1568 4.63332 25.065 4.63332 25.065ZM3.15727 24.0812C3.15727 23.4759 2.70626 23.1732 2.09115 23.1732C1.72209 23.1732 1.47605 23.2867 1.47605 23.2867V25.7839C1.72209 25.8974 1.84511 25.9354 2.13202 25.9354C2.74713 25.9354 3.19814 25.5948 3.19814 25.0273V24.0814H3.15727V24.0812ZM31.1204 25.065C31.1204 26.2759 30.1365 27.1083 28.8243 27.1083C28.4963 27.1083 28.2092 27.0704 27.9223 26.9569V28.6596C27.9223 28.7731 27.7993 28.8867 27.6762 28.8867H26.7331C26.6101 28.8867 26.4871 28.7731 26.4871 28.6596V22.6435C26.4871 22.492 26.6101 22.3787 26.7331 22.3408C27.3483 22.1516 27.9631 22.0381 28.6191 22.0381C30.0952 22.0381 31.1202 22.8705 31.1202 24.157C31.1204 24.1568 31.1204 25.065 31.1204 25.065ZM29.6444 24.0812C29.6444 23.4759 29.1934 23.1732 28.5783 23.1732C28.2092 23.1732 27.9632 23.2867 27.9632 23.2867V25.7839C28.2092 25.8974 28.3322 25.9354 28.6191 25.9354C29.2342 25.9354 29.6852 25.5948 29.6852 25.0273V24.0814H29.6444V24.0812Z" fill="white"/>
<path d="M17.5 21C23.299 21 28 16.299 28 10.5C28 4.70101 23.299 0 17.5 0C11.701 0 7 4.70101 7 10.5C7 16.299 11.701 21 17.5 21Z" fill="white"/>
<path d="M22.2656 7.75981C22.2656 7.34935 21.9136 6.99735 21.5031 6.99735H20.0954L16.8693 3.30196C16.576 2.94996 16.1068 2.83273 15.6376 2.94996L14.5231 3.30196C14.3471 3.36073 14.2884 3.59519 14.4059 3.71242L17.9253 7.05612H12.5868C12.4108 7.05612 12.2936 7.17335 12.2936 7.34935V7.93581C12.2936 8.34627 12.6456 8.69827 13.056 8.69827H13.8773V11.514C13.8773 13.6257 14.9917 14.8577 16.869 14.8577C17.4554 14.8577 17.925 14.7989 18.5114 14.5644V16.4417C18.5114 16.9697 18.9219 17.3801 19.4499 17.3801H20.2711C20.4471 17.3801 20.6231 17.2041 20.6231 17.0281V8.63981H21.9723C22.1483 8.63981 22.2656 8.52258 22.2656 8.34658V7.75981ZM18.5114 12.8044C18.1594 12.9804 17.6902 13.0392 17.3382 13.0392C16.3997 13.0392 15.9305 12.57 15.9305 11.514V8.69827H18.5114V12.8044Z" fill="#4E2482"/>
</svg>
