<svg width="59" height="24" viewBox="0 0 59 24" fill="none" xmlns="http://www.w3.org/2000/svg">
<path d="M26.5113 0.336914H55.8299C57.3934 0.336914 58.6892 1.69377 58.6892 3.34447V20.6812C58.6892 22.3319 57.3934 23.6887 55.8299 23.6887H26.5113C24.9391 23.6887 23.6606 22.3319 23.6606 20.6812V3.34447C23.6606 1.69377 24.9478 0.336914 26.5113 0.336914Z" fill="#FAB90C"/>
<path d="M26.511 0.648621C25.1116 0.648621 23.9713 1.85856 23.9713 3.34505V20.6817C23.9713 22.1682 25.1116 23.3782 26.511 23.3782H55.8296C57.2376 23.3782 58.3779 22.1682 58.3779 20.6817V3.34505C58.3779 1.85856 57.2376 0.648621 55.8296 0.648621H26.511ZM55.8296 24.0004H26.511C24.7661 24.0004 23.3494 22.5139 23.3494 20.6817V3.34505C23.3494 1.51286 24.7661 0.0263672 26.511 0.0263672H55.8296C57.5745 0.0263672 58.9998 1.51286 58.9998 3.34505V20.6817C58.9998 22.5139 57.5832 24.0004 55.8296 24.0004Z" fill="white"/>
<path d="M20.6975 0.311523H3.27399C1.64998 0.311523 0.311035 1.65974 0.311035 3.31908V20.673C0.311035 22.3237 1.64998 23.6806 3.27399 23.6806H20.6975C22.3388 23.6806 23.6691 22.3237 23.6691 20.673V3.31908C23.6605 1.65974 22.3302 0.311523 20.6975 0.311523Z" fill="#9E173B"/>
<path d="M3.27394 0.622254C1.80542 0.622254 0.613323 1.83219 0.613323 3.31869V20.6727C0.613323 22.1591 1.80542 23.3691 3.27394 23.3691H20.6975C22.166 23.3691 23.3581 22.1591 23.3581 20.6727V3.31869C23.3581 1.83219 22.166 0.622254 20.6975 0.622254H3.27394ZM20.6975 23.9827H3.27394C1.46852 23.9827 0 22.4962 0 20.664V3.31869C0 1.4865 1.46852 0 3.27394 0H20.6975C22.5029 0 23.9714 1.4865 23.9714 3.31869V20.6727C23.9714 22.4962 22.5029 23.9827 20.6975 23.9827Z" fill="white"/>
<path d="M50.9317 16.7321C53.5491 16.7321 55.6914 14.6233 55.6914 12.0479C55.6914 8.8934 52.4866 6.84515 49.4545 7.82174V9.93049C51.1044 8.96254 53.3245 9.93049 53.3245 11.8837C53.3245 13.2492 52.1238 14.3986 50.7589 14.3986C49.3336 14.3986 48.202 13.2492 48.202 11.8837C48.202 9.02304 48.1415 6.1624 48.1415 3.30176H46.1288V12.0565L46.1806 12.5146C46.2583 14.7875 48.3834 16.6716 50.9317 16.7321ZM36.9721 16.395H39.028V11.8059C38.8639 9.12675 43.2522 8.8934 43.1399 11.8059V16.395H45.2217V11.7022C45.4031 5.8167 36.6179 6.20561 36.9721 11.7022V16.395ZM31.4004 7.3032C34.0178 7.3032 36.1515 9.41194 36.1515 11.9874C36.1515 15.1419 33.0071 17.1988 29.975 16.2135V14.1048C31.5818 15.0727 33.7673 14.1048 33.7673 12.1602C33.7673 10.7861 32.6443 9.63665 31.219 9.63665C29.7936 9.63665 28.6706 10.7861 28.6706 12.1602C28.6706 15.0122 28.6102 17.8124 28.6102 20.673H26.6406V11.9874V11.5293C26.7011 9.2391 28.852 7.34641 31.4004 7.3032Z" fill="#9E173B"/>
<path d="M16.3698 3.36216H20.6199V20.6297H16.3698V15.7381C12.6208 17.1122 9.12223 17.2246 5.90012 14.0787C4.56981 12.6873 3.81828 10.8033 4.12926 7.50187C4.18109 7.00061 3.94785 4.65852 3.35181 3.35352H7.12677C8.89763 6.1623 6.57391 9.7489 9.28635 12.0391C12.9836 14.4331 16.2057 11.5725 16.3612 8.98837V3.36216H16.3698ZM12.1284 5.1425C14.1411 5.1425 15.7651 6.77591 15.7651 8.74638C15.7651 10.7428 14.1411 12.3589 12.1284 12.3589C10.1156 12.3589 8.47435 10.7428 8.47435 8.74638C8.47435 6.77591 10.1156 5.1425 12.1284 5.1425Z" fill="#FAB90C"/>
</svg>
