<svg width="103" height="27" viewBox="0 0 103 27" fill="none" xmlns="http://www.w3.org/2000/svg">
<path d="M0 0V0.0931284C0 1.02441 0 1.86257 0.0931284 2.79385C0.186257 3.72513 0.279385 4.56329 0.372514 5.40145C0.465642 6.2396 0.745027 7.17089 0.931284 8.00904C1.11754 8.8472 1.39693 9.77848 1.67631 10.6166C1.9557 11.4548 2.23508 12.2929 2.60759 13.038V13.1311L2.70072 13.2242C3.07324 14.1555 3.53888 14.9937 4.00452 15.8318C4.37703 16.5769 4.84268 17.2287 5.30832 17.9738L5.5877 18.4394C6.14647 19.2776 6.70524 20.1157 7.35714 20.8608L7.5434 21.047L7.82278 21.4195C8.1953 21.8852 8.66094 22.3508 9.03345 22.8165C9.31284 23.0958 9.59222 23.3752 9.87161 23.6546L10.4304 24.1202L10.9891 24.5859C11.641 25.1447 12.2929 25.7034 12.9448 26.1691L13.038 26.2622L13.1311 26.3553L13.2242 26.2622L13.3174 26.1691C13.9693 25.7034 14.6212 25.1447 15.2731 24.5859L15.8318 24.0271L16.2975 23.5615C16.5769 23.2821 16.8562 23.0027 17.1356 22.7233C17.6013 22.2577 17.9738 21.792 18.4394 21.3264L18.7188 21.047L18.9051 20.8608C19.557 20.1157 20.1157 19.2776 20.6745 18.4394L21.047 17.8806C21.5127 17.2288 21.8852 16.67 22.2577 16.0181L22.4439 15.6456C22.8165 14.9937 23.189 14.3418 23.4683 13.5967L23.5615 13.4105H8.8472L8.94032 13.5967C9.40597 14.3418 9.87161 15.0868 10.3372 15.8318L10.5235 16.1112H18.9051C18.7188 16.4837 18.4394 16.7631 18.16 17.1356C17.8806 17.5081 17.6013 17.9738 17.2287 18.4394C17.0425 18.7188 16.7631 18.9982 16.5768 19.2776C16.3906 19.557 15.925 20.1157 15.5524 20.4882C15.3662 20.6745 15.1799 20.8608 14.9937 21.047L14.9005 21.1401C14.3418 21.6989 13.6899 22.3508 13.038 22.8165C12.3861 22.2577 11.8273 21.6989 11.2685 21.047L11.0823 20.8608C10.896 20.6745 10.7098 20.4882 10.6166 20.302C10.2441 19.9295 9.87161 19.4638 9.59222 19.0913C9.31284 18.9051 9.12658 18.6257 8.8472 18.3463C8.56781 18.0669 8.28843 17.5081 8.00904 17.1356C7.72966 16.7631 7.35714 16.2043 7.07776 15.7387C6.51899 14.9005 6.14647 14.0624 5.68083 13.1311C5.5877 12.9448 5.49457 12.6655 5.40145 12.4792C5.12206 11.8273 4.84268 11.1754 4.56329 10.5235C4.19078 9.68535 3.91139 8.8472 3.72513 7.91591C3.53888 6.98463 3.25949 6.2396 3.16636 5.30832C3.07324 4.37703 2.88698 3.72513 2.79385 2.88698H23.189C23.0958 3.72513 23.0027 4.56329 22.8165 5.30832C22.6302 6.05334 22.5371 7.07776 22.3508 7.82278H6.51899L6.61211 8.00904C6.8915 8.8472 7.17089 9.68535 7.5434 10.4304L7.63653 10.6166H24.679V10.4304C24.9584 9.59222 25.2378 8.8472 25.424 8.00904C25.6103 7.17089 25.7966 6.2396 25.9828 5.40145C26.1691 4.56329 26.0759 3.63201 26.1691 2.79385C26.2622 1.9557 26.2622 1.02441 26.2622 0.186257V0H0Z" fill="#3D4656"/>
<path d="M38.5551 9.87167C38.5551 10.2442 38.462 10.7098 38.2757 10.9892C38.0895 11.3617 37.717 11.6411 37.4376 11.8274C36.9719 12.0136 36.5063 12.1999 35.9475 12.1067H34.83V14.7143H33.0605V7.54346H35.9475C36.4132 7.54346 36.9719 7.63658 37.4376 7.82284C37.8101 8.0091 38.1826 8.28848 38.3689 8.661C38.462 9.03351 38.5551 9.49915 38.5551 9.87167ZM35.7613 10.8029C36.0407 10.8029 36.32 10.7098 36.5063 10.5236C36.6926 10.3373 36.7857 10.1511 36.7857 9.87167C36.7857 9.59228 36.6926 9.40602 36.5063 9.21977C36.32 9.03351 36.0407 8.94038 35.7613 8.94038H34.83V10.8029H35.7613Z" fill="#3D4656"/>
<path d="M40.8833 7.54346V11.8274C40.8833 12.1999 40.9764 12.5724 41.2558 12.8518C41.5352 13.1312 41.8146 13.2243 42.1871 13.2243C42.5596 13.2243 42.839 13.1312 43.1184 12.8518C43.3978 12.5724 43.4909 12.1999 43.4909 11.8274V7.54346H45.2603V11.8274C45.2603 12.3861 45.1672 12.9449 44.8878 13.5037C44.6084 13.9693 44.2359 14.2487 43.7703 14.5281C43.3046 14.8075 42.7459 14.9006 42.1871 14.9006C41.6283 14.9006 41.1627 14.8075 40.6971 14.5281C40.2314 14.3418 39.8589 13.9693 39.6726 13.5037C39.3933 13.038 39.3001 12.3861 39.3001 11.8274V7.54346H40.8833Z" fill="#3D4656"/>
<path d="M48.7062 14.9006C48.2405 14.9006 47.7749 14.8075 47.3092 14.6212C46.9367 14.4349 46.5642 14.1556 46.2848 13.8762C46.0055 13.5037 45.9123 13.1311 45.9123 12.6655H47.7749C47.7749 12.8518 47.868 13.1311 48.0543 13.3174C48.2405 13.5037 48.4268 13.5037 48.7062 13.5037C48.8924 13.5037 49.1718 13.4105 49.3581 13.3174C49.5443 13.2243 49.5443 13.038 49.5443 12.8518C49.5443 12.6655 49.4512 12.4792 49.3581 12.3861C49.2649 12.293 49.0787 12.1999 48.8924 12.1067C48.613 12.0136 48.4268 11.9205 48.1474 11.8274C47.7749 11.7342 47.4024 11.548 47.0299 11.3617C46.7505 11.1755 46.4711 10.9892 46.2848 10.7098C46.0986 10.4304 45.9123 9.96478 45.9123 9.59227C45.9123 8.94037 46.1917 8.3816 46.6573 8.00909C47.2161 7.63657 47.868 7.45032 48.5199 7.45032C49.1718 7.45032 49.9168 7.63657 50.4756 8.00909C50.9413 8.3816 51.2206 8.94037 51.2206 9.59227H49.3581C49.3581 9.40601 49.2649 9.21976 49.0787 9.0335C48.8924 8.94037 48.7062 8.84724 48.5199 8.84724C48.3337 8.84724 48.1474 8.94037 47.9611 9.0335C47.6818 9.31288 47.6818 9.6854 47.9611 9.96478C47.9611 9.96478 48.0543 10.0579 48.1474 10.0579C48.4268 10.2442 48.7993 10.4304 49.1718 10.5236C49.5443 10.6167 49.9168 10.8029 50.2894 10.9892C50.5687 11.1755 50.8481 11.3617 51.0344 11.6411C51.2206 11.9205 51.4069 12.293 51.3138 12.6655C51.3138 13.038 51.2206 13.4105 51.0344 13.783C50.8481 14.1556 50.4756 14.4349 50.1031 14.6212C49.6375 14.8075 49.1718 14.9006 48.7062 14.9006Z" fill="#3D4656"/>
<path d="M58.3915 7.54346V14.8075H56.622V11.8274H53.9213V14.8075H52.1519V7.54346H53.9213V10.3373H56.622V7.54346H58.3915Z" fill="#3D4656"/>
<path d="M66.7731 9.87167C66.68 9.59228 66.4937 9.40602 66.2143 9.3129C65.9349 9.12664 65.6555 9.12664 65.3762 9.12664C64.8174 9.12664 64.3518 9.3129 63.9792 9.68541C63.6067 10.0579 63.4205 10.6167 63.4205 11.1755C63.4205 11.7342 63.6067 12.293 63.9792 12.7586C64.3518 13.1312 64.9105 13.3174 65.4693 13.3174C65.8418 13.3174 66.2143 13.2243 66.5868 12.9449C66.8662 12.6655 67.1456 12.3861 67.2387 12.0136H65.0037V10.7098H68.915V12.3861C68.6357 13.3174 67.9838 14.0624 67.0525 14.5281C66.5868 14.8075 66.0281 14.9006 65.3762 14.9006C64.7243 14.9006 64.0724 14.7143 63.4205 14.435C62.8617 14.1556 62.3961 13.6899 62.1167 13.1312C61.4648 11.9205 61.4648 10.5236 62.1167 9.3129C62.3961 8.75413 62.8617 8.28848 63.4205 8.0091C63.9792 7.72971 64.6311 7.54346 65.283 7.54346C66.0281 7.54346 66.8662 7.72971 67.5181 8.19536C68.0769 8.56787 68.5425 9.21977 68.7288 9.96479L66.7731 9.87167Z" fill="#3D4656"/>
<path d="M74.037 13.5037H71.3363L70.8707 14.8075H69.0081L71.7088 7.54346H73.7576L76.3652 14.8075H74.5027L74.037 13.5037ZM73.5714 12.1067L72.6401 9.49915L71.8019 12.1067H73.5714Z" fill="#3D4656"/>
<path d="M85.0262 7.54346V14.8075H83.2568V10.4304L81.6736 14.8075H80.2767L78.6004 10.4304V14.8075H76.8309V7.54346H78.8797L80.9286 12.5724L82.9774 7.54346H85.0262Z" fill="#3D4656"/>
<path d="M87.727 7.54346V14.8075H85.9575V7.54346H87.727Z" fill="#3D4656"/>
<path d="M95.1771 14.8075H93.4077L90.4276 10.3373V14.8075H88.6582V7.54346H90.4276L93.4077 12.0136V7.54346H95.1771V14.8075Z" fill="#3D4656"/>
<path d="M100.951 9.87167C100.858 9.59228 100.672 9.40602 100.392 9.3129C100.113 9.12664 99.8336 9.12664 99.5543 9.12664C98.9955 9.12664 98.5298 9.3129 98.1573 9.68541C97.7848 10.0579 97.5986 10.6167 97.5986 11.1755C97.5986 11.7342 97.7848 12.293 98.1573 12.7586C98.5298 13.1312 99.0886 13.3174 99.6474 13.3174C100.02 13.3174 100.392 13.2243 100.765 12.9449C101.044 12.7586 101.324 12.3861 101.417 12.0136H99.1817V10.7098H103V12.3861C102.907 12.8518 102.627 13.2243 102.348 13.5968C102.069 13.9693 101.603 14.3418 101.137 14.5281C100.672 14.8075 100.113 14.9006 99.4611 14.9006C98.8092 14.9006 98.1573 14.7143 97.5054 14.435C96.9467 14.1556 96.481 13.6899 96.2016 13.1312C95.5497 11.9205 95.5497 10.5236 96.2016 9.3129C96.481 8.75413 96.9467 8.28848 97.5054 8.0091C98.0642 7.72971 98.7161 7.54346 99.368 7.54346C100.113 7.54346 100.951 7.72971 101.51 8.19536C102.069 8.56787 102.534 9.21977 102.721 9.96479L100.951 9.87167Z" fill="#3D4656"/>
</svg>
