<svg width="104" height="29" viewBox="0 0 104 29" fill="none" xmlns="http://www.w3.org/2000/svg">
<path d="M18.0632 0H1.97053C1.42316 0 0.985264 0.218947 0.547369 0.547369C0.218947 0.87579 0 1.42316 0 1.86105V26.4926C0 27.04 0.218947 27.4779 0.547369 27.8063C0.985264 28.2442 1.42316 28.4632 1.97053 28.4632H18.0632C18.6105 28.4632 19.0484 28.2442 19.3769 27.9158C19.7053 27.5874 19.9242 27.04 19.9242 26.6021V1.86105C19.9242 1.31368 19.7053 0.87579 19.3769 0.547369C19.0484 0.218947 18.6105 0 18.0632 0ZM16.64 15.2168C16.64 16.2021 16.3116 17.2968 15.6547 18.0632L13.0274 21.4569L15.9832 24.1937C16.0926 24.3032 16.0926 24.3032 16.0926 24.4126C16.0926 24.5221 16.0926 24.6316 16.0926 24.6316C16.0926 24.7411 15.9832 24.7411 15.8737 24.8505C15.7642 24.8505 15.7642 24.96 15.6547 24.96H12.0421C11.8232 24.96 11.6042 24.8505 11.4947 24.7411L10.9474 24.3032L10.619 23.9747L8.64843 22.2232C8.53895 22.0042 8.53895 21.8947 8.53895 21.8947C8.53895 21.7853 8.53895 21.6758 8.64843 21.5663L12.699 16.3116C13.1368 15.7642 13.3558 14.9979 13.3558 14.3411V9.85264C13.4653 9.08632 13.1368 8.21053 12.5895 7.66316C10.9474 6.78737 9.08632 6.78737 7.55369 7.66316C7.00632 8.21053 6.78737 9.08632 6.78737 9.85264V14.56C6.78737 14.8884 6.89685 15.3263 7.00632 15.6547C7.11579 15.9832 7.44421 16.3116 7.66316 16.5305L8.97685 17.7347C9.08632 17.8442 9.08632 17.9537 9.08632 17.9537C9.08632 18.0632 9.08632 18.1726 8.97685 18.2821L7.33474 20.3621L7.22527 20.4716H7.11579C7.00632 20.4716 7.00632 20.4716 7.00632 20.3621L5.14527 18.6105C4.16 17.7347 3.61263 16.4211 3.61263 15.1074V8.42948C3.28421 7.11579 3.83158 5.80211 4.81684 4.92632C5.58316 4.26948 7.11579 3.61263 10.0716 3.61263C13.0274 3.61263 14.56 4.16 15.3263 4.92632C16.3116 5.80211 16.859 7.11579 16.64 8.42948V15.2168Z" fill="#3D4656"/>
<path d="M102.358 15.1072V24.6314L97.76 16.4209C97.2126 15.4356 96.7747 15.1072 96.1179 15.1072C95.461 15.1072 94.9137 15.6545 94.9137 16.5303V27.0398H96.5558V17.5156L101.154 25.7261C101.701 26.7114 102.139 27.0398 102.796 27.0398C103.453 27.0398 104 26.4924 104 25.6167V15.1072H102.358Z" fill="#3D4656"/>
<path d="M69.8442 15.1072H67.6547L63.1663 19.8145V15.1072H61.5242V27.0398H63.1663V22.1135L63.6042 21.5661L67.7642 26.9303H69.8442L64.6989 20.3619L69.8442 15.1072Z" fill="#3D4656"/>
<path d="M86.8127 15.8735C85.937 15.3261 84.8422 15.1072 83.8569 15.1072H80.7917V27.0398H82.4338V22.8798H83.7475C84.7327 22.8798 85.8275 22.6609 86.7033 22.1135C88.4548 20.9093 88.8927 18.5009 87.6885 16.7493C87.5791 16.4209 87.2506 16.0924 86.8127 15.8735ZM85.9369 20.7998C85.2801 21.2377 84.6233 21.4567 83.8569 21.3472H82.5433V16.5303H83.8569C84.6233 16.5303 85.3896 16.6398 85.9369 17.0777C86.4843 17.5156 86.8127 18.1724 86.8127 18.9388C86.8127 19.2672 86.7033 19.5956 86.5938 19.924C86.4843 20.3619 86.2654 20.5809 85.9369 20.7998Z" fill="#3D4656"/>
<path d="M33.4989 25.6167C33.7179 25.3978 33.9368 25.0694 34.0463 24.7409C34.3747 23.9746 34.4842 22.9894 34.4842 22.1136V19.8146C34.4842 18.9388 34.3747 18.063 34.0463 17.1872C33.3894 15.7641 31.8568 14.7788 30.2147 14.8883C28.5726 14.8883 27.04 15.7641 26.3831 17.1872C26.0547 17.9536 25.9452 18.9388 25.9452 19.8146V22.1136C25.9452 22.9894 26.0547 23.8651 26.3831 24.7409C27.04 26.2736 28.5726 27.1494 30.2147 27.1494C30.8715 27.1494 31.5284 27.0399 32.0757 26.8209L33.3894 28.463H35.6884L33.4989 25.6167ZM32.8421 22.3325C32.8421 22.9894 32.8421 23.6462 32.6231 24.1936C31.9663 25.5073 30.4336 26.0546 29.12 25.3978C28.5726 25.1788 28.1347 24.7409 27.9157 24.1936C27.6968 23.5367 27.5873 22.8799 27.6968 22.223V20.0336C27.6968 19.3767 27.6968 18.7199 27.9157 18.063C28.5726 16.7494 30.1052 16.202 31.4189 16.8588C31.9663 17.0778 32.4042 17.5157 32.6231 18.063C32.8421 18.7199 32.9515 19.3767 32.8421 20.0336V22.3325Z" fill="#3D4656"/>
<path d="M54.6274 17.0778C55.7221 16.202 57.0358 16.202 59.0064 16.6399V15.5452C58.24 15.2168 57.3642 14.9978 56.4885 14.9978C55.3937 14.8883 54.1895 15.2168 53.3137 15.9831C52.3285 16.9683 51.7811 18.282 51.6716 19.5957C51.5621 20.581 51.5621 21.6757 51.6716 22.661C51.6716 24.0841 52.3285 25.2884 53.3137 26.2736C54.1895 27.0399 55.2842 27.3684 56.4885 27.2589C57.3642 27.2589 58.24 27.0399 59.0064 26.7115V25.6168C57.0358 26.0547 55.7221 25.9452 54.6274 25.1789C53.5327 24.4126 53.3137 22.7705 53.3137 21.1284C53.3137 19.4862 53.5327 17.9536 54.6274 17.0778Z" fill="#3D4656"/>
<path d="M76.0842 16.3116C76.96 16.3116 77.7264 16.4211 78.6021 16.5306V15.3264C77.5074 14.998 76.4127 14.8885 75.3179 14.998C74.6611 14.998 74.0042 15.1074 73.3474 15.2169C72.6906 15.3264 72.0337 15.7643 71.7053 16.3116C71.3769 16.859 71.2674 17.5159 71.4863 18.0632L71.5958 18.1727C71.9242 19.0485 72.4716 19.7053 73.019 20.3622C73.7853 21.1285 75.2085 22.5516 75.8653 23.318C76.3032 23.7559 76.7411 24.4127 76.5221 24.9601C76.3032 25.5074 75.2085 25.9453 73.7853 25.9453C72.9095 25.9453 72.1432 25.8359 71.2674 25.7264V27.0401C72.3621 27.3685 73.4569 27.478 74.5516 27.3685C76.8506 27.259 77.7263 26.7117 78.1642 26.0548C78.3832 25.7264 78.4927 25.398 78.4927 24.9601C78.4927 24.8506 78.4927 24.8506 78.4927 24.7411C78.4927 23.9748 78.0548 23.318 77.5074 22.7706C76.6316 21.7853 74.9895 20.2527 74.2232 19.4864L74.0042 19.2674C73.4569 18.7201 72.9095 18.0632 73.1285 17.4064C73.3474 16.7495 74.88 16.3116 76.0842 16.3116Z" fill="#3D4656"/>
<path d="M49.3726 15.1072H47.7305V27.0398H49.3726V15.1072Z" fill="#3D4656"/>
<path d="M92.2864 15.1072H90.6443V27.0398H92.2864V15.1072Z" fill="#3D4656"/>
<path d="M38.3158 15.1072H36.6737V22.9893C36.6737 24.4124 37.1116 27.2588 40.8337 27.2588C44.5558 27.2588 44.9937 24.4124 44.9937 22.9893V15.1072H43.3516V22.9893C43.3516 25.5072 41.6 25.8356 40.8337 25.8356C40.0674 25.8356 38.3158 25.5072 38.3158 22.9893V15.1072Z" fill="#3D4656"/>
</svg>
