<svg width="114" height="30" viewBox="0 0 114 30" fill="none" xmlns="http://www.w3.org/2000/svg">
<path d="M107.002 2.19038L113.399 14.8939L99.9502 27.6035L107.002 2.19038Z" fill="#008C44"/>
<path d="M102.571 2.19038L108.96 14.8939L95.5193 27.6035L102.571 2.19038Z" fill="#F47920"/>
<path d="M0 22.9814L6.37876 0.000303268H16.5768C19.7639 0.000303268 21.893 0.504856 22.9761 1.54459C24.0515 2.57598 24.2587 4.25949 23.6104 6.62577C23.2184 8.0197 22.6225 9.18975 21.8039 10.1142C20.9919 11.0403 19.921 11.7727 18.6022 12.3112C19.721 12.5802 20.4328 13.1142 20.7519 13.9151C21.0693 14.7159 21.0325 15.8837 20.6472 17.4146L19.8714 20.6246L19.8692 20.7115C19.6453 21.6104 19.7116 22.0915 20.0763 22.1305L19.8413 22.9814H12.9424C12.9658 22.4407 13.0087 21.9573 13.0544 21.5513C13.1045 21.1359 13.1663 20.814 13.2276 20.5929L13.8708 18.2979C14.1949 17.1045 14.2149 16.2719 13.9142 15.7924C13.6107 15.3001 12.9313 15.0578 11.8587 15.0578H8.95945L6.74855 22.9814H0ZM10.394 9.8792H13.4993C14.5875 9.8792 15.3906 9.72382 15.8856 9.40249C16.383 9.07837 16.7522 8.53094 16.9688 7.73902C17.1933 6.93374 17.1381 6.37238 16.8162 6.05328C16.4949 5.72916 15.7258 5.57156 14.5168 5.57156H11.5897L10.394 9.8792Z" fill="#1B3281"/>
<path d="M42.5444 6.02303L37.842 22.9813H32.1276L32.8298 20.4969C31.8241 21.4849 30.7949 22.235 29.7574 22.7145C28.7282 23.2024 27.6423 23.4424 26.499 23.4424C25.5539 23.4424 24.7425 23.2709 24.0892 22.9306C23.4282 22.5914 22.9359 22.0757 22.6045 21.3958C22.3105 20.8004 22.1824 20.0653 22.2325 19.1871C22.2854 18.3228 22.5906 16.8648 23.1564 14.8232L25.5934 6.02303H31.8441L29.4121 14.782C29.0568 16.064 28.9722 16.965 29.1454 17.4557C29.3258 17.9508 29.8075 18.2064 30.5894 18.2064C31.3769 18.2064 32.039 17.9213 32.5859 17.3393C33.1406 16.7623 33.5688 15.9019 33.8907 14.7569L36.3027 6.02303H42.5444Z" fill="#1B3281"/>
<path d="M40.2764 22.9814L46.6484 0.000303268H55.4141C57.3482 0.000303268 58.8452 0.114468 59.9128 0.365074C60.9781 0.605099 61.8135 0.99493 62.4344 1.54459C63.2124 2.26356 63.6891 3.15349 63.8851 4.22107C64.0695 5.28865 63.9603 6.53221 63.5566 7.99241C62.8426 10.5614 61.5913 12.5301 59.8081 13.9056C58.0193 15.2633 55.8062 15.9455 53.1648 15.9455H49.0626L47.114 22.9814H40.2764ZM50.6158 10.3331H52.82C54.2452 10.3331 55.247 10.1571 55.834 9.81738C56.402 9.47322 56.8058 8.86174 57.0519 7.99241C57.2981 7.11139 57.2346 6.49546 56.8626 6.15129C56.5045 5.8088 55.5895 5.6356 54.1254 5.6356H51.9257L50.6158 10.3331Z" fill="#1B3281"/>
<path d="M70.9099 22.9814L70.9734 21.3709C69.9654 22.1255 68.9446 22.6958 67.9183 23.0522C66.8963 23.4153 65.8081 23.5996 64.6426 23.5996C62.8722 23.5996 61.6375 23.1184 60.9236 22.1873C60.2185 21.2545 60.1027 19.9151 60.5838 18.2066C61.0444 16.5203 61.8636 15.2789 63.0454 14.4853C64.2204 13.6823 66.1829 13.1076 68.9363 12.74C69.2854 12.6832 69.7532 12.6375 70.3391 12.5668C72.3746 12.3312 73.5174 11.7888 73.7635 10.9039C73.8916 10.4194 73.8136 10.0619 73.5129 9.84244C73.2227 9.61467 72.6803 9.50273 71.8973 9.50273C71.2474 9.50273 70.7245 9.6375 70.2957 9.91762C69.8674 10.2005 69.5477 10.6138 69.3311 11.1952H63.2369C63.7871 9.2861 64.9115 7.84372 66.5995 6.87916C68.2814 5.8979 70.4989 5.42565 73.2456 5.42565C74.537 5.42565 75.6937 5.5465 76.7162 5.8088C77.7403 6.05996 78.4888 6.41805 78.9744 6.85132C79.572 7.39207 79.9256 8.00856 80.0264 8.69021C80.1428 9.37019 80.0153 10.3448 79.6589 11.6201L77.0375 21.0746C76.9534 21.3843 76.9373 21.6605 76.983 21.9116C77.0375 22.1511 77.1422 22.356 77.3271 22.5025L77.1862 22.9814H70.9099ZM72.4292 15.4092C71.7653 15.676 70.9027 15.9316 69.8307 16.2123C68.1471 16.6639 67.1998 17.2665 66.9949 18.0122C66.8529 18.4917 66.9103 18.8609 67.1447 19.1416C67.3758 19.4084 67.7774 19.5431 68.3432 19.5431C69.3807 19.5431 70.2138 19.2808 70.8348 18.7629C71.4574 18.2383 71.9229 17.4146 72.2487 16.2786C72.3055 16.0369 72.3557 15.8631 72.388 15.7334L72.4292 15.4092Z" fill="#1B3281"/>
<path d="M77.2336 29.6636L78.6209 24.6443H80.4097C81.0072 24.6443 81.4772 24.5262 81.8103 24.3112C82.1483 24.0879 82.3783 23.7115 82.5109 23.2047C82.5771 22.9814 82.6178 22.7464 82.6456 22.4796C82.6634 22.1967 82.6634 21.8976 82.6456 21.5512L81.6911 6.02312H88.0181L87.92 16.3125L93.4434 6.02312H99.3271L89.5624 22.8995C88.4541 24.7857 87.6488 26.0816 87.1376 26.7889C86.633 27.4873 86.1541 28.0302 85.6891 28.3978C85.0865 28.9063 84.4138 29.2666 83.6876 29.4765C82.9597 29.6909 81.8515 29.7979 80.3618 29.7979C79.9329 29.7979 79.4395 29.7895 78.906 29.7617C78.3764 29.741 77.8112 29.7093 77.2336 29.6636Z" fill="#1B3281"/>
</svg>
