<svg width="104" height="20" viewBox="0 0 104 20" fill="none" xmlns="http://www.w3.org/2000/svg">
<path d="M0.776692 0.501221H9.3203C9.8381 0.501221 10.2696 0.58752 10.7874 0.673819C13.8942 1.53681 16.4831 3.78059 17.8639 6.71476C17.9502 6.88735 18.1228 7.05995 17.9502 7.23255C17.7776 7.40515 17.605 7.14625 17.4324 7.05995C16.4831 6.45586 15.4475 6.11066 14.412 6.02436C11.5641 5.85177 8.80251 6.02436 6.04094 5.93806C5.69574 5.93806 5.60944 6.11066 5.60944 6.45586C5.60944 6.97365 5.86834 7.05995 6.29984 7.05995H14.8434C15.1886 7.05995 15.5338 7.05995 15.879 7.14625C17.1735 7.40515 18.0365 8.44074 18.0365 9.73523V18.5377C18.0365 19.3144 18.0365 19.3144 17.2598 19.3144C14.6708 19.3144 12.1682 19.3144 9.6655 19.3144C5.60944 19.1418 1.89858 16.7255 0.258897 13.0146C0.172598 12.7557 0 12.5831 0.0862991 12.4968C0.172598 12.4105 0.431496 12.4968 0.604094 12.5831C1.63968 13.2735 2.84787 13.6187 4.14236 13.705C6.73133 13.705 9.3203 13.705 11.9093 13.705C12.2545 13.705 12.5134 13.6187 12.5134 13.1872C12.5134 12.7557 12.2545 12.6694 11.9093 12.6694C9.5792 12.5831 7.16283 12.6694 4.83275 12.6694C4.05606 12.6694 3.19307 12.7557 2.41638 12.6694C1.03559 12.4968 0 11.3749 0 9.99412C0 7.05995 0 4.12578 0 1.19161C0 0.846417 0.345196 0.501221 0.776692 0.501221Z" fill="#3D4656"/>
<path d="M34.0881 17.5021V9.56258C34.0881 9.38998 34.0881 9.13109 34.347 9.21739C34.6059 9.30369 34.6059 9.38998 34.6059 9.56258V10.253C34.6059 10.253 34.6922 10.253 34.7785 10.253C35.6415 9.21739 37.1086 8.78589 38.3168 9.30369C39.4387 9.73518 40.2154 10.8571 40.3017 12.0653C40.388 13.0145 40.1291 14.0501 39.525 14.8268C38.5757 16.035 35.9004 16.1213 34.8648 14.7405C34.7785 14.6542 34.6922 14.5679 34.6059 14.5679V17.5884L34.0881 17.5021ZM37.1949 9.47628C35.9004 9.38998 34.7785 10.3393 34.6059 11.6338C34.5196 12.0653 34.5196 12.4105 34.6059 12.8419C34.6922 14.2227 35.9004 15.2583 37.2812 15.172C37.5401 15.172 37.799 15.0857 38.0579 14.9994C39.2661 14.5679 39.8702 13.2734 39.6113 11.6338C39.525 10.3393 38.4031 9.47628 37.1949 9.47628ZM30.9814 8.87219C30.9814 9.04479 31.0677 9.30369 30.8088 9.30369C30.5499 9.30369 30.4636 9.13109 30.4636 8.95849C30.3773 8.0955 29.6869 7.31881 28.8239 7.23251C27.9609 7.05991 27.0116 7.05991 26.1486 7.23251C25.7171 7.31881 25.2856 7.5777 25.0267 7.9229C24.5952 8.61329 24.7678 9.47628 25.4582 9.90778C25.5445 9.99408 25.7171 10.0804 25.8034 10.0804C26.4075 10.3393 27.0979 10.4256 27.702 10.5982C28.565 10.7708 29.428 10.9434 30.2047 11.2886C30.8951 11.6338 31.3266 12.2379 31.3266 13.0145C31.4129 13.7049 30.9814 14.3953 30.3773 14.7405C28.7376 15.6035 26.7527 15.6035 25.113 14.6542C24.3363 14.2227 23.9049 13.3597 24.0774 12.4968C24.0774 12.3242 24.0775 12.2379 24.3363 12.2379C24.5952 12.2379 24.5952 12.3242 24.5952 12.4968C24.5952 12.6694 24.5952 12.9282 24.6815 13.1008C24.8541 13.7912 25.3719 14.3953 26.0623 14.5679C27.2705 14.9994 28.6513 14.9994 29.8595 14.4816C30.6362 14.2227 31.0677 13.446 30.8951 12.5831C30.8088 12.1516 30.4636 11.7201 30.0321 11.5475C29.2554 11.2886 28.4787 11.116 27.702 10.9434C27.0116 10.7708 26.4075 10.5982 25.7171 10.4256C24.6815 10.0804 24.1637 8.95849 24.5089 7.9229C24.5089 7.8366 24.5089 7.8366 24.5952 7.7503C24.7678 7.23251 25.1993 6.88731 25.7171 6.62841C26.0623 6.54211 26.6664 6.54211 27.4431 6.54211C30.291 6.54211 30.8951 8.0955 30.9814 8.87219ZM65.0695 10.0804C65.6736 9.38999 66.6229 9.04479 67.5722 9.21739C68.1763 9.30369 68.6941 9.56258 69.0393 10.0804C69.1256 10.253 69.2119 10.253 69.2982 10.0804C69.9023 9.04479 71.8009 8.95849 72.6638 9.47628C73.2679 9.82148 73.5268 10.4256 73.5268 11.116C73.5268 12.4968 73.5268 13.8775 73.5268 15.2583C73.5268 15.4309 73.5268 15.6898 73.2679 15.6898C73.009 15.6898 73.009 15.5172 73.009 15.2583V11.5475C73.009 10.4256 72.4913 9.73518 71.542 9.64888C70.5064 9.47628 69.4708 10.0804 69.2982 11.116C69.2982 11.2023 69.2982 11.2023 69.2982 11.2886C69.1256 12.4968 69.2982 13.7912 69.2119 15.0857C69.2119 15.172 69.2119 15.2583 69.2119 15.2583C69.2119 15.4309 69.2119 15.6035 68.953 15.6035C68.6941 15.6035 68.6941 15.5172 68.6941 15.2583C68.6941 14.8268 68.6941 14.309 68.6941 13.8775V11.4612C68.6941 10.4256 68.3489 9.90778 67.5722 9.73518C66.7092 9.47628 65.6736 9.82148 65.2421 10.6845C65.0695 11.116 64.8969 11.5475 64.9832 11.979V15.172C64.9832 15.3446 65.0695 15.6035 64.7243 15.6035C64.3791 15.6035 64.4654 15.3446 64.4654 15.172V9.82148C64.4654 9.64888 64.3791 9.30369 64.7243 9.30369C65.0695 9.30369 64.9832 9.56258 64.9832 9.82148C64.9832 10.0804 64.9832 9.90778 65.0695 10.0804ZM79.913 12.6694H77.4103C77.1514 12.6694 77.0651 12.7557 77.0651 13.0145C77.0651 14.2227 78.1007 15.172 79.3089 15.172H79.3952C80.5171 15.3446 81.5527 14.8268 82.0704 13.7912C82.1567 13.6186 82.3293 13.5323 82.5019 13.6186C82.7608 13.7049 82.5882 13.8775 82.5019 14.0501C82.0704 14.9994 81.2075 15.6035 80.1719 15.6898C79.7404 15.7761 79.2226 15.7761 78.7911 15.6898C77.8418 15.5172 77.0651 14.9131 76.8062 13.9638C76.2884 12.6694 76.5473 11.116 77.4966 10.0804C78.5322 9.13109 79.9993 8.95849 81.2075 9.47628C82.3293 9.99408 82.9334 11.116 82.8471 12.3242C82.8471 12.5831 82.6745 12.6694 82.5019 12.6694H79.913ZM79.5678 12.0653H81.5527C82.1568 12.0653 82.243 11.979 82.0704 11.3749C81.639 9.99408 80.1719 9.21739 78.7911 9.64888C77.8418 9.90778 77.1514 10.7708 76.9788 11.7201C76.9788 11.979 77.0651 12.0653 77.324 12.0653C78.1007 12.1516 78.8774 12.1516 79.5678 12.0653ZM99.9344 10.3393C99.9344 9.99408 99.9344 9.73518 99.9344 9.47628C99.9344 9.21739 99.9344 9.04479 100.193 9.04479C100.452 9.04479 100.452 9.21739 100.452 9.47628C100.452 10.253 100.452 11.0297 100.452 11.7201C100.452 12.8419 100.452 13.9638 100.452 15.0857C100.452 15.2583 100.538 15.5172 100.193 15.5172C99.8481 15.5172 99.9344 15.2583 99.9344 15.0857C99.9344 14.9131 99.9344 14.6542 99.9344 14.3953C99.7618 14.3953 99.6755 14.5679 99.5892 14.6542C98.6399 15.6898 97.0865 15.9487 95.792 15.3446C95.1016 14.9994 94.5838 14.4816 94.4112 13.7912C93.9797 12.7556 94.066 11.5475 94.6701 10.5119C95.6194 9.04479 97.518 8.61329 98.9851 9.56258C99.1577 9.73518 99.4166 9.82148 99.5029 9.99408C99.6755 10.1667 99.7618 10.253 99.9344 10.3393ZM97.2591 9.64888C96.4824 9.56258 95.7057 9.90778 95.2742 10.5982C94.5838 11.6338 94.4975 12.9282 95.0153 13.9638C95.2742 14.6542 95.9646 15.0857 96.655 15.172C98.0358 15.5172 99.4166 14.6542 99.7618 13.2734C99.8481 13.1008 99.8481 12.8419 99.8481 12.5831C100.021 10.8571 98.9851 9.56258 97.2591 9.64888ZM58.2519 15.6898C56.5259 15.7761 55.1451 14.4816 54.9725 12.7557C54.9725 12.5831 54.9725 12.4968 54.9725 12.3242C54.8862 10.5982 56.1807 9.13109 57.9067 9.04479C57.993 9.04479 58.1656 9.04479 58.2519 9.04479C59.9779 8.95849 61.3587 10.3393 61.445 11.979C61.445 12.0653 61.445 12.2379 61.445 12.3242C61.6176 13.9638 60.3231 15.5172 58.6834 15.6035C58.5971 15.6898 58.4245 15.6898 58.2519 15.6898ZM58.2519 9.64888C56.7848 9.56258 55.5766 10.6845 55.4903 12.0653C55.4903 12.1516 55.4903 12.2379 55.4903 12.4105C55.404 13.8775 56.4396 15.172 57.9067 15.2583C57.993 15.2583 58.0793 15.2583 58.1656 15.2583C59.6327 15.3446 60.8409 14.309 60.9272 12.8419C60.9272 12.7557 60.9272 12.5831 60.9272 12.4968C61.0998 11.116 60.0642 9.82148 58.5971 9.64888C58.5108 9.64888 58.4245 9.64888 58.2519 9.64888ZM86.3854 10.1667C87.1621 9.30369 88.3703 8.87219 89.4922 9.21739C90.5278 9.38999 91.3045 10.3393 91.2182 11.3749V14.9994C91.2182 15.0857 91.2182 15.2583 91.2182 15.3446C91.2182 15.4309 91.0456 15.6035 90.9593 15.5172C90.873 15.5172 90.7867 15.4309 90.7867 15.3446C90.7867 15.2583 90.7867 15.0857 90.7867 14.9994V11.7201C90.873 10.5982 90.0963 9.64888 88.9744 9.56258C88.6292 9.56258 88.284 9.56258 88.0251 9.73518C86.9895 10.0804 86.2991 11.0297 86.3854 12.1516C86.3854 13.1008 86.3854 14.0501 86.3854 14.9131C86.3854 14.9994 86.3854 15.172 86.3854 15.2583C86.3854 15.3446 86.3854 15.6035 86.1265 15.6035C85.8676 15.6035 85.8676 15.4309 85.8676 15.2583C85.8676 15.0857 85.8676 14.9994 85.8676 14.9131V9.56258C85.8676 9.38998 85.8676 9.21739 86.1265 9.21739C86.3854 9.21739 86.3854 9.38998 86.3854 9.56258C86.2991 9.73518 86.2991 9.90778 86.3854 10.1667ZM47.2919 10.0804C48.2412 8.78589 50.8302 8.87219 51.6069 9.82148C51.9521 10.1667 52.1247 10.5982 52.1247 11.116C52.1247 12.4968 52.1247 13.8775 52.1247 15.2583C52.1247 15.4309 52.1247 15.6035 51.8658 15.6035C51.6069 15.6035 51.6069 15.4309 51.6069 15.2583C51.6069 14.0501 51.5206 12.8419 51.6069 11.5475C51.6932 10.5119 50.9165 9.64888 49.8809 9.64888C49.7083 9.64888 49.622 9.64888 49.4494 9.64888C48.2412 9.64888 47.2056 10.5982 47.2056 11.8927C47.2056 11.979 47.2056 12.0653 47.2056 12.1516V15.172C47.2056 15.3446 47.2919 15.6035 46.9467 15.6035C46.6015 15.6035 46.6878 15.3446 46.6878 15.172C46.6878 13.3597 46.6878 11.5475 46.6878 9.73518C46.6878 9.56258 46.6878 9.38999 46.9467 9.38999C47.2056 9.38999 47.2056 9.56258 47.2056 9.73518C47.2056 9.90778 47.2919 9.90778 47.2919 10.0804ZM103.473 11.2023V7.4914C103.473 7.31881 103.473 7.23251 103.473 7.14621C103.473 6.97361 103.559 6.88731 103.645 6.88731C103.645 6.88731 103.645 6.88731 103.732 6.88731C103.818 6.88731 103.99 6.97361 103.99 7.05991C103.99 7.14621 103.99 7.31881 103.99 7.40511V14.9131C103.99 14.9131 103.99 14.9994 103.99 15.0857C103.99 15.2583 104.077 15.6035 103.732 15.6035C103.386 15.6035 103.473 15.3446 103.473 15.172C103.473 13.7912 103.473 12.4968 103.473 11.2023ZM43.8399 14.9994C43.8399 15.172 43.8399 15.4309 43.581 15.4309C43.3222 15.4309 43.3222 15.172 43.3222 14.9994C43.3222 13.1871 43.3222 11.3749 43.3222 9.56258C43.3222 9.38998 43.3222 9.13109 43.581 9.13109C43.8399 9.13109 43.8399 9.38998 43.8399 9.56258C43.8399 10.4256 43.8399 14.0501 43.8399 14.9994Z" fill="#3D4656"/>
</svg>
