<svg width="30" height="31" viewBox="0 0 30 31" fill="none" xmlns="http://www.w3.org/2000/svg">
<path d="M15 30C23.2843 30 30 23.2843 30 15C30 6.71573 23.2843 0 15 0C6.71573 0 0 6.71573 0 15C0 23.2843 6.71573 30 15 30Z" fill="#0D69D4"/>
<path d="M17.7268 14.9997C17.7268 13.4997 16.4995 12.2725 14.9995 12.2725C13.4995 12.2725 12.2722 13.4997 12.2722 14.9997C12.2722 16.1179 12.954 17.0725 13.9086 17.5088V29.9725C14.2631 29.9997 14.6449 30.027 14.9995 30.027C15.354 30.027 15.7359 29.9997 16.0904 29.9725V17.5088C17.0449 17.0725 17.7268 16.1179 17.7268 14.9997Z" fill="white"/>
</svg>
