<svg width="104" height="21" viewBox="0 0 104 21" fill="none" xmlns="http://www.w3.org/2000/svg">
<path d="M7.2123 7.0739L0.418831 7.28699C0.299498 7.29126 0.188689 7.3424 0.111975 7.4319C0.0309989 7.5214 -0.00735824 7.63647 0.00116556 7.75154L0.12476 9.6012C0.141808 9.83135 0.333593 10.0103 0.563736 10.0061L2.40914 9.98478L2.8268 18.6705C2.83107 18.7856 2.88647 18.8964 2.97171 18.9731C3.06121 19.0498 3.17628 19.0925 3.29135 19.0839L5.37542 18.9433C5.60982 18.9262 5.78882 18.7302 5.7803 18.4958L5.53737 9.9379L7.36572 9.91659C7.48506 9.91659 7.59587 9.86544 7.67684 9.77594C7.75782 9.68644 7.80044 9.57137 7.79191 9.45204L7.6598 7.47878C7.64701 7.24864 7.4467 7.06964 7.2123 7.0739ZM15.1224 7.64073L13.0681 7.52992C12.8295 7.52566 12.642 7.70892 12.6292 7.94333L12.5993 12.4737L11.7043 12.6655L11.4785 7.52566C11.4699 7.29552 11.2781 7.11226 11.048 7.11226L9.0236 7.1634C8.90427 7.1634 8.79346 7.21028 8.71248 7.29126C8.62725 7.37649 8.58463 7.4873 8.58463 7.60664L8.95541 19.0328C8.95967 19.2672 9.15146 19.459 9.38587 19.4632L11.4103 19.4121C11.5296 19.4121 11.6404 19.3695 11.7214 19.2842C11.8024 19.2033 11.8492 19.0882 11.8492 18.9731L11.6276 15.1459L12.4203 15.2013L12.561 18.6279C12.5567 18.7472 12.5993 18.8623 12.6803 18.9475C12.7613 19.0328 12.8721 19.0839 12.9914 19.0839L15.1053 19.2288C15.1139 19.2288 15.1224 19.2288 15.1309 19.2288C15.3568 19.2203 15.5358 19.037 15.5443 18.8069L15.5528 8.09249C15.5571 7.97316 15.5145 7.86235 15.4335 7.77711C15.3525 7.69187 15.2417 7.64073 15.1224 7.64073ZM22.7384 6.68181L20.8674 6.82245C20.6415 6.8395 20.4668 7.02702 20.4668 7.2529C20.4668 7.2529 20.4838 14.4044 20.4583 15.3377C20.4412 15.8918 20.5179 16.8251 19.9085 16.8507C19.4908 16.8677 19.3459 16.2583 19.3374 15.3931C19.3289 14.4214 19.4098 7.76859 19.4098 7.7004C19.4141 7.47452 19.2436 7.28699 19.022 7.26142L16.8996 7.03554C16.776 7.02276 16.6524 7.06111 16.5629 7.14635C16.4691 7.23159 16.418 7.35092 16.4223 7.47452C16.4223 7.47452 16.5032 15.8534 16.5075 16.1475C16.5331 17.2343 17.3684 19.182 19.7252 19.118C22.3676 19.0456 22.8449 17.4729 23.0069 15.6361C23.0751 14.8732 23.1987 7.88792 23.2072 7.11226C23.2072 6.98866 23.1561 6.87359 23.0708 6.79261C22.9856 6.71164 22.8577 6.66902 22.7384 6.68181ZM30.9511 7.13783L29.0119 7.23159C28.8968 7.23585 28.786 7.29126 28.7093 7.37649C28.6326 7.46599 28.5942 7.58106 28.5985 7.69614L28.9181 13.0619L26.9108 7.51714C26.8426 7.32961 26.6551 7.21454 26.459 7.23585L24.5156 7.44895C24.294 7.47452 24.1235 7.66204 24.1278 7.88792L24.4474 18.466C24.4474 18.6918 24.6264 18.8836 24.8523 18.8964L26.8 19.0413C26.9236 19.0498 27.0472 19.0072 27.1367 18.9177C27.2262 18.8325 27.2731 18.7089 27.2688 18.5853L26.9662 13.9569L28.6496 18.7643C28.7093 18.9262 28.8585 19.037 29.0332 19.0498H31.0832C31.1002 19.0498 31.113 19.0498 31.1301 19.0498C31.2324 19.0456 31.3346 19.003 31.4114 18.9305C31.4966 18.8453 31.5477 18.7302 31.5477 18.6109L31.4241 7.57254C31.4241 7.45321 31.373 7.3424 31.2878 7.26142C31.1855 7.17192 31.0704 7.1293 30.9511 7.13783ZM33.5508 6.91195C33.4144 6.91195 33.2781 6.91195 33.1374 6.91621C32.9073 6.92047 32.7198 7.10799 32.7155 7.33814L32.366 18.3296C32.3575 18.564 32.5365 18.76 32.7666 18.7771C32.7752 18.7771 33.0223 18.7984 33.4102 18.7984C34.774 18.7984 38.0343 18.5512 38.7844 16.2583C39.4109 14.3532 39.3086 11.7492 39.151 10.509C38.8398 8.08823 37.0072 6.91195 33.5508 6.91195ZM36.4532 14.1529C36.223 16.0111 35.6392 16.1262 34.9999 16.3478L35.2982 9.44351C35.5198 9.50318 35.8011 9.49466 36.1591 9.97199C36.6876 10.6709 36.6791 12.3373 36.4532 14.1529ZM45.5097 16.8422L42.9611 17.0425L42.8418 14.6643L44.4911 14.5706C44.7042 14.5578 44.8747 14.3916 44.896 14.1827L45.0494 12.7209C45.0622 12.5931 45.0196 12.4652 44.9344 12.3757C44.8449 12.2819 44.7213 12.2351 44.5934 12.2393L42.8034 12.3331V9.74611H45.4458H45.45C45.693 9.75037 45.8848 9.55006 45.8848 9.3114C45.8848 9.2773 45.8805 9.24747 45.8762 9.21337L45.7271 7.66204C45.7058 7.4319 45.514 7.26568 45.2796 7.26995L40.438 7.38928C40.1994 7.3978 40.0119 7.59385 40.0161 7.82826L40.1696 18.7004C40.1738 18.939 40.3656 19.1308 40.6043 19.1308H45.5012C45.7356 19.1308 45.9316 18.9433 45.9359 18.7089L45.9743 17.2897C45.9785 17.1661 45.9274 17.0467 45.8379 16.9615C45.7569 16.8763 45.6333 16.8336 45.5097 16.8422ZM53.4283 10.4664C53.3218 8.94061 52.7933 6.91621 49.4733 6.91621C48.7615 6.91621 47.9262 7.00997 46.9886 7.19323C46.784 7.23159 46.6348 7.41485 46.6391 7.62795L46.7925 18.2656C46.7968 18.4915 46.9715 18.6748 47.1932 18.6918L48.7189 18.8112C48.8383 18.824 48.9576 18.7813 49.0471 18.6961C49.1366 18.6151 49.1877 18.5 49.1877 18.3765V14.9456L49.9634 14.903L50.8243 18.5768C50.8626 18.7856 51.0459 18.9305 51.2505 18.9305C51.2633 18.9305 51.2718 18.9305 51.2846 18.9305L52.8103 18.8112C52.9339 18.8026 53.0447 18.743 53.1215 18.645C53.1982 18.5469 53.228 18.4233 53.2067 18.304L52.1242 14.2168C52.8785 13.633 53.5817 12.5845 53.4283 10.4664ZM50.6751 11.9666C50.283 12.3885 49.6097 12.5163 49.1835 12.5504V9.41368C49.3198 9.38385 49.4647 9.3668 49.6011 9.3668C50.185 9.3668 50.8968 9.62678 50.9905 10.8755C51.0289 11.3401 50.9266 11.6981 50.6751 11.9666ZM59.2415 13.5818C59.8723 12.7507 61.4663 10.8244 61.3 7.45321C61.2958 7.33814 61.2404 7.22733 61.1551 7.15061C61.0699 7.0739 60.9548 7.03128 60.8355 7.0398L59.0242 7.15914C58.7855 7.17618 58.6023 7.38076 58.6193 7.62368C58.6832 8.57835 58.0525 10.6155 57.1447 11.8984L57.2768 7.75154C57.2811 7.63221 57.2342 7.51714 57.149 7.43616C57.0637 7.35092 56.9529 7.30404 56.8336 7.3083L54.4981 7.3424C54.383 7.3424 54.2722 7.39354 54.1912 7.47452C54.1102 7.55976 54.0676 7.67057 54.0719 7.78564L54.3063 18.7941C54.3105 18.9177 54.3617 19.0328 54.4597 19.1138C54.5535 19.1947 54.6813 19.2331 54.8006 19.216L56.6205 18.9731C56.8336 18.9433 56.9955 18.7643 56.9998 18.5469L57.0296 15.3207C57.4004 15.5423 58.4829 17.1107 58.6662 18.662C58.6918 18.8836 58.8793 19.0498 59.1009 19.0456L61.0188 19.037C61.0273 19.037 61.0358 19.037 61.0443 19.037C61.1509 19.0285 61.2532 18.9859 61.3256 18.9049C61.4066 18.8197 61.4535 18.7089 61.4492 18.5895C61.4322 18.206 60.7801 14.822 59.2415 13.5818ZM64.6712 6.81392L62.5957 7.08242C62.3783 7.10799 62.2164 7.29552 62.2164 7.51287L62.1993 18.2997C62.1993 18.4191 62.2504 18.5384 62.3399 18.6194C62.4252 18.7004 62.5403 18.743 62.6553 18.7345C62.6596 18.7345 62.6639 18.7345 62.6681 18.7345L64.9269 18.5682C65.1571 18.5512 65.3318 18.3594 65.3318 18.1293L65.1698 7.24438C65.1656 7.12078 65.1144 7.00145 65.0207 6.92047C64.9227 6.83523 64.7948 6.79688 64.6712 6.81392ZM69.0865 7.1293C68.4558 7.17192 66.393 7.53845 66.2225 10.5814C66.2012 10.9693 66.1799 11.3358 66.1586 11.6853C66.035 13.7523 65.9455 15.2482 66.2097 16.5438C66.3717 17.3195 67.0152 19.1138 69.5766 19.1138C69.7343 19.1138 69.9006 19.1052 70.0668 19.0925C71.1365 19.003 71.9292 18.662 72.4193 18.0739C73.1226 17.2385 73.0288 16.1688 72.9776 15.5934L72.9691 15.4784C72.9521 15.244 72.7518 15.0692 72.5174 15.0777L70.9021 15.1502C70.7785 15.1545 70.6634 15.2141 70.5825 15.3121C70.5057 15.4102 70.4716 15.5338 70.4887 15.6574C70.5228 15.8747 70.5611 16.5651 70.2799 16.9061C70.2074 16.9913 70.0753 17.1107 69.7727 17.1149H69.7514C69.517 17.1149 69.3422 17.0467 69.2059 16.8976C68.9715 16.6504 68.7072 16.0409 68.7797 14.5621C68.7967 14.2168 68.8138 13.8162 68.8308 13.39C68.8734 12.2819 68.9246 11.0204 69.0269 10.232L69.0311 10.2064C69.1078 9.60547 69.2229 9.34975 69.7258 9.32844C70.0838 9.3114 70.3353 9.38385 70.4674 9.5458C70.6379 9.75037 70.6166 10.0956 70.5952 10.2107C70.5697 10.3385 70.6038 10.4706 70.6847 10.5687C70.7657 10.6709 70.8893 10.7306 71.0172 10.7306L72.9649 10.7562C73.195 10.7562 73.3953 10.5729 73.4038 10.3343C73.4081 10.2831 73.4379 9.0983 72.5429 8.16921C71.7886 7.38076 70.6208 7.02702 69.0865 7.1293ZM82.0299 18.1591C82.0001 18.0312 81.1605 14.7325 79.4515 13.1727C80.2868 12.3842 81.9958 10.8244 81.4247 7.27847C81.3864 7.04833 81.1775 6.89064 80.9474 6.91621L78.6971 7.16766C78.5778 7.18045 78.4712 7.24438 78.3988 7.33814C78.3263 7.4319 78.2965 7.55123 78.3178 7.67057C78.3221 7.70466 78.7823 10.2661 77.0392 11.8046L77.0818 7.43616C77.0818 7.31257 77.0307 7.19323 76.9369 7.108C76.8432 7.02702 76.7196 6.9844 76.596 7.00145L74.3457 7.2529C74.1198 7.27847 73.9536 7.47026 73.9579 7.69614L74.2221 18.6322C74.2264 18.7515 74.2775 18.8708 74.3713 18.9475C74.4565 19.02 74.5631 19.0584 74.6739 19.0541C74.6867 19.0541 74.6952 19.0541 74.708 19.0498L76.6088 18.8367C76.8219 18.8112 76.9838 18.6407 76.9966 18.4276L77.1543 15.0096C77.751 15.6318 78.761 17.2215 78.923 18.5555C78.9528 18.7941 79.1659 18.9603 79.4046 18.9348L81.6506 18.6833C81.7742 18.6705 81.885 18.6023 81.9575 18.5043C82.0342 18.4063 82.0555 18.2784 82.0299 18.1591Z" fill="#3D4656"/>
<path d="M102.802 14.0295L103.391 9.9253L100.931 4.77693L99.2608 5.34802L97.0829 3.0125L93.2344 0.915649L92.3906 4.02683L91.7939 2.39453L88.8362 5.2841L87.1825 8.17366L87.1101 11.1698L85.9466 10.6157L86.7393 15.4146L88.5421 18.5045L92.7912 19.9621L96.2732 20.0899L102.274 17.8951L104 13.6246L102.802 14.0295ZM100.207 11.7494L96.8059 11.8432L96.6823 15.6703L96.4991 17.9377L93.5328 17.9078V15.7343L93.2898 11.9369L89.7354 12.0903L89.6118 8.41659L94.8497 8.38676L100.271 8.23333L100.365 8.72345L100.207 11.7494Z" fill="#3D4656"/>
</svg>
