<svg width="84" height="30" viewBox="0 0 84 30" fill="none" xmlns="http://www.w3.org/2000/svg">
<path d="M0.675119 25.4675H1.3034L0.719575 27.906C0.632931 28.2677 0.649262 28.5401 0.769021 28.7218C0.888326 28.9037 1.11038 28.9947 1.43495 28.9947C1.75749 28.9947 2.02195 28.9037 2.22858 28.7218C2.43544 28.5401 2.58219 28.2677 2.66883 27.906L3.25243 25.4675H3.88888L3.29076 27.9663C3.1608 28.5093 2.92922 28.9157 2.59761 29.1852C2.26578 29.4551 1.83075 29.5898 1.29251 29.5898C0.753824 29.5898 0.38434 29.4553 0.183154 29.1866C-0.0182586 28.918 -0.0534152 28.5111 0.0770042 27.9663L0.675119 25.4675Z" fill="#696A6A"/>
<path d="M3.80444 29.4828L4.8038 25.3083L6.7027 27.7631C6.75351 27.8323 6.80477 27.9065 6.85535 27.9852C6.90593 28.0639 6.95764 28.1523 7.01072 28.2512L7.67733 25.4673H8.26547L7.2668 29.6387L5.32797 27.1401C5.27603 27.0727 5.22772 27.0015 5.18258 26.9264C5.13699 26.8513 5.09594 26.7726 5.05828 26.6905L4.38986 29.4828H3.80444Z" fill="#696A6A"/>
<path d="M8.21338 29.4824L9.17463 25.4669H9.81062L8.8496 29.4824H8.21338Z" fill="#696A6A"/>
<path d="M9.76416 29.4824L10.7254 25.4669H12.9096L12.777 26.0208H11.2289L10.9892 27.0219H12.5372L12.4002 27.5951H10.852L10.4004 29.4824H9.76416Z" fill="#696A6A"/>
<path d="M12.6492 29.4824L13.6104 25.4669H14.2464L13.2854 29.4824H12.6492Z" fill="#696A6A"/>
<path d="M14.2 29.4824L15.1612 25.4669H17.3454L17.2128 26.0208H15.6647L15.4236 27.0274H16.9716L16.8346 27.6008H15.2866L14.9759 28.8981H16.5239L16.3842 29.4824H14.2Z" fill="#696A6A"/>
<path d="M17.8918 28.8934H18.4266C18.7206 28.8934 18.946 28.8733 19.1028 28.8331C19.2595 28.793 19.4033 28.7252 19.5351 28.6301C19.714 28.5006 19.8635 28.3391 19.9837 28.1461C20.1037 27.9533 20.1947 27.7285 20.2559 27.4724C20.3169 27.2164 20.3337 26.9923 20.306 26.7997C20.2781 26.6065 20.206 26.4452 20.0892 26.3152C20.0014 26.2204 19.8855 26.1524 19.7408 26.112C19.5959 26.0721 19.36 26.0519 19.032 26.0519H18.802H18.572L17.8918 28.8934ZM17.1145 29.4834L18.0757 25.4676H18.9338C19.4918 25.4676 19.8774 25.4962 20.091 25.5538C20.3042 25.6116 20.4805 25.7083 20.619 25.8434C20.803 26.0208 20.92 26.2485 20.9704 26.5262C21.0205 26.8042 21.0028 27.1216 20.9175 27.4781C20.8322 27.8347 20.6982 28.1506 20.5154 28.4258C20.333 28.7011 20.1069 28.9282 19.8379 29.1073C19.6344 29.2427 19.4162 29.3391 19.1844 29.397C18.9519 29.4544 18.6054 29.4834 18.1436 29.4834H17.9723H17.1145Z" fill="#696A6A"/>
<path d="M24.0151 27.1465H24.1784C24.5311 27.1465 24.7759 27.1068 24.9124 27.0283C25.0492 26.9499 25.141 26.8108 25.1887 26.6114C25.2399 26.3976 25.2134 26.2465 25.1086 26.159C25.0038 26.0712 24.7834 26.0269 24.4465 26.0269H24.2832L24.0151 27.1465ZM23.8471 27.6809L23.4157 29.4834H22.8196L23.7811 25.4678H24.7434C25.0285 25.4678 25.2347 25.4837 25.3617 25.5157C25.4883 25.5475 25.5929 25.6003 25.6754 25.6736C25.7759 25.7668 25.8419 25.8924 25.8737 26.0505C25.9052 26.2089 25.8984 26.383 25.853 26.5729C25.8072 26.7632 25.7305 26.9387 25.6226 27.0998C25.5146 27.2606 25.388 27.3869 25.2433 27.4781C25.1258 27.5514 24.9963 27.6035 24.8543 27.6344C24.7121 27.6657 24.4987 27.6809 24.2136 27.6809H24.0882H23.8471Z" fill="#696A6A"/>
<path d="M26.6387 27.9054H27.7294L27.5473 26.989C27.5387 26.9307 27.5305 26.8636 27.5235 26.7876C27.5169 26.7116 27.5124 26.627 27.5094 26.5338C27.4672 26.6216 27.4248 26.7035 27.3824 26.7795C27.3402 26.8552 27.2992 26.9251 27.2588 26.989L26.6387 27.9054ZM28.0204 29.4824L27.8238 28.4484H26.273L25.5711 29.4824H24.9031L27.7975 25.3079L28.6914 29.4824H28.0204Z" fill="#696A6A"/>
<path d="M29.6033 29.4824L30.0429 27.6445L29.2463 25.4669H29.9148L30.4092 26.83C30.4206 26.865 30.4342 26.9106 30.4498 26.9673C30.4657 27.024 30.4811 27.085 30.4956 27.151C30.5356 27.087 30.5766 27.0262 30.6177 26.9698C30.6587 26.913 30.7002 26.8611 30.7422 26.8135L31.9064 25.4669H32.5429L30.6739 27.6445L30.2341 29.4824H29.6033Z" fill="#696A6A"/>
<path d="M35.6735 27.4993C35.6738 27.4682 35.6828 27.3825 35.7005 27.2416C35.7141 27.1246 35.7248 27.0275 35.7325 26.9506C35.6946 27.0423 35.65 27.1339 35.5987 27.2251C35.5472 27.3165 35.4882 27.4097 35.4209 27.505L33.8846 29.6445L33.3834 27.4612C33.3621 27.3714 33.3457 27.2845 33.3348 27.2006C33.324 27.1164 33.3165 27.0332 33.3128 26.9506C33.2911 27.035 33.2634 27.123 33.2296 27.2156C33.1958 27.3079 33.1554 27.4045 33.108 27.505L32.2148 29.4826H31.6296L33.5564 25.2967L34.1049 27.8314C34.1128 27.8715 34.1244 27.9384 34.1385 28.0316C34.1525 28.1249 34.1691 28.2401 34.1884 28.3771C34.2532 28.2619 34.3467 28.1158 34.4696 27.9384C34.5023 27.8908 34.5272 27.8543 34.544 27.8286L36.2785 25.2967L36.2229 29.4826H35.6318L35.6735 27.4993Z" fill="#696A6A"/>
<path d="M36.731 29.4824L37.6924 25.4669H39.8767L39.744 26.0208H38.1957L37.9549 27.0274H39.5029L39.3659 27.6008H37.8176L37.5071 28.8981H39.0551L38.915 29.4824H36.731Z" fill="#696A6A"/>
<path d="M39.6458 29.4828L40.6451 25.3083L42.544 27.7631C42.5948 27.8323 42.6461 27.9065 42.6967 27.9852C42.7472 28.0639 42.799 28.1523 42.852 28.2512L43.5186 25.4673H44.107L43.1081 29.6387L41.1693 27.1401C41.1173 27.0727 41.069 27.0015 41.0239 26.9264C40.9783 26.8513 40.9372 26.7726 40.8996 26.6905L40.2312 29.4828H39.6458Z" fill="#696A6A"/>
<path d="M46.1368 26.0217L45.3083 29.4834H44.6721L45.5004 26.0217H44.4604L44.5931 25.4678H47.304L47.1716 26.0217H46.1368Z" fill="#696A6A"/>
<path d="M46.7973 28.6792L47.3629 28.4381C47.3686 28.617 47.424 28.7538 47.5296 28.8479C47.6353 28.9423 47.788 28.9892 47.988 28.9892C48.1768 28.9892 48.3401 28.9353 48.4771 28.8273C48.6143 28.7195 48.7048 28.5751 48.7481 28.3941C48.8046 28.158 48.6637 27.9477 48.3269 27.7633C48.2797 27.7358 48.2434 27.7157 48.2185 27.7027C47.8386 27.487 47.5977 27.2917 47.4961 27.1171C47.3947 26.9424 47.3738 26.729 47.4342 26.4768C47.5124 26.1495 47.6843 25.8843 47.9495 25.6813C48.2146 25.4783 48.5227 25.3767 48.874 25.3767C49.1627 25.3767 49.3907 25.4339 49.5574 25.5482C49.7243 25.6627 49.8196 25.8267 49.8432 26.0406L49.2832 26.304C49.2346 26.1778 49.1707 26.0855 49.0913 26.0268C49.0117 25.9683 48.911 25.939 48.7901 25.939C48.619 25.939 48.4721 25.9851 48.3494 26.076C48.2273 26.1676 48.1473 26.2901 48.1103 26.4439C48.0527 26.6852 48.2199 26.91 48.612 27.1185C48.6422 27.1348 48.6658 27.1479 48.6828 27.157C49.026 27.3396 49.2491 27.5186 49.3514 27.6932C49.454 27.8681 49.4741 28.0861 49.4113 28.3473C49.3204 28.7279 49.1314 29.0301 48.8443 29.2539C48.5571 29.4778 48.2146 29.5898 47.8175 29.5898C47.4838 29.5898 47.2296 29.5114 47.0545 29.354C46.8789 29.1968 46.7932 28.972 46.7973 28.6792Z" fill="#696A6A"/>
<path d="M51.4978 29.4824L52.4591 25.4669H53.0953L52.134 29.4824H51.4978Z" fill="#696A6A"/>
<path d="M53.0483 29.4828L54.0477 25.3083L55.9466 27.7631C55.9974 27.8323 56.0487 27.9065 56.0992 27.9852C56.1498 28.0639 56.2015 28.1523 56.2546 28.2512L56.9212 25.4673H57.5094L56.5107 29.6387L54.5719 27.1401C54.5199 27.0727 54.4714 27.0015 54.4262 26.9264C54.3809 26.8513 54.3396 26.7726 54.302 26.6905L53.6338 29.4828H53.0483Z" fill="#696A6A"/>
<path d="M59.5397 26.0217L58.7109 29.4834H58.0749L58.9032 26.0217H57.8633L57.996 25.4678H60.7069L60.5744 26.0217H59.5397Z" fill="#696A6A"/>
<path d="M60.2329 29.4824L61.1942 25.4669H63.3784L63.2459 26.0208H61.6979L61.4568 27.0274H63.0048L62.8676 27.6008H61.3196L61.0091 28.8981H62.5571L62.4172 29.4824H60.2329Z" fill="#696A6A"/>
<path d="M64.3343 27.1782H64.4495C64.7861 27.1782 65.0195 27.1383 65.1493 27.0578C65.279 26.9772 65.3688 26.8348 65.4174 26.6298C65.4704 26.4086 65.4487 26.2526 65.3514 26.1623C65.255 26.0713 65.0461 26.0262 64.7254 26.0262H64.6101L64.3343 27.1782ZM64.1728 27.6856L63.7426 29.4824H63.1465L64.108 25.4669H64.9955C65.2557 25.4669 65.4534 25.4841 65.5884 25.519C65.7236 25.5537 65.8324 25.6111 65.9148 25.6919C66.0128 25.7885 66.0763 25.9141 66.1058 26.0677C66.1346 26.221 66.1271 26.3893 66.0835 26.5719C66.0066 26.8938 65.8705 27.1458 65.6755 27.3279C65.4804 27.5096 65.2305 27.6191 64.9259 27.6554L65.8363 29.4824H65.1168L64.245 27.6856H64.1728Z" fill="#696A6A"/>
<path d="M66.2136 29.4824L67.1749 25.4669H69.3591L69.2267 26.0208H67.6784L67.4387 27.0219H68.9869L68.8497 27.5951H67.3017L66.8498 29.4824H66.2136Z" fill="#696A6A"/>
<path d="M70.0967 27.9054H71.1877L71.0055 26.989C70.9967 26.9307 70.9888 26.8636 70.9817 26.7876C70.9751 26.7116 70.9706 26.627 70.9677 26.5338C70.9252 26.6216 70.8828 26.7035 70.8406 26.7795C70.7985 26.8552 70.7572 26.9251 70.7168 26.989L70.0967 27.9054ZM71.4787 29.4824L71.282 28.4484H69.7313L69.0293 29.4824H68.3611L71.2555 25.3079L72.1496 29.4824H71.4787Z" fill="#696A6A"/>
<path d="M76.291 26.4439C76.1488 26.2867 75.9868 26.1688 75.8049 26.0901C75.6235 26.0118 75.422 25.9721 75.2009 25.9721C74.7734 25.9721 74.3914 26.113 74.0559 26.3945C73.72 26.6762 73.4986 27.0409 73.3914 27.4891C73.2877 27.9225 73.3328 28.2798 73.5265 28.5612C73.7202 28.8429 74.016 28.984 74.4132 28.984C74.6452 28.984 74.8756 28.9418 75.1052 28.8577C75.3347 28.7735 75.5663 28.6465 75.7992 28.4762L75.6226 29.2142C75.4214 29.3403 75.2125 29.4347 74.9963 29.4966C74.7799 29.5588 74.5542 29.5898 74.319 29.5898C74.0196 29.5898 73.7547 29.5397 73.525 29.439C73.295 29.3385 73.1069 29.1906 72.9615 28.9947C72.8168 28.8028 72.7241 28.5767 72.6844 28.3158C72.644 28.0554 72.6592 27.7778 72.7295 27.4832C72.8001 27.189 72.9178 26.9125 73.0822 26.6537C73.2464 26.3949 73.4494 26.1676 73.6903 25.9721C73.9321 25.7746 74.1907 25.6253 74.466 25.5235C74.7416 25.4223 75.0258 25.3713 75.3182 25.3713C75.5482 25.3713 75.7591 25.4058 75.9512 25.4745C76.1433 25.5428 76.3207 25.6464 76.4838 25.7859L76.291 26.4439Z" fill="#696A6A"/>
<path d="M76.3523 29.4824L77.3135 25.4669H79.4978L79.3651 26.0208H77.8173L77.5762 27.0274H79.1242L78.987 27.6008H77.439L77.1285 28.8981H78.6765L78.5365 29.4824H76.3523Z" fill="#696A6A"/>
<path d="M64.7477 21.9688H60.374L66.4568 0.000450134H70.8307L64.7477 21.9688Z" fill="#66686C"/>
<path d="M62.477 0.694742C62.1737 0.276718 61.706 0.0657787 61.0707 0.0657787H37.02L35.8288 4.36849H40.205V4.36599H57.7082L56.4348 8.96401H38.9312L38.9328 8.95449H34.5584L30.9277 22.0615H35.3044L37.7408 13.2642H57.4163C58.0307 13.2642 58.6091 13.0546 59.153 12.6355C59.6958 12.2159 60.053 11.6985 60.2242 11.0807L62.6605 2.28155C62.8383 1.64306 62.7768 1.11322 62.477 0.694742Z" fill="#66686C"/>
<path d="M28.3789 20.5968C28.1374 21.4666 27.3453 22.0684 26.4424 22.0684H3.87618C3.26128 22.0684 2.80425 21.8588 2.50372 21.4401C2.20341 21.0209 2.139 20.5024 2.3107 19.8848L7.81689 0.0639973H12.1947L7.27661 17.767H24.7882L29.7063 0.0639973H34.0831L28.3789 20.5968Z" fill="#66686C"/>
<path d="M78.3847 0.041193L83.9222 11.0538L72.2815 22.0635L78.3847 0.041193Z" fill="#27803B"/>
<path d="M74.5026 0.041193L80.0361 11.0538L68.3906 22.0635L74.5026 0.041193Z" fill="#E9661C"/>
</svg>
