<svg width="160" height="85" viewBox="0 0 160 85" fill="none" xmlns="http://www.w3.org/2000/svg">
<path d="M73.9023 57.0734H66.4192L71.0961 28.7982H78.58L73.9023 57.0734ZM60.124 28.7982L52.9899 48.2461L52.1457 44.0582L52.1465 44.0597L49.6285 31.3441C49.6285 31.3441 49.324 28.7982 46.0788 28.7982H34.2848L34.1464 29.277C34.1464 29.277 37.753 30.0152 41.9739 32.5088L48.4752 57.0742H56.2721L68.1776 28.7982H60.124ZM118.983 57.0734H125.854L119.863 28.7975H113.847C111.07 28.7975 110.393 30.9046 110.393 30.9046L99.2326 57.0734H107.033L108.593 52.8734H118.106L118.983 57.0734ZM110.748 47.0715L114.68 36.4902L116.892 47.0715H110.748ZM99.8177 35.5977L100.886 29.5258C100.886 29.5258 97.5903 28.293 94.1552 28.293C90.4417 28.293 81.623 29.8896 81.623 37.6535C81.623 44.9583 91.9732 45.049 91.9732 48.886C91.9732 52.7229 82.6894 52.0354 79.6256 49.6159L78.5131 55.9646C78.5131 55.9646 81.8545 57.5613 86.9596 57.5613C92.0662 57.5613 99.77 54.9602 99.77 47.8808C99.77 40.5291 89.3268 39.8446 89.3268 36.6483C89.3276 33.4512 96.6154 33.8619 99.8177 35.5977Z" fill="url(#paint0_linear_1617_77697)"/>
<defs>
<linearGradient id="paint0_linear_1617_77697" x1="34.1464" y1="28.293" x2="125.575" y2="58.4068" gradientUnits="userSpaceOnUse">
<stop stop-color="#20225F"/>
<stop offset="0.293427" stop-color="#18216C"/>
<stop offset="1" stop-color="#0E2C9A"/>
</linearGradient>
</defs>
</svg>
