<svg width="70" height="22" viewBox="0 0 70 22" fill="none" xmlns="http://www.w3.org/2000/svg">
<path d="M30.3457 21.2573H24.6338L28.2036 0.37317H33.9161L30.3457 21.2573ZM19.8286 0.37317L14.3832 14.7374L13.7388 11.6443L13.7394 11.6454L11.8175 2.25355C11.8175 2.25355 11.5851 0.37317 9.10798 0.37317H0.105634L0 0.726788C0 0.726788 2.75293 1.27202 5.97477 3.11385L10.9372 21.2579H16.8885L25.9759 0.37317H19.8286ZM64.7553 21.2573H70L65.4272 0.372612H60.8357C58.7154 0.372612 58.1989 1.92898 58.1989 1.92898L49.6802 21.2573H55.6344L56.8251 18.1552H64.0863L64.7553 21.2573ZM58.4701 13.8699L61.4712 6.05453L63.1596 13.8699H58.4701ZM50.1268 5.39533L50.9419 0.91058C50.9419 0.91058 48.4266 0 45.8046 0C42.9701 0 36.2388 1.17929 36.2388 6.91371C36.2388 12.309 44.1391 12.3761 44.1391 15.2101C44.1391 18.044 37.0528 17.5362 34.7142 15.7491L33.865 20.4384C33.865 20.4384 36.4155 21.6176 40.3122 21.6176C44.2101 21.6176 50.0904 19.6965 50.0904 14.4676C50.0904 9.03766 42.1191 8.53209 42.1191 6.17128C42.1197 3.80992 47.6825 4.11326 50.1268 5.39533Z" fill="white"/>
</svg>
