<svg width="160" height="86" viewBox="0 0 160 86" fill="none" xmlns="http://www.w3.org/2000/svg">
<path fill-rule="evenodd" clip-rule="evenodd" d="M108.128 36.9355C108.39 37.0227 108.575 37.2325 108.759 37.4284C111.348 40.1538 113.955 42.8604 116.539 45.5898C116.544 42.8587 116.532 40.128 116.544 37.3969C117.245 37.3949 117.944 37.4072 118.645 37.3846C118.711 37.6309 118.739 37.8825 118.732 38.1377C118.718 42.2906 118.737 46.4439 118.723 50.5972C118.671 50.622 118.568 50.6688 118.517 50.6933C115.734 47.8628 113.04 44.9431 110.261 42.1093C110.235 44.8315 110.293 47.5572 110.233 50.281C109.527 50.2498 108.821 50.2654 108.117 50.2687C108.119 45.8238 108.1 41.3788 108.128 36.9355Z" fill="#FFFFFE"/>
<path fill-rule="evenodd" clip-rule="evenodd" d="M52.6367 37.2693C54.2667 36.6754 56.0211 37.1016 57.6093 37.6133C57.6285 38.6252 57.6183 39.6351 57.6183 40.6467C56.6432 40.0527 55.5879 39.4585 54.4189 39.4253C53.8283 39.3869 53.1034 39.7488 53.0928 40.411C53.0527 40.8949 53.4388 41.2651 53.8057 41.5134C55.221 42.3993 56.8669 43.0231 57.9553 44.3439C59.2798 46.1575 58.5775 49.0563 56.5749 50.0765C54.7281 51.0569 52.5283 50.6565 50.6239 50.0646C50.5138 48.9254 50.4423 47.7842 50.3968 46.6414C51.4992 47.3298 52.7206 47.9728 54.0556 47.9503C54.6234 47.9119 55.2926 47.7388 55.572 47.1883C55.864 46.6938 55.6419 46.0402 55.207 45.7084C53.9595 44.7108 52.3447 44.2252 51.2477 43.0334C50.5364 42.2906 50.1764 41.2373 50.2762 40.2151C50.3495 38.8609 51.37 37.6849 52.6367 37.2693Z" fill="#FFFFFE"/>
<path fill-rule="evenodd" clip-rule="evenodd" d="M99.5645 41.6426C98.9042 43.1295 98.2771 44.6319 97.5921 46.1071C98.9778 46.1698 100.369 46.121 101.756 46.1297C101.09 44.557 100.398 42.9949 99.7342 41.4205C99.6921 41.4766 99.6066 41.5866 99.5645 41.6426ZM99.0458 38.4187C99.3026 37.9106 99.4843 37.3617 99.8286 36.9023C101.899 41.337 103.894 45.8062 105.923 50.2621C105.149 50.267 104.373 50.2548 103.599 50.274C103.235 49.5176 102.9 48.7487 102.567 47.9798C100.63 47.9695 98.6944 47.9764 96.7585 47.9764C96.4161 48.7434 96.0807 49.514 95.7085 50.2687C94.9554 50.2584 94.2041 50.2654 93.4527 50.2621C95.3363 46.3252 97.1744 42.3642 99.0458 38.4187Z" fill="#FFFFFE"/>
<path fill-rule="evenodd" clip-rule="evenodd" d="M25.8757 37.3973C27.0798 37.3904 28.2819 37.4096 29.4837 37.3867C30.422 38.7287 31.2695 40.1301 32.1956 41.4807C33.1637 40.1088 34.1405 38.741 35.1414 37.3937C36.2004 37.4043 37.259 37.3884 38.3179 37.4026C36.7141 39.6531 34.986 41.8214 33.4222 44.0944C33.3944 46.1477 33.4153 48.2043 33.4133 50.2589C32.4087 50.2658 31.4041 50.2625 30.3995 50.2609C30.3836 48.2215 30.4326 46.1772 30.3766 44.1398C28.9057 41.8754 27.342 39.6687 25.8757 37.3973Z" fill="#FFFFFE"/>
<path fill-rule="evenodd" clip-rule="evenodd" d="M39.6354 50.265C39.6424 45.9755 39.6268 41.684 39.6444 37.3945C42.2528 37.4018 44.8616 37.3965 47.47 37.3982C47.477 38.2735 47.4614 39.1505 47.4826 40.0258C45.8523 40.0908 44.2116 39.9685 42.578 40.0819C42.5816 40.8541 42.576 41.6267 42.5849 42.397C43.9826 42.392 45.3823 42.3797 46.78 42.4059C46.7624 43.2743 46.7747 44.1443 46.773 45.0163C45.3733 45.0147 43.9757 45.0163 42.578 45.0127C42.5829 45.8585 42.5796 46.7057 42.5796 47.5515C44.2292 47.5532 45.8785 47.5376 47.5277 47.5568C47.5313 48.46 47.5383 49.3635 47.5244 50.2683C44.8947 50.2597 42.2651 50.2634 39.6354 50.265Z" fill="#FFFFFE"/>
<path fill-rule="evenodd" clip-rule="evenodd" d="M85.8136 44.4662C85.8189 45.8012 85.8156 47.1376 85.8172 48.4727C86.794 48.4379 87.8387 48.6158 88.7578 48.1946C89.9844 47.6341 90.1485 45.6773 89.067 44.8994C88.1148 44.2408 86.8954 44.5255 85.8136 44.4662ZM85.8119 39.1177C85.8189 40.3268 85.8156 41.5376 85.8156 42.7487C86.7731 42.7225 87.8317 42.8955 88.6915 42.3659C89.7136 41.7928 89.8343 40.007 88.7525 39.4359C87.8457 38.9799 86.7903 39.1459 85.8119 39.1177ZM83.6731 37.3969C85.2999 37.4334 86.9319 37.3147 88.5516 37.4877C89.6 37.61 90.7408 38.0276 91.2896 38.9938C91.875 40.0614 91.8836 41.5273 91.0782 42.4882C90.7269 42.9233 90.2062 43.1557 89.7186 43.4019C90.6553 43.6591 91.4888 44.3386 91.7891 45.2802C92.1441 46.4389 92.0463 47.8121 91.2983 48.7995C90.4667 49.8617 89.0498 50.1623 87.7741 50.2445C86.4042 50.2827 85.036 50.2548 83.6678 50.2654C83.6788 45.9759 83.6645 41.6864 83.6731 37.3969Z" fill="#FFFFFE"/>
<mask id="mask0_1617_77701" style="mask-type:alpha" maskUnits="userSpaceOnUse" x="19" y="21" width="122" height="44">
<path d="M19.5122 21.3672H140.488V64.8591H19.5122V21.3672Z" fill="white"/>
</mask>
<g mask="url(#mask0_1617_77701)">
<path fill-rule="evenodd" clip-rule="evenodd" d="M122.781 50.2661C122.786 45.9749 122.749 41.6818 122.798 37.3906C123.518 37.4012 124.238 37.3976 124.958 37.3939C124.987 39.316 124.958 41.238 124.968 43.16C126.78 41.238 128.587 39.3126 130.407 37.3992C131.262 37.3939 132.118 37.3976 132.974 37.3959C131.052 39.4681 129.104 41.5174 127.166 43.5776C129.312 45.7966 131.433 48.0401 133.582 50.2538C132.626 50.2731 131.672 50.2555 130.717 50.2677C128.807 48.2569 126.89 46.2527 124.972 44.2521C124.961 46.2543 124.975 48.2569 124.966 50.2611C124.238 50.2661 123.509 50.2591 122.781 50.2661Z" fill="#FFFFFE"/>
<path fill-rule="evenodd" clip-rule="evenodd" d="M84.1414 23.8397C84.7671 23.0184 85.3419 22.1554 86.013 21.3672C79.4641 32.9411 72.9626 44.5445 66.4279 56.127C64.7992 59.0486 63.1307 61.9491 61.5196 64.879C61.3781 64.8041 61.2508 64.71 61.1388 64.5963C58.8396 62.253 56.5278 59.924 54.2249 57.5843C55.8602 57.5668 57.4939 57.5827 59.1296 57.5757C67.4673 46.3319 75.8053 35.0868 84.1414 23.8397Z" fill="#B12B2B"/>
<path fill-rule="evenodd" clip-rule="evenodd" d="M39.6355 50.2655C42.2652 50.2639 44.8948 50.2602 47.5245 50.2688C47.5384 49.364 47.5314 48.4605 47.5278 47.5573C45.8785 47.5381 44.2293 47.5537 42.5797 47.552C42.5797 46.7062 42.583 45.859 42.578 45.0132C43.9757 45.0168 45.3734 45.0152 46.7731 45.0168C46.7747 44.1448 46.7625 43.2748 46.78 42.4064C45.3824 42.3802 43.9827 42.3925 42.585 42.3975C42.576 41.6272 42.5817 40.8546 42.578 40.0823C44.2117 39.969 45.8523 40.0913 47.4827 40.0263C47.4615 39.151 47.4771 38.274 47.4701 37.3987C44.8617 37.397 42.2529 37.4023 39.6445 37.395C39.6269 41.6845 39.6425 45.976 39.6355 50.2655ZM25.8758 37.3987C27.3421 39.67 28.9058 41.8768 30.3767 44.1412C30.4327 46.1785 30.3837 48.2229 30.3996 50.2622C31.4042 50.2639 32.4088 50.2672 33.4134 50.2602C33.4154 48.2056 33.3945 46.149 33.4223 44.0958C34.9861 41.8227 36.7142 39.6545 38.318 37.404C37.2591 37.3897 36.2005 37.4056 35.1415 37.395C34.1406 38.7423 33.1638 40.1102 32.1957 41.482C31.2696 40.1314 30.4221 38.7301 29.4838 37.3881C28.282 37.4109 27.0799 37.3917 25.8758 37.3987ZM52.6369 37.2694C51.3702 37.685 50.3497 38.861 50.2764 40.2153C50.1766 41.2374 50.5366 42.2907 51.2479 43.0335C52.3449 44.2253 53.9597 44.7109 55.2072 45.7085C55.6421 46.0403 55.8642 46.6939 55.5722 47.1884C55.2928 47.7389 54.6236 47.912 54.0558 47.9504C52.7208 47.9729 51.4994 47.3299 50.397 46.6415C50.4425 47.7844 50.514 48.9255 50.6241 50.0647C52.5285 50.6566 54.7283 51.057 56.5751 50.0766C58.5777 49.0564 59.28 46.1576 57.9555 44.344C56.8671 43.0232 55.2212 42.3994 53.8059 41.5135C53.439 41.2653 53.0529 40.895 53.093 40.4111C53.1036 39.7489 53.8284 39.387 54.4191 39.4254C55.5881 39.4586 56.6434 40.0528 57.6185 40.6468C57.6185 39.6352 57.6287 38.6253 57.6095 37.6134C56.0213 37.1017 54.2669 36.6755 52.6369 37.2694ZM19.5122 30.9478C39.0555 30.9197 58.5969 30.9495 78.1399 30.9336C71.6401 39.5179 65.1859 48.1373 58.6562 56.6991C45.6127 56.6882 32.5695 56.6918 19.5264 56.7041C19.4969 48.1181 19.5247 39.5338 19.5122 30.9478Z" fill="#19497D"/>
<path fill-rule="evenodd" clip-rule="evenodd" d="M122.781 50.2677C123.509 50.2607 124.238 50.2677 124.966 50.2627C124.975 48.2585 124.961 46.2559 124.972 44.2537C126.89 46.2543 128.807 48.2585 130.717 50.2693C131.672 50.2571 132.626 50.2746 133.582 50.2554C131.433 48.0417 129.312 45.7982 127.166 43.5792C129.104 41.519 131.052 39.4697 132.974 37.3972C132.118 37.3992 131.262 37.3955 130.407 37.4008C128.587 39.3142 126.78 41.2396 124.968 43.1616C124.958 41.2396 124.987 39.3176 124.958 37.3955C124.238 37.3992 123.518 37.4028 122.798 37.3922C122.749 41.6834 122.786 45.9765 122.781 50.2677ZM83.6733 37.3975C83.6646 41.687 83.6789 45.9765 83.668 50.2661C85.0361 50.2554 86.4043 50.2833 87.7742 50.2451C89.0499 50.163 90.4668 49.8623 91.2984 48.8001C92.0464 47.8127 92.1442 46.4396 91.7892 45.2808C91.489 44.3392 90.6554 43.6598 89.7187 43.4026C90.2063 43.1563 90.727 42.924 91.0783 42.4888C91.8837 41.5279 91.8751 40.062 91.2898 38.9944C90.7409 38.0283 89.6001 37.6106 88.5517 37.4883C86.932 37.3153 85.3 37.434 83.6733 37.3975ZM99.0458 38.4194C97.1745 42.3648 95.3363 46.3259 93.4527 50.2627C94.2041 50.266 94.9555 50.2591 95.7085 50.2693C96.0807 49.5147 96.4162 48.7441 96.7585 47.9771C98.6945 47.9771 100.63 47.9701 102.566 47.9804C102.9 48.7494 103.236 49.5183 103.599 50.2746C104.373 50.2554 105.149 50.2677 105.923 50.2627C103.894 45.8068 101.899 41.3377 99.8283 36.903C99.4843 37.3624 99.3027 37.9113 99.0458 38.4194ZM108.128 36.9362C108.1 41.3794 108.119 45.8244 108.118 50.2693C108.822 50.266 109.528 50.2505 110.234 50.2816C110.293 47.5578 110.235 44.8321 110.261 42.1099C113.04 44.9438 115.734 47.8634 118.517 50.6939C118.568 50.6694 118.671 50.6227 118.723 50.5978C118.737 46.4445 118.718 42.2912 118.732 38.1383C118.739 37.8831 118.711 37.6315 118.645 37.3853C117.944 37.4078 117.245 37.3955 116.545 37.3975C116.533 40.1283 116.545 42.8593 116.539 45.5904C113.955 42.861 111.348 40.1544 108.759 37.429C108.575 37.2331 108.39 37.0233 108.128 36.9362ZM77.074 38.4266C78.4839 35.9369 79.7997 33.3907 81.2518 30.9291C100.985 30.9414 120.72 30.95 140.454 30.9238C140.517 39.5151 140.472 48.11 140.477 56.7026C115.987 56.6874 91.4992 56.6996 67.0098 56.6976C70.3417 50.5945 73.7264 44.5208 77.074 38.4266Z" fill="#19497D"/>
</g>
<path fill-rule="evenodd" clip-rule="evenodd" d="M85.8121 39.1166C86.7905 39.1448 87.8459 38.9787 88.7527 39.4348C89.8345 40.0059 89.7139 41.7917 88.6917 42.3647C87.8319 42.8944 86.7733 42.7214 85.8158 42.7475C85.8158 41.5365 85.8191 40.3257 85.8121 39.1166Z" fill="#19497D"/>
<path fill-rule="evenodd" clip-rule="evenodd" d="M99.5649 41.642C99.607 41.586 99.6925 41.4759 99.7346 41.4199C100.399 42.9943 101.091 44.5563 101.756 46.129C100.369 46.1204 98.9783 46.1691 97.5925 46.1065C98.2776 44.6312 98.9047 43.1288 99.5649 41.642Z" fill="#19497D"/>
<path fill-rule="evenodd" clip-rule="evenodd" d="M85.8138 44.4651C86.8956 44.5244 88.115 44.2397 89.0672 44.8983C90.1487 45.6762 89.9846 47.633 88.758 48.1935C87.8389 48.6147 86.7942 48.4367 85.8174 48.4715C85.8158 47.1365 85.8191 45.8001 85.8138 44.4651Z" fill="#19497D"/>
</svg>
