<svg width="122" height="44" viewBox="0 0 122 44" fill="none" xmlns="http://www.w3.org/2000/svg">
<path fill-rule="evenodd" clip-rule="evenodd" d="M89.2534 15.75C89.5174 15.8382 89.704 16.0504 89.889 16.2486C92.4968 19.0059 95.1223 21.744 97.7252 24.5053C97.7305 21.7424 97.7185 18.9797 97.7305 16.2168C98.4362 16.2147 99.1399 16.2271 99.846 16.2043C99.9127 16.4535 99.9411 16.708 99.9338 16.9662C99.9197 21.1676 99.9391 25.3694 99.9251 29.5712C99.8723 29.5964 99.7685 29.6437 99.7174 29.6685C96.914 26.8049 94.2006 23.8511 91.4022 20.9842C91.3758 23.7381 91.4339 26.4957 91.3742 29.2513C90.6631 29.2198 89.9521 29.2356 89.243 29.2389C89.2447 24.7421 89.2253 20.2452 89.2534 15.75Z" fill="#FFFFFE"/>
<path fill-rule="evenodd" clip-rule="evenodd" d="M33.363 16.0881C35.0047 15.4872 36.7717 15.9184 38.3714 16.4362C38.3907 17.4599 38.3804 18.4816 38.3804 19.5049C37.3983 18.9041 36.3354 18.3028 35.158 18.2693C34.5631 18.2304 33.833 18.5966 33.8223 19.2665C33.7819 19.7561 34.1709 20.1306 34.5404 20.3818C35.9658 21.2781 37.6236 21.9091 38.7199 23.2453C40.0539 25.0802 39.3465 28.0128 37.3295 29.0449C35.4694 30.0368 33.2538 29.6317 31.3357 29.0328C31.2248 27.8804 31.1527 26.7259 31.107 25.5697C32.2173 26.2662 33.4475 26.9167 34.7921 26.8939C35.3639 26.855 36.0379 26.6799 36.3194 26.123C36.6135 25.6227 36.3898 24.9615 35.9518 24.6258C34.6953 23.6165 33.0689 23.1253 31.9639 21.9195C31.2475 21.1681 30.885 20.1025 30.9855 19.0684C31.0593 17.6983 32.0871 16.5086 33.363 16.0881Z" fill="#FFFFFE"/>
<path fill-rule="evenodd" clip-rule="evenodd" d="M80.6286 20.5124C79.9637 22.0166 79.3321 23.5366 78.642 25.0291C80.0378 25.0925 81.4385 25.0432 82.8359 25.0519C82.1652 23.4608 81.4682 21.8805 80.7996 20.2878C80.7572 20.3444 80.671 20.4558 80.6286 20.5124ZM80.1062 17.2509C80.3649 16.7368 80.5479 16.1815 80.8947 15.7168C82.9798 20.2033 84.9897 24.7246 87.0331 29.2326C86.2533 29.2376 85.4718 29.2252 84.6923 29.2446C84.3261 28.4795 83.9886 27.7015 83.6524 26.9236C81.7022 26.9132 79.7523 26.9202 77.8025 26.9202C77.4576 27.6962 77.1198 28.4758 76.7449 29.2393C75.9865 29.2289 75.2297 29.2359 74.4729 29.2326C76.37 25.2497 78.2214 21.2424 80.1062 17.2509Z" fill="#FFFFFE"/>
<path fill-rule="evenodd" clip-rule="evenodd" d="M6.40967 16.2187C7.62246 16.2117 8.83324 16.2311 10.0437 16.208C10.9888 17.5657 11.8423 18.9834 12.7751 20.3498C13.7502 18.9619 14.7339 17.5781 15.7421 16.215C16.8087 16.2258 17.8749 16.2097 18.9415 16.2241C17.3261 18.5009 15.5855 20.6945 14.0105 22.9941C13.9825 25.0713 14.0035 27.1519 14.0015 29.2305C12.9897 29.2376 11.9779 29.2342 10.9661 29.2325C10.95 27.1694 10.9994 25.1012 10.943 23.04C9.4615 20.7491 7.88651 18.5166 6.40967 16.2187Z" fill="#FFFFFE"/>
<path fill-rule="evenodd" clip-rule="evenodd" d="M20.2688 29.2357C20.2758 24.8961 20.2601 20.5545 20.2778 16.2148C22.905 16.2222 25.5326 16.2169 28.1598 16.2185C28.1668 17.1041 28.1511 17.9913 28.1725 18.8769C26.5304 18.9426 24.8779 18.8189 23.2325 18.9336C23.2362 19.7148 23.2305 20.4964 23.2395 21.2757C24.6473 21.2707 26.057 21.2583 27.4647 21.2848C27.447 22.1633 27.4594 23.0435 27.4577 23.9257C26.048 23.924 24.6402 23.9257 23.2325 23.922C23.2375 24.7777 23.2342 25.6348 23.2342 26.4905C24.8956 26.4922 26.5567 26.4764 28.2179 26.4959C28.2215 27.4096 28.2285 28.3236 28.2145 29.239C25.5659 29.2303 22.9174 29.234 20.2688 29.2357Z" fill="#FFFFFE"/>
<path fill-rule="evenodd" clip-rule="evenodd" d="M66.7786 23.3682C66.784 24.7188 66.7806 26.0708 66.7823 27.4214C67.7661 27.3862 68.8183 27.5663 69.744 27.1401C70.9795 26.5731 71.1447 24.5934 70.0554 23.8064C69.0964 23.1402 67.8682 23.4282 66.7786 23.3682ZM66.7769 17.9573C66.784 19.1805 66.7806 20.4054 66.7806 21.6306C67.745 21.6041 68.8113 21.7791 69.6772 21.2433C70.7067 20.6636 70.8283 18.8569 69.7386 18.2792C68.8253 17.8178 67.7624 17.9858 66.7769 17.9573ZM64.6228 16.2163C66.2612 16.2532 67.9049 16.1332 69.5364 16.3082C70.5922 16.4319 71.7413 16.8544 72.2941 17.8319C72.8836 18.9119 72.8923 20.395 72.0811 21.367C71.7272 21.8073 71.2028 22.0424 70.7117 22.2915C71.6551 22.5517 72.4947 23.2391 72.7972 24.1917C73.1547 25.364 73.0562 26.7532 72.3028 27.7521C71.4652 28.8267 70.0381 29.1309 68.7532 29.214C67.3735 29.2526 65.9955 29.2244 64.6174 29.2352C64.6284 24.8955 64.6141 20.5559 64.6228 16.2163Z" fill="#FFFFFE"/>
<mask id="mask0_1901_12027" style="mask-type:alpha" maskUnits="userSpaceOnUse" x="0" y="0" width="122" height="44">
<path d="M0 0H121.846V44H0V0Z" fill="white"/>
</mask>
<g mask="url(#mask0_1901_12027)">
<path fill-rule="evenodd" clip-rule="evenodd" d="M104.012 29.2368C104.017 24.8955 103.98 20.5522 104.029 16.2109C104.755 16.2217 105.48 16.218 106.205 16.2143C106.234 18.1588 106.205 20.1032 106.215 22.0477C108.04 20.1032 109.86 18.1554 111.693 16.2197C112.554 16.2143 113.416 16.218 114.279 16.2163C112.343 18.3127 110.38 20.3859 108.429 22.4702C110.59 24.7151 112.727 26.9849 114.891 29.2244C113.928 29.2439 112.967 29.2261 112.005 29.2385C110.081 27.2041 108.151 25.1765 106.219 23.1526C106.208 25.1782 106.222 27.2041 106.213 29.2318C105.48 29.2368 104.746 29.2298 104.012 29.2368Z" fill="#FFFFFE"/>
<path fill-rule="evenodd" clip-rule="evenodd" d="M65.0951 2.50143C65.7254 1.67053 66.3042 0.797372 66.9802 0C60.3842 11.7091 53.8359 23.448 47.2542 35.1659C45.6137 38.1216 43.9333 41.056 42.3105 44.0201C42.168 43.9443 42.0398 43.8491 41.927 43.7341C39.6112 41.3634 37.2828 39.0072 34.9634 36.6402C36.6105 36.6225 38.2559 36.6386 39.9033 36.6315C48.301 25.2564 56.6991 13.8799 65.0951 2.50143Z" fill="#B12B2B"/>
<path fill-rule="evenodd" clip-rule="evenodd" d="M20.2681 29.2355C22.9167 29.2338 25.5653 29.2301 28.2138 29.2388C28.2278 28.3234 28.2208 27.4094 28.2172 26.4957C26.556 26.4762 24.8949 26.492 23.2335 26.4903C23.2335 25.6346 23.2368 24.7775 23.2318 23.9218C24.6396 23.9255 26.0473 23.9238 27.457 23.9255C27.4587 23.0433 27.4464 22.1631 27.4641 21.2846C26.0563 21.2581 24.6466 21.2705 23.2388 21.2755C23.2298 20.4962 23.2355 19.7146 23.2318 18.9334C24.8772 18.8187 26.5297 18.9424 28.1718 18.8767C28.1504 17.9911 28.1661 17.1039 28.1591 16.2183C25.5319 16.2167 22.9043 16.222 20.2771 16.2146C20.2594 20.5543 20.2751 24.8959 20.2681 29.2355ZM6.40934 16.2183C7.88619 18.5162 9.46118 20.7487 10.9427 23.0396C10.9991 25.1008 10.9497 27.169 10.9657 29.2321C11.9776 29.2338 12.9894 29.2372 14.0012 29.2301C14.0032 27.1515 13.9822 25.0709 14.0102 22.9937C15.5852 20.6941 17.3258 18.5005 18.9412 16.2237C17.8746 16.2093 16.8083 16.2254 15.7418 16.2146C14.7336 17.5777 13.7498 18.9615 12.7747 20.3494C11.842 18.983 10.9884 17.5653 10.0434 16.2076C8.83292 16.2307 7.62213 16.2113 6.40934 16.2183ZM33.3631 16.0876C32.0872 16.508 31.0594 17.6977 30.9856 19.0678C30.8851 20.1019 31.2476 21.1675 31.964 21.919C33.069 23.1248 34.6954 23.616 35.9519 24.6253C36.3899 24.9609 36.6135 25.6222 36.3194 26.1225C36.038 26.6794 35.364 26.8544 34.7922 26.8933C33.4475 26.9161 32.2174 26.2656 31.1071 25.5692C31.1528 26.7253 31.2249 27.8798 31.3358 29.0323C33.2539 29.6312 35.4695 30.0362 37.3296 29.0444C39.3466 28.0123 40.0539 25.0796 38.72 23.2448C37.6237 21.9086 35.9659 21.2775 34.5405 20.3812C34.1709 20.1301 33.782 19.7555 33.8224 19.266C33.8331 18.596 34.5632 18.2299 35.1581 18.2688C36.3355 18.3023 37.3984 18.9035 38.3805 19.5044C38.3805 18.481 38.3908 17.4593 38.3715 16.4356C36.7718 15.9179 35.0048 15.4867 33.3631 16.0876ZM1.19e-05 9.69215C19.6839 9.66365 39.3659 9.69383 59.0496 9.67773C52.503 18.3623 46.0024 27.0824 39.4257 35.7442C26.2883 35.7332 13.1513 35.7369 0.0142491 35.7493C-0.0154613 27.063 0.01258 18.3784 1.19e-05 9.69215Z" fill="#19497D"/>
<path fill-rule="evenodd" clip-rule="evenodd" d="M104.011 29.2378C104.745 29.2308 105.479 29.2378 106.213 29.2328C106.221 27.2051 106.207 25.1792 106.218 23.1536C108.15 25.1775 110.081 27.2051 112.004 29.2395C112.967 29.2271 113.928 29.2448 114.89 29.2254C112.726 26.9858 110.589 24.7161 108.428 22.4712C110.38 20.3869 112.342 18.3137 114.278 16.217C113.416 16.219 112.553 16.2153 111.693 16.2206C109.859 18.1564 108.039 20.1042 106.214 22.0487C106.204 20.1042 106.234 18.1598 106.204 16.2153C105.479 16.219 104.754 16.2227 104.029 16.2119C103.979 20.5532 104.016 24.8965 104.011 29.2378ZM64.6223 16.2173C64.6136 20.5569 64.6279 24.8965 64.6169 29.2361C65.995 29.2254 67.373 29.2536 68.7527 29.215C70.0376 29.1318 71.4647 28.8277 72.3023 27.753C73.0557 26.7541 73.1542 25.3649 72.7967 24.1927C72.4942 23.2401 71.6546 22.5527 70.7112 22.2925C71.2023 22.0433 71.7267 21.8083 72.0806 21.368C72.8918 20.3959 72.8831 18.9129 72.2936 17.8328C71.7408 16.8554 70.5917 16.4329 69.5358 16.3092C67.9044 16.1341 66.2607 16.2542 64.6223 16.2173ZM80.1054 17.2511C78.2207 21.2426 76.3693 25.2499 74.4721 29.2328C75.2289 29.2361 75.9857 29.2291 76.7441 29.2395C77.119 28.476 77.4569 27.6964 77.8017 26.9205C79.7516 26.9205 81.7014 26.9134 83.6513 26.9238C83.9878 27.7017 84.3253 28.4797 84.6915 29.2448C85.471 29.2254 86.2525 29.2378 87.0323 29.2328C84.989 24.7248 82.979 20.2035 80.8936 15.717C80.5471 16.1817 80.3641 16.737 80.1054 17.2511ZM89.2529 15.7505C89.2249 20.2457 89.2442 24.7426 89.2426 29.2395C89.9516 29.2361 90.6627 29.2204 91.3737 29.2519C91.4335 26.4963 91.3754 23.7387 91.4017 20.9848C94.2002 23.8517 96.9135 26.8054 99.717 29.669C99.7681 29.6442 99.8719 29.5969 99.9246 29.5718C99.9387 25.37 99.9193 21.1682 99.9333 16.9667C99.9407 16.7085 99.9123 16.454 99.8455 16.2049C99.1395 16.2277 98.4358 16.2153 97.7301 16.2173C97.7181 18.9799 97.7301 21.7429 97.7247 24.5059C95.1219 21.7446 92.4964 19.0064 89.8885 16.2491C89.7036 16.051 89.517 15.8387 89.2529 15.7505ZM57.9755 17.2584C59.3956 14.7396 60.7209 12.1637 62.1833 9.67333C82.0586 9.68574 101.936 9.69446 121.812 9.66797C121.875 18.3596 121.829 27.0549 121.835 35.7479C97.1686 35.7325 72.5046 35.7449 47.8389 35.7429C51.1948 29.5684 54.6038 23.4238 57.9755 17.2584Z" fill="#19497D"/>
</g>
<path fill-rule="evenodd" clip-rule="evenodd" d="M66.7769 17.9575C67.7623 17.986 68.8252 17.818 69.7386 18.2794C70.8282 18.8572 70.7066 20.6638 69.6771 21.2436C68.8112 21.7794 67.7449 21.6044 66.7805 21.6309C66.7805 20.4056 66.7839 19.1807 66.7769 17.9575Z" fill="#19497D"/>
<path fill-rule="evenodd" clip-rule="evenodd" d="M80.6287 20.5118C80.6711 20.4551 80.7572 20.3438 80.7996 20.2871C81.4683 21.8798 82.1653 23.4602 82.8359 25.0512C81.4385 25.0425 80.0378 25.0918 78.6421 25.0284C79.3321 23.5359 79.9637 22.016 80.6287 20.5118Z" fill="#19497D"/>
<path fill-rule="evenodd" clip-rule="evenodd" d="M66.7795 23.3685C67.8691 23.4286 69.0973 23.1405 70.0564 23.8068C71.1456 24.5938 70.9804 26.5735 69.7449 27.1405C68.8192 27.5667 67.767 27.3866 66.7832 27.4218C66.7815 26.0712 66.7849 24.7192 66.7795 23.3685Z" fill="#19497D"/>
</svg>
