<svg width="24" height="24" viewBox="0 0 24 24" fill="none" xmlns="http://www.w3.org/2000/svg">
<path d="M20.4068 4.80078C20.4068 4.80078 17.4904 8.24742 16.8276 9.0428C16.1648 9.83818 15.6345 11.2964 11.1274 10.3684C6.62022 9.44049 4.76433 8.77768 3.30614 9.97074C1.84794 11.1638 2.11307 14.2128 4.36664 15.0081C6.62022 15.8035 8.07841 15.5384 8.07841 15.5384" stroke="#6E7480" stroke-width="2" stroke-miterlimit="10" stroke-linecap="round" stroke-linejoin="round"/>
<path d="M21.5998 5.99414C21.5998 5.99414 18.0206 11.2967 14.574 13.9479" stroke="#6E7480" stroke-width="2" stroke-miterlimit="10" stroke-linecap="round" stroke-linejoin="round"/>
<path d="M11.8564 17.2621C13.943 17.2621 15.6345 16.3718 15.6345 15.2736C15.6345 14.1754 13.943 13.2852 11.8564 13.2852C9.76986 13.2852 8.07837 14.1754 8.07837 15.2736C8.07837 16.3718 9.76986 17.2621 11.8564 17.2621Z" stroke="#6E7480" stroke-width="2" stroke-miterlimit="10" stroke-linecap="round" stroke-linejoin="round"/>
<path d="M15.6345 15.2734V16.9968C15.6345 18.0944 13.943 18.9852 11.8564 18.9852C9.76987 18.9852 8.07837 18.0944 8.07837 16.9968V15.2734" stroke="#6E7480" stroke-width="2" stroke-miterlimit="10" stroke-linecap="round" stroke-linejoin="round"/>
</svg>
