<svg width="24" height="24" viewBox="0 0 24 24" fill="none" xmlns="http://www.w3.org/2000/svg">
<path d="M8.51769 11.0859C8.51769 11.0859 6.94456 8.27344 6.94456 6.16406C6.94456 4.05469 8.37468 3.07031 12.522 3.07031C16.6694 3.07031 18.5285 5.03906 18.5285 7.14844C18.5285 9.25781 18.028 15.7969 16.3118 16.6406C15.5367 17.0217 14.2711 17.033 12.8796 17.0625C11.1877 17.0977 9.39578 17.078 9.15981 16.7545C8.63639 16.0373 8.07006 14.1966 6.94456 13.3359C5.65745 12.3516 4.94239 8.97656 5.94348 8.41406C6.94456 7.85156 7.37359 8.69531 8.51769 11.0859Z" stroke="#6E7480" stroke-width="2" stroke-miterlimit="10" stroke-linecap="round" stroke-linejoin="round"/>
<path d="M16.2404 16.7109C16.2404 16.7109 16.2404 18.3984 16.2404 19.1016C16.2404 19.8047 16.3834 20.9297 12.9511 20.9297C9.5188 20.9297 9.5188 20.6484 9.5188 19.5234C9.5188 18.8203 9.5188 16.9402 9.5188 16.9402" stroke="#6E7480" stroke-width="2" stroke-miterlimit="10" stroke-linecap="round" stroke-linejoin="round"/>
<path d="M11.8155 17.0742C11.8155 17.0742 11.7354 18.7491 12.1644 19.1709C12.5935 19.5928 14.8817 19.1709 16.2403 18.8194" stroke="#6E7480" stroke-width="2" stroke-miterlimit="10" stroke-linecap="round" stroke-linejoin="round"/>
</svg>
