<svg width="24" height="24" viewBox="0 0 24 24" fill="none" xmlns="http://www.w3.org/2000/svg">
<g opacity="0.5">
<path fill-rule="evenodd" clip-rule="evenodd" d="M5.466 6.40438C5.56298 5.30408 6.53357 4.49073 7.63388 4.58772L17.5953 5.46575C18.6956 5.56273 19.5089 6.53333 19.4119 7.63363L18.5339 17.595C18.4369 18.6953 17.4663 19.5087 16.366 19.4117L6.40463 18.5336C5.30433 18.4367 4.49098 17.4661 4.58796 16.3658L5.466 6.40438ZM10.7843 14.4022C10.7116 15.2275 9.98362 15.8375 9.15839 15.7647C8.33316 15.692 7.72315 14.9641 7.79589 14.1388C7.86862 13.3136 8.59657 12.7036 9.4218 12.7763C10.247 12.8491 10.857 13.577 10.7843 14.4022ZM14.5781 11.2231C15.4033 11.2958 16.1313 10.6858 16.204 9.86056C16.2767 9.03534 15.6667 8.30739 14.8415 8.23465C14.0163 8.16191 13.2883 8.77193 13.2156 9.59715C13.1429 10.4224 13.7529 11.1503 14.5781 11.2231Z" fill="#6E7480"/>
</g>
</svg>
