<svg width="24" height="24" viewBox="0 0 24 24" fill="none" xmlns="http://www.w3.org/2000/svg">
<g opacity="0.5">
<path fill-rule="evenodd" clip-rule="evenodd" d="M16.5 3C16.5 3 20.0285 10.9637 13 16C13.5 16.5 13.75 16.75 13.75 17C13.75 17.25 13.5 17.5 13 18L14.9755 19V21H9.00001V19L11 18C10.5 17.5 10.25 17.25 10.25 17C10.25 16.75 10.5 16.5 11 16C3.9714 10.9637 7.5 3 7.5 3H16.5ZM21.491 6C21.6449 6 21.7817 6.07461 21.8843 6.20518C21.987 6.33575 22.0212 6.52228 21.987 6.6715C21.9699 6.76477 21.5252 9.15233 20.1229 11.4653C19.6801 12.1954 19.1907 12.8326 18.6595 13.3752C18.5379 13.0004 18.3855 12.6395 18.2053 12.2954C18.5838 11.8715 18.938 11.3894 19.2679 10.8497C20.1229 9.43212 20.6018 7.9399 20.8241 7.11917H17.8656C17.8314 6.72746 17.7972 6.3544 17.7288 6H21.491ZM4.74901 10.887C5.07428 11.4127 5.42289 11.8827 5.79409 12.2964C5.61505 12.6385 5.46347 12.9972 5.34227 13.3696C4.8105 12.8291 4.32057 12.1941 3.87685 11.4653C2.47456 9.17098 2.02993 6.78342 2.01283 6.6715C1.97862 6.50363 2.01283 6.33575 2.11543 6.20518C2.21804 6.07461 2.35485 6 2.50876 6H6.0829C6.0316 6.3544 5.9803 6.72746 5.9632 7.11917H3.17571C3.39802 7.95855 3.87685 9.45078 4.74901 10.887Z" fill="#6E7480"/>
</g>
</svg>
