<svg width="24" height="24" viewBox="0 0 24 24" fill="none" xmlns="http://www.w3.org/2000/svg">
<path d="M5.44482 5.44336L18.5497 18.5482" stroke="#6E7480" stroke-width="2" stroke-miterlimit="10"/>
<path d="M5.48926 18.5046L18.5055 5.48828" stroke="#6E7480" stroke-width="2" stroke-miterlimit="10"/>
<path d="M11.9973 21.2939C17.1321 21.2939 21.2946 17.1313 21.2946 11.9966C21.2946 6.86178 17.1321 2.69922 11.9973 2.69922C6.86251 2.69922 2.69995 6.86178 2.69995 11.9966C2.69995 17.1313 6.86251 21.2939 11.9973 21.2939Z" stroke="#6E7480" stroke-width="2" stroke-miterlimit="10"/>
<path d="M11.9459 21.2994C11.9211 21.0355 11.9087 20.7681 11.9087 20.4972C11.9087 15.7529 15.7534 11.9082 20.4977 11.9082C20.7686 11.9082 21.036 11.9206 21.2999 11.9454" stroke="#6E7480" stroke-width="2" stroke-miterlimit="10"/>
<path d="M11.9689 2.70117C11.9884 2.93493 11.9972 3.17047 11.9972 3.40777C11.9972 8.15207 8.15256 11.9967 3.40826 11.9967C3.17095 11.9967 2.93542 11.9879 2.70166 11.9684" stroke="#6E7480" stroke-width="2" stroke-miterlimit="10"/>
</svg>
