<svg width="24" height="24" viewBox="0 0 24 24" fill="none" xmlns="http://www.w3.org/2000/svg">
<circle cx="17" cy="14" r="3" stroke="#6E7480" stroke-width="2" stroke-linejoin="round"/>
<circle cx="10" cy="17" r="3" stroke="#6E7480" stroke-width="2" stroke-linejoin="round"/>
<path d="M5.10176 8.37663C5.38066 7.25501 6.05093 6.63433 6.8057 6.30501C7.6015 5.95778 8.48935 5.94083 9.07051 6.08604C9.22064 6.12355 9.46585 6.25562 9.67354 6.49996C9.87014 6.73124 9.99833 7.02191 9.99998 7.35742C10.0044 8.25295 9.31857 9.32898 8.37694 9.73231C7.07811 10.2886 6.19297 10.8096 5.56246 11.2571C5.51833 11.1369 5.46994 11.0124 5.41663 10.8837C5.13032 10.1929 4.84082 9.42599 5.10176 8.37663Z" stroke="#6E7480" stroke-width="2" stroke-linejoin="round"/>
<path d="M9.99976 14C11.4998 12 12.803 6.55 9.00659 4C12.8155 4.6875 15.4998 8.5 15.9998 10.5" stroke="#6E7480" stroke-width="2" stroke-linejoin="round"/>
</svg>
