<svg width="24" height="24" viewBox="0 0 24 24" fill="none" xmlns="http://www.w3.org/2000/svg">
<path d="M19.2571 13.1593C19.3172 12.7678 19.3472 12.3764 19.3472 11.9849C19.3472 11.5935 19.3172 11.2021 19.2571 10.8106L21 9.03407C20.5793 7.76941 19.9182 6.6252 19.0467 5.63154L16.6427 6.23376C16.0417 5.75198 15.3506 5.36054 14.6294 5.05943L13.9683 2.68067C13.3072 2.56022 12.6761 2.5 11.985 2.5C11.2938 2.5 10.6628 2.56022 10.0317 2.71078L9.37062 5.08954C8.61937 5.36054 7.95826 5.78209 7.35726 6.26387L4.95326 5.66165C4.0818 6.6252 3.4207 7.76941 3 9.06418L4.7429 10.8407C4.6828 11.2322 4.65275 11.6236 4.65275 12.0151C4.65275 12.4065 4.6828 12.7979 4.7429 13.1894L3 14.9358C3.4207 16.2005 4.0818 17.3447 4.95326 18.3384L7.35726 17.7361C7.95826 18.2179 8.64942 18.6094 9.37062 18.9105L10.0317 21.2892C10.6628 21.4097 11.3239 21.5 11.985 21.5C12.6461 21.5 13.3072 21.4398 13.9382 21.2892L14.5993 18.9105C15.3506 18.6395 16.0117 18.2179 16.6127 17.7361L19.0167 18.3384C19.8881 17.3748 20.5492 16.2306 20.9699 14.9358L19.2571 13.1593ZM11.985 16.351C9.58097 16.351 7.62771 14.3938 7.62771 11.9849C7.62771 9.57607 9.58097 7.61886 11.985 7.61886C14.389 7.61886 16.3422 9.57607 16.3422 11.9849C16.3422 14.3938 14.419 16.351 11.985 16.351Z" fill="#6E7480"/>
</svg>
