<svg width="19" height="19" viewBox="0 0 19 19" fill="none" xmlns="http://www.w3.org/2000/svg">
<path d="M8.85954 3.31672C9.12912 2.69072 10.0167 2.69073 10.2863 3.31672L11.4905 6.11316C11.603 6.37427 11.8491 6.55308 12.1322 6.57933L15.1639 6.86051C15.8425 6.92346 16.1168 7.76758 15.6048 8.21741L13.3173 10.2269C13.1037 10.4145 13.0097 10.7038 13.0722 10.9812L13.7417 13.9514C13.8915 14.6163 13.1735 15.138 12.5874 14.79L9.96945 13.2355C9.725 13.0903 9.42079 13.0903 9.17635 13.2355L6.55836 14.79C5.97232 15.138 5.25427 14.6163 5.40412 13.9514L6.07355 10.9812C6.13605 10.7038 6.04205 10.4145 5.82847 10.2269L3.54103 8.21741C3.02899 7.76758 3.30326 6.92346 3.98192 6.86051L7.01363 6.57933C7.29671 6.55308 7.54282 6.37426 7.65526 6.11316L8.85954 3.31672Z" fill="#FF3333"/>
</svg>
