<svg width="24" height="24" viewBox="0 0 24 24" fill="none" xmlns="http://www.w3.org/2000/svg">
<g opacity="0.5">
<circle cx="17" cy="14" r="4" fill="#6E7480"/>
<circle cx="10" cy="17" r="4" fill="#6E7480"/>
<path d="M4.13131 8.13532C4.85432 5.2277 7.74636 4.72445 9.31291 5.11586C10.0629 5.30326 10.994 6.14675 11 7.3525C11.0064 8.66514 10.0675 10.096 8.77067 10.6515C6.42088 11.658 5.54784 12.5154 5.03508 13C4.91458 12.5527 4.79408 11.9935 4.49282 11.2666C4.19157 10.5397 3.78835 9.51455 4.13131 8.13532Z" fill="#6E7480"/>
<path d="M10.3179 13.5625C11.4626 11.4375 12.803 6.55 9.00659 4C12.8155 4.6875 15.5 8.5 16 10.5" stroke="#6E7480" stroke-width="2" stroke-linejoin="round"/>
</g>
</svg>
