<svg width="24" height="24" viewBox="0 0 24 24" fill="none" xmlns="http://www.w3.org/2000/svg">
<path fill-rule="evenodd" clip-rule="evenodd" d="M17 20H9.25L9.75 18H17C18.1046 18 19 17.1046 19 16V8C19 6.89543 18.1046 6 17 6H12.75L13.25 4H17C19.2091 4 21 5.79086 21 8V16C21 18.2091 19.2091 20 17 20ZM16 16H10.25L12.25 8H16C16.5523 8 17 8.44772 17 9V15C17 15.5523 16.5523 16 16 16ZM4.5 7C4.22386 7 4 7.22386 4 7.5C4 7.77614 4.22386 8 4.5 8H10.5C10.7761 8 11 7.77614 11 7.5C11 7.22386 10.7761 7 10.5 7H4.5ZM2.5 11C2.22386 11 2 11.2239 2 11.5C2 11.7761 2.22386 12 2.5 12H8.5C8.77614 12 9 11.7761 9 11.5C9 11.2239 8.77614 11 8.5 11H2.5ZM3 15.5C3 15.2239 3.22386 15 3.5 15H8.5C8.77614 15 9 15.2239 9 15.5C9 15.7761 8.77614 16 8.5 16H3.5C3.22386 16 3 15.7761 3 15.5Z" fill="#6E7480"/>
</svg>
