<svg width="24" height="24" viewBox="0 0 24 24" fill="none" xmlns="http://www.w3.org/2000/svg">
<path d="M12 6.51379C14.8763 6.51379 15.2734 5.40039 17.1031 5.40039C20.2577 5.40039 21 8.1839 21 9.66843C21 11.153 20.4656 14.4672 20.2577 16.3488C19.8866 19.6891 16.9175 18.9468 16.1753 16.3488C15.433 13.7509 15.433 13.0086 12 13.0086C8.56701 13.0086 8.56701 13.7509 7.82474 16.3488C7.08247 18.9468 4.1134 19.6891 3.74227 16.3488C3.53443 14.4672 3 11.153 3 9.66843C3 8.1839 3.74227 5.40039 6.89691 5.40039C8.75258 5.40039 9.12371 6.51379 12 6.51379Z" stroke="#6E7480" stroke-width="2" stroke-miterlimit="10" stroke-linecap="round" stroke-linejoin="round"/>
<path d="M17.4 11.4008C18.3941 11.4008 19.2 10.5949 19.2 9.60078C19.2 8.60667 18.3941 7.80078 17.4 7.80078C16.4059 7.80078 15.6 8.60667 15.6 9.60078C15.6 10.5949 16.4059 11.4008 17.4 11.4008Z" fill="#6E7480"/>
<path d="M6.59999 11.4008C7.5941 11.4008 8.39999 10.5949 8.39999 9.60078C8.39999 8.60667 7.5941 7.80078 6.59999 7.80078C5.60588 7.80078 4.79999 8.60667 4.79999 9.60078C4.79999 10.5949 5.60588 11.4008 6.59999 11.4008Z" fill="#6E7480"/>
</svg>
