<svg width="24" height="24" viewBox="0 0 24 24" fill="none" xmlns="http://www.w3.org/2000/svg">
<path fill-rule="evenodd" clip-rule="evenodd" d="M12 20C16.4183 20 20 16.4183 20 12C20 7.58172 16.4183 4 12 4C7.58172 4 4 7.58172 4 12C4 16.4183 7.58172 20 12 20ZM12 22C17.5228 22 22 17.5228 22 12C22 6.47715 17.5228 2 12 2C6.47715 2 2 6.47715 2 12C2 17.5228 6.47715 22 12 22Z" fill="#6E7480"/>
<path fill-rule="evenodd" clip-rule="evenodd" d="M12 15C13.6569 15 15 13.6569 15 12C15 10.3431 13.6569 9 12 9C10.3431 9 9 10.3431 9 12C9 13.6569 10.3431 15 12 15ZM12 17C14.7614 17 17 14.7614 17 12C17 9.23858 14.7614 7 12 7C9.23858 7 7 9.23858 7 12C7 14.7614 9.23858 17 12 17Z" fill="#6E7480"/>
<rect x="11" y="3" width="2" height="3" fill="#6E7480"/>
<rect x="19.2942" y="6.63477" width="2" height="5" transform="rotate(60 19.2942 6.63477)" fill="#6E7480"/>
<rect x="20.5884" y="16" width="2" height="2.9107" transform="rotate(120 20.5884 16)" fill="#6E7480"/>
<rect x="11" y="18" width="2" height="3" fill="#6E7480"/>
<rect x="8.03589" y="13.1348" width="2" height="5" transform="rotate(60 8.03589 13.1348)" fill="#6E7480"/>
<rect x="7.15967" y="8.24609" width="2" height="2.49374" transform="rotate(120 7.15967 8.24609)" fill="#6E7480"/>
</svg>
