<svg width="24" height="24" viewBox="0 0 24 24" fill="none" xmlns="http://www.w3.org/2000/svg">
<path d="M11.6488 14.902C13.4847 13.066 13.1871 9.79177 10.984 7.58867C8.78085 5.38556 5.50658 5.0879 3.67066 6.92382C1.83474 8.75974 2.1324 12.034 4.33551 14.2371C6.53861 16.4402 9.81288 16.7379 11.6488 14.902Z" stroke="#6E7480" stroke-width="2" stroke-miterlimit="10"/>
<path d="M6.5332 15.6958C8.44458 16.585 11.6011 16.1848 12.6461 17.2298L16.1599 20.7436C16.5011 21.0848 17.0532 21.0848 17.3943 20.7436C17.7355 20.4024 17.7355 19.8504 17.3943 19.5092L13.8819 15.994C13.0276 15.1397 13.1095 12.456 12.7119 10.6387" stroke="#6E7480" stroke-width="2" stroke-miterlimit="10"/>
<path d="M12.6941 17.1817L13.9285 15.9473" stroke="#6E7480" stroke-width="2" stroke-miterlimit="10"/>
<path d="M17.2929 10.56C19.009 10.56 20.4001 9.16887 20.4001 7.45285C20.4001 5.73682 19.009 4.3457 17.2929 4.3457C15.5769 4.3457 14.1858 5.73682 14.1858 7.45285C14.1858 9.16887 15.5769 10.56 17.2929 10.56Z" stroke="#6E7480" stroke-width="2" stroke-miterlimit="10"/>
<path d="M14.2119 7.85387C14.2119 7.85387 15.5181 7.53837 16.4479 8.29962C17.3776 9.06087 17.0944 10.5547 17.0944 10.5547" stroke="#6E7480" stroke-width="2" stroke-miterlimit="10"/>
<path d="M20.4 7.49575C20.4 7.49575 18.562 8.21279 17.5474 7.02968C16.5328 5.84658 17.116 4.35156 17.116 4.35156" stroke="#6E7480" stroke-width="2" stroke-miterlimit="10"/>
</svg>
