<svg width="24" height="24" viewBox="0 0 24 24" fill="none" xmlns="http://www.w3.org/2000/svg">
<g opacity="0.5">
<path fill-rule="evenodd" clip-rule="evenodd" d="M19 9C19 12.866 15.866 16 12 16C8.13401 16 5 12.866 5 9C5 5.13401 8.13401 2 12 2C15.866 2 19 5.13401 19 9ZM12 5L12.8981 7.76393H15.8042L13.4531 9.47214L14.3511 12.2361L12 10.5279L9.64886 12.2361L10.5469 9.47214L8.19577 7.76393H11.1019L12 5ZM7 22V15.2454C8.36959 16.3433 10.1081 17 12 17C13.8919 17 15.6304 16.3433 17 15.2453V22L12 20L7 22Z" fill="#6E7480"/>
</g>
</svg>
