<svg width="24" height="24" viewBox="0 0 24 24" fill="none" xmlns="http://www.w3.org/2000/svg">
<path d="M16.5277 6.51923H14.1047C14.5428 7.03846 14.82 7.67308 14.9363 8.42308H17L16.5277 9.94231H14.9671C14.8439 11.0833 14.3614 11.9423 13.5195 12.5192C12.6776 13.0962 11.5072 13.3846 10.0082 13.3846L15.0698 18.8846V19H12.7392L7.29774 13.0673L7.28747 11.8654H9.84394C10.6995 11.859 11.3943 11.6859 11.9281 11.3462C12.462 11 12.8008 10.5321 12.9446 9.94231H7L7.47228 8.42308H12.924C12.5955 7.20513 11.5893 6.57051 9.90554 6.51923H7.02053L7.50308 5H17L16.5277 6.51923Z" fill="white"/>
</svg>
